<svg xmlns="http://www.w3.org/2000/svg" width="123.425" height="123.422" viewBox="0 0 123.425 123.422"><defs><style>.a{fill:#a0d2db;}</style></defs><path class="a" d="M66.711,5a61.711,61.711,0,1,0,0,123.422A61.016,61.016,0,0,0,105.4,114.787,61.709,61.709,0,0,0,66.711,5Zm0,21.611a20.05,20.05,0,1,1-20.05,20.05,20.05,20.05,0,0,1,20.05-20.05Zm39.543,76.109a53.484,53.484,0,0,1-79.083,0c-.884-.968-1.717-1.973-2.522-3,3.283-13.6,20.856-23.99,42.064-23.99s38.776,10.391,42.063,23.987C107.969,100.745,107.136,101.75,106.253,102.72Z" transform="translate(-5 -5)"/></svg>