<svg xmlns="http://www.w3.org/2000/svg" width="43.434" height="31.041" viewBox="0 0 43.434 31.041"><defs><style>.a{fill:#d77168;}.b{fill:#96342f;}.c{fill:#6d1b18;}.d{fill:#2d3e51;}.e{fill:#1a4072;}.f{fill:#3772af;}.g{fill:#0f2b47;}.h{fill:#fff;}</style></defs><g transform="translate(0)"><path class="a" d="M962.083,347.113s-2.468,14.562,6.191,12.765v5.555s7.353-2.777,8.823-5.719v-5.392s3.758.98,3.921-2.451-1.634-5.555-3.431-3.921Z" transform="translate(-947.598 -334.392)"/><path class="b" d="M979.793,372.407a3.5,3.5,0,0,0,.976-2.48,12.334,12.334,0,0,1-3.111,2.111c-.416.219-.848.434-1.289.619v2.319a5.693,5.693,0,0,0,.536-.24A9.166,9.166,0,0,0,979.793,372.407Z" transform="translate(-955.694 -347.032)"/><path class="c" d="M977.659,347.951l-15.5-.838s-.173,1.023-.267,2.494h18.993C980.365,347.622,979.012,346.721,977.659,347.951Z" transform="translate(-947.671 -334.392)"/><path class="d" d="M991.528,350.955a9.61,9.61,0,0,1,1.313,2.021,27.278,27.278,0,0,1,2.071-6.827,5.922,5.922,0,0,0-1.963-.5c-.852-.044-.639.464-.694,1.191a21.144,21.144,0,0,1-.268,2.107A10.384,10.384,0,0,0,991.528,350.955Z" transform="translate(-964.082 -333.58)"/><path class="e" d="M957.814,331.66v-3.732a9.34,9.34,0,0,1,9.34-9.34H969.5a9.34,9.34,0,0,1,9.34,9.34v3.381Z" transform="translate(-945.414 -318.588)"/><path class="f" d="M957.814,341.256v2.963l21.029-.351v-2.612Z" transform="translate(-945.414 -331.147)"/><path class="e" d="M930.47,347.654h42.972V345.62H930.008Z" transform="translate(-930.008 -333.565)"/><path class="e" d="M953.693,341.256" transform="translate(-943.13 -331.147)"/><path class="b" d="M997.786,353.5a1.484,1.484,0,0,1,.857-.77.406.406,0,0,1,.283.011.514.514,0,0,1,.21.336,3.121,3.121,0,0,1,.17,1.8c-.157.5-1.163,1.471-1.745,1.009C997.017,355.455,997.53,353.955,997.786,353.5Z" transform="translate(-967.302 -337.49)"/><path class="b" d="M968.5,357.729c-.475.168-1.051.554-1.337-.16a3.6,3.6,0,0,1,.061-1.173c.056-.834.159-1.664.2-2.5a.208.208,0,0,0-.406-.055,14.712,14.712,0,0,0-.4,2.387,3.883,3.883,0,0,0,0,1.936c.413.8,1.626.5,2.158.03A.281.281,0,0,0,968.5,357.729Z" transform="translate(-950.214 -338.039)"/><path class="b" d="M972.893,363.3a1.551,1.551,0,0,0-1.105-.33.217.217,0,0,0,0,.434,1.055,1.055,0,0,1,.124.019,3.937,3.937,0,0,1-1.294,1.142,3.285,3.285,0,0,1-2.437.052.224.224,0,0,0-.172.408c1.452.73,3.895.31,4.5-1.4.052.023.1.046.16.068C972.889,363.779,973.054,363.451,972.893,363.3Z" transform="translate(-951.002 -343.175)"/><path class="g" d="M976.024,352.929a.652.652,0,0,0-1.177.154,1.062,1.062,0,0,0-.034.218,1,1,0,0,0-.019.105,2.514,2.514,0,0,0,.041.734.66.66,0,0,0,1.273,0A1.771,1.771,0,0,0,976.024,352.929Z" transform="translate(-954.814 -337.444)"/><path class="g" d="M964.6,352.929a.652.652,0,0,0-1.177.154,1.066,1.066,0,0,0-.034.218,1,1,0,0,0-.019.105,2.522,2.522,0,0,0,.041.734.66.66,0,0,0,1.273,0A1.77,1.77,0,0,0,964.6,352.929Z" transform="translate(-948.487 -337.444)"/><path class="h" d="M974.928,354.352a.415.415,0,1,1-.415-.415A.415.415,0,0,1,974.928,354.352Z" transform="translate(-954.436 -338.173)"/><path class="h" d="M963.724,354.352a.415.415,0,1,1-.415-.415A.415.415,0,0,1,963.724,354.352Z" transform="translate(-948.228 -338.173)"/><path class="d" d="M991.537,358.52c-.2-.331-.395-.669-.58-1.011-.051-.1-.193-.011-.144.085q.265.519.554,1.025a3.686,3.686,0,0,0,.581.872c.048.045.144,0,.119-.07A5.22,5.22,0,0,0,991.537,358.52Z" transform="translate(-963.691 -340.129)"/><path class="d" d="M991.618,359.954c-.256-.586-.658-1.114-.959-1.679-.062-.116-.236-.013-.175.1a7.9,7.9,0,0,0,1.007,1.675C991.557,360.125,991.652,360.032,991.618,359.954Z" transform="translate(-963.507 -340.548)"/><path class="d" d="M991.544,361.167c-.3-.516-.664-.984-.947-1.51-.073-.135-.276-.016-.205.12a5.406,5.406,0,0,0,1.02,1.493A.085.085,0,0,0,991.544,361.167Z" transform="translate(-963.455 -341.309)"/></g></svg>