<svg xmlns="http://www.w3.org/2000/svg" width="30.03" height="92.007" viewBox="0 0 30.03 92.007"><defs><style>.a{fill:#cbe0f4;}.b{fill:#8fa6d1;}</style></defs><g transform="translate(0 0)"><path class="a" d="M1220.763,653.175a26.348,26.348,0,0,0-3.873,3.61q-1.74,1.764-3.4,3.6-2.417,2.672-4.649,5.5,1.119-5.416,2.435-10.791c1.64-6.7,3.417-13.419,5.56-19.975.122-.374-.445-.6-.571-.227a285.781,285.781,0,0,0-8.753,31.634c-.75-6.91-3.036-13.652-2.687-20.658.019-.375-.55-.45-.585-.07-.723,7.845,2.029,15.386,2.426,23.164a.427.427,0,0,0,.269.381c-.02.1-.04.194-.059.292q-2.03,10.33-3.278,20.788a190.406,190.406,0,0,1-6.829-25.662.17.17,0,0,0-.337.051,118.593,118.593,0,0,0,6.9,27.89q-.732,6.6-1.149,13.227-.169,2.71-.308,5.436a95.967,95.967,0,0,1-9.313-22.167c-.065-.223-.419-.184-.367.056a79.764,79.764,0,0,0,9.6,23.877c-.189,4.362-.268,8.736-.1,13.081.026.668,1.171.654,1.185-.02.092-4.3.114-8.6.239-12.895,2.237-2.829,4.359-5.755,6.494-8.66q1.661-2.259,3.293-4.539a34.521,34.521,0,0,0,2.927-4.309c.24-.473-.439-.73-.742-.411a41.879,41.879,0,0,0-3.341,4.5q-1.566,2.171-3.146,4.331c-1.787,2.446-3.625,4.856-5.424,7.294.04-1.082.085-2.165.143-3.247q.425-7.787,1.281-15.541a113.569,113.569,0,0,1,15.074-15.529.521.521,0,0,0-.655-.81,93.641,93.641,0,0,0-14.2,14.4c.016-.133.03-.267.046-.4q1.307-11.165,3.5-22.194,2.766-3.611,5.806-7,1.811-2.007,3.721-3.923a41.582,41.582,0,0,0,3.492-3.495C1221.713,653.359,1221.155,652.914,1220.763,653.175Z" transform="translate(-1191.456 -634.703)"/><path class="b" d="M1225.491,650.024a.666.666,0,0,0-.552.75l.033.139a.646.646,0,1,0,1.278-.195c0-.048-.007-.095-.01-.143A.661.661,0,0,0,1225.491,650.024Z" transform="translate(-1209.593 -643.186)"/><path class="b" d="M1227.166,661.717a.369.369,0,0,0,.111.729A.369.369,0,0,0,1227.166,661.717Z" transform="translate(-1210.668 -649.667)"/><path class="b" d="M1237.532,644.6a.362.362,0,0,0,.109.715A.362.362,0,0,0,1237.532,644.6Z" transform="translate(-1216.414 -640.183)"/><path class="b" d="M1213.958,680.423a.434.434,0,0,0,.131.858A.434.434,0,0,0,1213.958,680.423Z" transform="translate(-1203.32 -660.03)"/><path class="b" d="M1210.026,691.048l-.161-.205a.4.4,0,1,0-.456.62l.244.092A.328.328,0,0,0,1210.026,691.048Z" transform="translate(-1200.859 -665.726)"/><path class="b" d="M1214.121,705.984a1.25,1.25,0,0,0-.276.318.655.655,0,0,0-.111.451.618.618,0,0,0,.24.4.625.625,0,0,0,.849-.129,1.258,1.258,0,0,0,.222-.358A.6.6,0,0,0,1214.121,705.984Z" transform="translate(-1203.389 -674.122)"/><path class="b" d="M1219.8,707.587a.457.457,0,0,0-.342.626l.062.174a.415.415,0,0,0,.786-.12l.007-.184A.456.456,0,0,0,1219.8,707.587Z" transform="translate(-1206.548 -675.08)"/><path class="b" d="M1213.642,722.945a.738.738,0,0,0,.222,1.458A.738.738,0,0,0,1213.642,722.945Z" transform="translate(-1203.008 -683.587)"/><path class="b" d="M1199.856,743.947a.427.427,0,1,0-.843.128.513.513,0,0,0,.21.451.414.414,0,0,0,.566-.087A.511.511,0,0,0,1199.856,743.947Z" transform="translate(-1195.236 -695.026)"/><path class="b" d="M1196.9,757.234a.658.658,0,0,0,.2,1.3A.658.658,0,0,0,1196.9,757.234Z" transform="translate(-1193.77 -702.585)"/><path class="b" d="M1205.387,768.987a.448.448,0,0,0,.135.886A.448.448,0,0,0,1205.387,768.987Z" transform="translate(-1198.565 -709.098)"/><path class="b" d="M1207.52,756.4a.7.7,0,0,0-.576.783c.012.062.024.124.036.187a.68.68,0,0,0,1.344-.2l-.022-.19A.692.692,0,0,0,1207.52,756.4Z" transform="translate(-1199.625 -702.124)"/><path class="b" d="M1202.573,732.894a.362.362,0,0,0,.109.715A.362.362,0,0,0,1202.573,732.894Z" transform="translate(-1197.046 -689.102)"/><path class="b" d="M1194.737,787.03a.448.448,0,0,0,.135.886A.448.448,0,0,0,1194.737,787.03Z" transform="translate(-1192.665 -719.094)"/><path class="b" d="M1191.083,801.334a.659.659,0,0,0,.2,1.3A.659.659,0,0,0,1191.083,801.334Z" transform="translate(-1190.546 -727.018)"/><path class="b" d="M1199.624,816.341a.883.883,0,0,0,.265,1.744A.883.883,0,0,0,1199.624,816.341Z" transform="translate(-1195.176 -735.331)"/><path class="b" d="M1202.248,805.526a.913.913,0,0,0-.751,1.022l.029.188a.9.9,0,0,0,1.773-.27l-.029-.189A.907.907,0,0,0,1202.248,805.526Z" transform="translate(-1196.608 -729.338)"/><path class="a" d="M1238.073,713.794a1.294,1.294,0,0,0-.159.254.118.118,0,0,0,.183.135,1.332,1.332,0,0,0,.2-.228A.137.137,0,0,0,1238.073,713.794Z" transform="translate(-1216.784 -678.492)"/><path class="a" d="M1251.7,700.5c-.063-.041-.128-.079-.192-.119a.211.211,0,0,0-.25.34c.057.049.112.1.17.147C1251.659,701.057,1251.949,700.663,1251.7,700.5Z" transform="translate(-1224.14 -671.071)"/><path class="a" d="M1254.418,710.572a.133.133,0,0,0-.264.04q.012.094.026.189a.136.136,0,0,0,.269-.041C1254.438,710.7,1254.428,710.635,1254.418,710.572Z" transform="translate(-1225.786 -676.677)"/><path class="a" d="M1235.686,728.733a.4.4,0,0,0-.546.084l-.16.217a.39.39,0,1,0,.629.463l.16-.217A.4.4,0,0,0,1235.686,728.733Z" transform="translate(-1215.123 -686.758)"/><path class="a" d="M1256.57,720.948a.294.294,0,0,0,.088.582A.294.294,0,0,0,1256.57,720.948Z" transform="translate(-1226.992 -682.484)"/><path class="a" d="M1245.916,709.551a.14.14,0,0,0,.042.276A.14.14,0,0,0,1245.916,709.551Z" transform="translate(-1221.16 -676.17)"/><path class="a" d="M1243.491,677.578a.289.289,0,0,0,.087.57A.289.289,0,0,0,1243.491,677.578Z" transform="translate(-1219.749 -658.455)"/><path class="a" d="M1252.479,653.571a.18.18,0,0,0,.054.355A.18.18,0,0,0,1252.479,653.571Z" transform="translate(-1224.778 -645.155)"/><path class="a" d="M1233.874,761.754a1.333,1.333,0,0,0-.2-.124c-.336-.176-.711.333-.443.6a1.233,1.233,0,0,0,.177.152A.391.391,0,0,0,1233.874,761.754Z" transform="translate(-1214.146 -705.005)"/><path class="a" d="M1243.527,750.844l-.135-.027a.391.391,0,1,0,.113.745l.121-.066A.345.345,0,0,0,1243.527,750.844Z" transform="translate(-1219.583 -699.031)"/><path class="a" d="M1249.436,759.213a.288.288,0,0,0,.087.57A.288.288,0,0,0,1249.436,759.213Z" transform="translate(-1223.043 -703.684)"/><path class="a" d="M1238.747,765.2a.3.3,0,0,0-.42.064,1.113,1.113,0,0,0-.155.368.24.24,0,0,0,.335.246,1.11,1.11,0,0,0,.3-.257A.3.3,0,0,0,1238.747,765.2Z" transform="translate(-1216.931 -706.974)"/><path class="a" d="M1230.684,812.152a.307.307,0,0,0,.092.607A.307.307,0,0,0,1230.684,812.152Z" transform="translate(-1212.645 -733.014)"/><path class="a" d="M1238.929,802.24a.49.49,0,0,0,.148.968A.49.49,0,0,0,1238.929,802.24Z" transform="translate(-1217.13 -727.521)"/></g></svg>