<svg xmlns="http://www.w3.org/2000/svg" width="27.34" height="63.66" viewBox="0 0 27.34 63.66"><defs><style>.a{fill:#cbe0f4;}.b{fill:#8fa6d1;}</style></defs><g transform="translate(0 0)"><path class="a" d="M73.925,703.166a18.911,18.911,0,0,1,3.134,2.14q1.423,1.062,2.8,2.185c1.334,1.088,2.627,2.224,3.887,3.4q-1.377-3.717-2.889-7.382c-1.884-4.568-3.869-9.139-6.094-13.553-.127-.252.25-.475.38-.222A204.816,204.816,0,0,1,84.756,711.2c-.214-4.977.678-10-.324-14.926-.054-.263.341-.378.407-.112,1.358,5.48.222,11.12.78,16.674a.307.307,0,0,1-.149.3c.024.067.049.134.073.2q2.553,7.1,4.565,14.375a136.425,136.425,0,0,0,2.07-18.919.122.122,0,0,1,.244,0,84.992,84.992,0,0,1-1.883,20.5q1.23,4.6,2.241,9.247.412,1.9.8,3.818a68.772,68.772,0,0,0,4.208-16.71c.022-.164.277-.175.267,0A57.167,57.167,0,0,1,93.833,743.6c.6,3.07,1.132,6.16,1.482,9.257.054.476-.759.589-.842.114-.529-3.038-1.008-6.079-1.56-9.11-1.89-1.763-3.709-3.607-5.535-5.435q-1.42-1.422-2.822-2.861a24.654,24.654,0,0,1-2.538-2.738c-.221-.309.232-.564.481-.371a29.911,29.911,0,0,1,2.853,2.83q1.343,1.369,2.7,2.729c1.531,1.54,3.092,3.049,4.63,4.583-.145-.763-.293-1.524-.452-2.285q-1.141-5.471-2.583-10.873a81.407,81.407,0,0,0-12.356-9.377.374.374,0,0,1,.377-.644,67.11,67.11,0,0,1,11.615,8.673c-.025-.093-.05-.186-.075-.279q-2.13-7.77-4.877-15.347c-1.566-1.506-3.186-2.956-4.868-4.333q-1.5-1.227-3.059-2.378a29.76,29.76,0,0,1-2.851-2.1C73.272,703.4,73.619,703.025,73.925,703.166Z" transform="translate(-73.446 -689.619)"/><path class="b" d="M92.422,698.271a.477.477,0,0,1,.471.472l-.008.1a.463.463,0,0,1-.926,0l-.008-.1A.473.473,0,0,1,92.422,698.271Z" transform="translate(-83.698 -694.412)"/><path class="b" d="M93,706.7a.264.264,0,0,1,0,.528A.264.264,0,0,1,93,706.7Z" transform="translate(-84.137 -699.081)"/><path class="b" d="M83.819,695.686a.259.259,0,0,1,0,.518A.259.259,0,0,1,83.819,695.686Z" transform="translate(-79.054 -692.98)"/><path class="b" d="M104.271,718.533a.311.311,0,0,1,0,.622A.311.311,0,0,1,104.271,718.533Z" transform="translate(-90.358 -705.638)"/><path class="b" d="M108.135,725.634l.092-.163a.285.285,0,1,1,.39.39l-.163.092A.235.235,0,0,1,108.135,725.634Z" transform="translate(-92.648 -709.405)"/><path class="b" d="M106.47,736.7a.905.905,0,0,1,.23.2.471.471,0,0,1,.127.308.435.435,0,0,1-.743.308.9.9,0,0,1-.2-.23A.428.428,0,0,1,106.47,736.7Z" transform="translate(-91.387 -715.672)"/><path class="b" d="M103.025,738.412a.327.327,0,0,1,.31.407l-.025.13a.3.3,0,0,1-.57,0l-.025-.13A.327.327,0,0,1,103.025,738.412Z" transform="translate(-89.659 -716.652)"/><path class="b" d="M108.6,748.663a.529.529,0,0,1,0,1.057A.529.529,0,0,1,108.6,748.663Z" transform="translate(-92.641 -722.332)"/><path class="b" d="M121.1,762.022a.306.306,0,1,1,.612,0,.367.367,0,0,1-.1.342.3.3,0,0,1-.41,0A.367.367,0,0,1,121.1,762.022Z" transform="translate(-99.845 -729.563)"/><path class="b" d="M124.286,771.142a.472.472,0,0,1,0,.943A.472.472,0,0,1,124.286,771.142Z" transform="translate(-101.361 -734.786)"/><path class="b" d="M119.873,780.358a.321.321,0,0,1,0,.643A.321.321,0,0,1,119.873,780.358Z" transform="translate(-98.997 -739.892)"/><path class="b" d="M116.585,771.708a.5.5,0,0,1,.492.492c0,.045,0,.091,0,.136a.487.487,0,1,1-.974,0l-.005-.136A.5.5,0,0,1,116.585,771.708Z" transform="translate(-97.074 -735.099)"/><path class="b" d="M118.111,754.473a.259.259,0,0,1,0,.518A.259.259,0,0,1,118.111,754.473Z" transform="translate(-98.054 -725.551)"/><path class="b" d="M129.365,791.993a.321.321,0,0,1,0,.643A.321.321,0,0,1,129.365,791.993Z" transform="translate(-104.255 -746.338)"/><path class="b" d="M133.165,801.76a.472.472,0,0,1,0,.943A.472.472,0,0,1,133.165,801.76Z" transform="translate(-106.28 -751.749)"/><path class="b" d="M128.379,813.341a.632.632,0,0,1,0,1.264A.632.632,0,0,1,128.379,813.341Z" transform="translate(-103.543 -758.166)"/><path class="b" d="M125.278,805.968a.654.654,0,0,1,.643.643v.137a.643.643,0,0,1-1.285,0v-.137A.65.65,0,0,1,125.278,805.968Z" transform="translate(-101.807 -754.081)"/><path class="a" d="M91.121,744.761a.943.943,0,0,1,.14.163c.048.068-.048.164-.115.115a.925.925,0,0,1-.163-.14A.1.1,0,0,1,91.121,744.761Z" transform="translate(-83.147 -720.154)"/><path class="a" d="M79.878,736.8c.04-.036.082-.07.123-.1a.151.151,0,0,1,.214.213c-.035.042-.069.083-.1.123C79.969,737.193,79.721,736.945,79.878,736.8Z" transform="translate(-76.982 -715.68)"/><path class="a" d="M79.32,744.223a.1.1,0,0,1,.191,0l0,.137a.1.1,0,0,1-.2,0C79.319,744.313,79.319,744.268,79.32,744.223Z" transform="translate(-76.699 -719.82)"/><path class="a" d="M94,755.122a.285.285,0,0,1,.4,0l.136.137a.28.28,0,1,1-.4.4L94,755.518A.285.285,0,0,1,94,755.122Z" transform="translate(-84.788 -725.866)"/><path class="a" d="M78.672,751.825a.211.211,0,0,1,0,.422A.211.211,0,0,1,78.672,751.825Z" transform="translate(-76.228 -724.083)"/><path class="a" d="M85.235,742.582a.1.1,0,0,1,0,.2A.1.1,0,0,1,85.235,742.582Z" transform="translate(-79.924 -718.962)"/><path class="a" d="M83.269,719.686a.207.207,0,0,1,0,.413A.207.207,0,0,1,83.269,719.686Z" transform="translate(-78.778 -706.277)"/><path class="a" d="M74.484,703.633a.129.129,0,0,1,0,.257A.129.129,0,0,1,74.484,703.633Z" transform="translate(-73.952 -697.383)"/><path class="a" d="M98.9,778.3a.893.893,0,0,1,.127-.109c.219-.161.539.159.379.379a.934.934,0,0,1-.109.126A.28.28,0,0,1,98.9,778.3Z" transform="translate(-87.502 -738.668)"/><path class="a" d="M90.887,771.612l.093-.034a.28.28,0,1,1,0,.54l-.093-.034A.247.247,0,0,1,90.887,771.612Z" transform="translate(-83.013 -735.019)"/><path class="a" d="M87.862,778.166a.207.207,0,0,1,0,.413A.207.207,0,0,1,87.862,778.166Z" transform="translate(-81.323 -738.677)"/><path class="a" d="M95.957,781.272a.217.217,0,0,1,.305,0,.8.8,0,0,1,.149.243.172.172,0,0,1-.211.21.793.793,0,0,1-.243-.149A.217.217,0,0,1,95.957,781.272Z" transform="translate(-85.884 -740.363)"/><path class="a" d="M106.829,813.653a.22.22,0,0,1,0,.44A.22.22,0,0,1,106.829,813.653Z" transform="translate(-91.824 -758.339)"/><path class="a" d="M99.63,807.542a.351.351,0,0,1,0,.7A.351.351,0,0,1,99.63,807.542Z" transform="translate(-87.765 -754.953)"/></g></svg>