<svg xmlns="http://www.w3.org/2000/svg" xmlns:xlink="http://www.w3.org/1999/xlink" width="180.073" height="148.06" viewBox="0 0 180.073 148.06"><defs><style>.a,.g{fill:none;}.b{clip-path:url(#a);}.c,.j{fill:#fff;}.c,.d,.e,.g,.h{stroke:#002e4e;stroke-miterlimit:10;}.d,.f{fill:#a0d2db;}.e{fill:#c490d1;}.h{fill:#b1ea8c;}.i{fill:#002e4e;}</style><clipPath id="a"><rect class="a" width="180.073" height="148.06" transform="translate(1248.299 678.401)"/></clipPath></defs><g class="b" transform="translate(-1248.299 -678.401)"><rect class="c" width="180.073" height="148.06" transform="translate(1248.299 678.401)"/><path class="d" d="M1267.621,732.33a17.674,17.674,0,0,1,4.373-14.753c1.264-1.369,2.722-2.231,3.509-3.987a11.4,11.4,0,0,0,.63-2.567c1.036-5.461,4.509-9.6,9.1-12.5,5.014-3.17,10.016-3.235,15.754-4.2,1.684-.282,3.318-.816,5-1.089a18.053,18.053,0,0,1,4.837-.106,24.748,24.748,0,0,1,12.717,5.764,24.324,24.324,0,0,1,5.681,7.277c1.257,2.156,1.845,4.63,3.078,6.8,1.411,2.478,3.1,2.4,5.476,3.551a15.232,15.232,0,0,1,8.351,10.948c1.915,11.609-9.983,19.96-20.559,17.6-7.987-1.778-19.943-1.726-26.129,4.5-2.547,2.562-4.693,5.575-7.666,7.629q-.453.314-.928.592a19.051,19.051,0,0,1-18.159.488c-7.477-4.131-6.891-12.775-4.494-19.89a5.826,5.826,0,0,0,.449-2.037,6.224,6.224,0,0,0-.44-1.74A15.438,15.438,0,0,1,1267.621,732.33Z"/><path class="e" d="M1286.905,839.265c-9.7-1.142-19.567-2.613-29.175-.849.76-15.2,2.88-30.536,8.821-44.543s16.038-26.67,29.682-33.4c17.075-8.429,37.8-8.435,55.794-3.1,17.655,5.235,34.193,18.743,46.764,31.862a131.869,131.869,0,0,1,17.485,22.738,27.088,27.088,0,0,1,3.044,6.295,15.262,15.262,0,0,1-1.726,12.311c-7.562,11.932-25.437,8.2-37.024,9.389q-15.559,1.6-31.211,2.049A428.115,428.115,0,0,1,1286.905,839.265Z"/><path class="c" d="M1303.739,777.559c2.971,5.835,9.3,8.739,16.341,7.788l.159-.022a13.319,13.319,0,0,0,10.959-15.808q-1.179-6.062-2.36-12.121a11.123,11.123,0,0,1-.218-4.845,18.025,18.025,0,0,1,2.012-3.977c5.278-9.679-.723-20.668-5.66-29.055a23.524,23.524,0,0,0-19.184-11.707c-17.256-.712-25.751,14.955-22.4,30.289,1.909,8.724,7.161,14.977,13.844,20.534S1304.283,769.244,1303.739,777.559Z"/><path class="f" d="M1287.564,722.968a11.233,11.233,0,0,0-.166,4.039c.205,3.22.008,6.6-1.556,9.417a15.435,15.435,0,0,1-2.975,3.654,9.547,9.547,0,0,1-3.358,2.246,4.166,4.166,0,0,1-3.876-.473,4.524,4.524,0,0,1-1.443-3.842,20.978,20.978,0,0,1,.94-4.155c.673-2.518.939-5.133,1.645-7.643a11.608,11.608,0,0,1,4.061-6.5,6.426,6.426,0,0,1,5.511-.973c.668.219,2.079.826,2.319,1.57C1289,721.341,1287.889,721.913,1287.564,722.968Z"/><path class="c" d="M1289.416,783.574c1.343-5.235,2.544-10.954,1.378-15.7-1.241-5.053-5.381-9.452-7.522-14.183-1.937-4.278-2.954-9.278-1.259-13.658a2.571,2.571,0,0,1,.428-.787c.773-.883,2.325-.47,3.048.455a9.128,9.128,0,0,1,1.217,3.277c.9,3.193,3.086,5.844,5.213,8.393,4.873,5.841,11.085,9.686,12.3,17.717.786,5.186.3,10.571.813,15.806.6,6.118,1.589,12.192,2.157,18.314.593,6.392,2.455,25.706-5.035,28.841-4.717,1.973-16.278.39-19.929-3.393a11.977,11.977,0,0,1-2.93-8.733,33.569,33.569,0,0,1,2.032-9.208c2.315-7.1,4.842-14.142,6.6-21.406C1288.363,787.523,1288.9,785.584,1289.416,783.574Z"/><path class="f" d="M1292.212,721.75a24.079,24.079,0,0,0,4.959-1.918,2.741,2.741,0,0,1,1.217-.417,2.565,2.565,0,0,1,1.078.325c2.5,1.187,5.038,2.5,7.8,2.682s5.845-1.112,6.779-3.716c.13-.363.289-.81.67-.868a.98.98,0,0,1,.728.328c3.132,2.671,6.335,7.246,11.1,5.118,2.533-1.13,3.843-4.059,3.973-6.83.289-6.137-4.239-11.759-9.828-14.31s-12.012-2.546-18.106-1.758a39.9,39.9,0,0,0-12.477,3.4c-4.219,2.079-5.764,5.349-8.076,9.308-1.086,1.859-1.788,4.179-.918,6.148,1.282,2.906,5.164,3.511,8.31,3.069A24.1,24.1,0,0,0,1292.212,721.75Z"/><path class="g" d="M1282.867,740.078a15.435,15.435,0,0,0,2.975-3.654c1.564-2.821,1.761-6.2,1.556-9.417a11.257,11.257,0,0,1,.166-4.039,2.469,2.469,0,0,1,.246-.53,13.459,13.459,0,0,0,1.61-.124,24.092,24.092,0,0,0,7.751-2.482,2.741,2.741,0,0,1,1.217-.417,2.565,2.565,0,0,1,1.078.325c2.5,1.187,5.038,2.5,7.8,2.682s5.845-1.112,6.779-3.716c.13-.363.289-.81.67-.868a.98.98,0,0,1,.728.328c3.132,2.671,6.335,7.246,11.1,5.118"/><path class="h" d="M1373.23,810.872a.841.841,0,0,0-.982-.7c-3.1-3.186-6.373-6.753-10.133-9.021-.329-.2-.823.224-.563.563a53.011,53.011,0,0,0,4.892,5.018q2.736,2.724,5.416,5.5c.472.491,1.565.155,1.467-.608C1373.3,811.379,1373.262,811.125,1373.23,810.872Z"/><path class="c" d="M1384.349,808.248c-11.326,1.979-22.833,6.042-32.932,9.765a39.879,39.879,0,0,1-7.879,2.362,54.476,54.476,0,0,1-8.778.1c-7.8-.12-16.1,1.735-21.546,7.318-1.924,1.971-2.453,6.9.689,8.161,3.277,1.315,8.136-.969,11.731-.541a46.081,46.081,0,0,0,10.921.1q16.74-1.769,33.6-1.866c13.067-.074,26.223.6,39.131-1.432a18.533,18.533,0,0,0,7.027-2.2c5.3-3.308,6.705-11.527,2.5-16.047-4.689-5.043-13.57-6.773-20.1-6.926A73.823,73.823,0,0,0,1384.349,808.248Z"/><path class="i" d="M1296.3,733.5a1.36,1.36,0,0,0-1.367.37h0c-.02.023-.046.035-.065.06a.8.8,0,0,0,.176,1.214.921.921,0,0,0,.645.33,1.125,1.125,0,0,0,1.166-1.248A.784.784,0,0,0,1296.3,733.5Z"/><path class="i" d="M1318.1,730.257a1.174,1.174,0,0,0-.651-.467.414.414,0,0,0-.676-.086c-.489.5-.6.634-.458,1.345a.683.683,0,0,0,.483.483,1.138,1.138,0,0,0,1.3-.531A.718.718,0,0,0,1318.1,730.257Z"/><path class="i" d="M1310.44,736.468c-.387-1.458-1.418-2.969-1.608-4.445a.4.4,0,0,0-.792,0,11.431,11.431,0,0,0,.747,3.681c.374,1.422.379,2.93.821,4.318.174.545,1.12.662,1.226,0A8.575,8.575,0,0,0,1310.44,736.468Z"/><path class="i" d="M1319.809,728.568c-1.55-1.389-5-1.2-6.325.449a.393.393,0,0,0,.473.614,8.215,8.215,0,0,1,2.7-1.05,7.745,7.745,0,0,1,2.859.484A.3.3,0,0,0,1319.809,728.568Z"/><path class="i" d="M1296,731.156a5.477,5.477,0,0,0-3.98,1.279.5.5,0,0,0,.482.827c1.615-.428,4.108-1.9,5.716-.566a.3.3,0,0,0,.505-.294C1298.428,731.292,1296.975,731.173,1296,731.156Z"/><path class="i" d="M1309.626,748.556a1.562,1.562,0,0,1,.232-1.124,14.919,14.919,0,0,1,.953-1.608,4.521,4.521,0,0,1,1.987-1.812,1.94,1.94,0,0,1,2.39.721,2.565,2.565,0,0,1-.418,2.434C1314.122,748.2,1310.365,750.988,1309.626,748.556Z"/><path class="j" d="M1326.1,717.355a11.332,11.332,0,0,1-5.629-1.656c-1.079-.769-3.851-3.195-3.633-4.648.064-.429-.523-.776-.762-.321-.968,1.839,1.422,4.316,2.639,5.538,2.008,2.014,4.659,2.571,7.385,2.925C1327.254,719.343,1327.3,717.448,1326.1,717.355Z"/><path class="j" d="M1305.383,715.732a10.362,10.362,0,0,1-3.631-1.264c-.965-.659-3.436-2.545-2.411-3.84.267-.338-.175-.817-.486-.487-1.379,1.46.148,3.282,1.243,4.393,1.309,1.328,3.474,2.84,5.386,1.969A.426.426,0,0,0,1305.383,715.732Z"/><path class="j" d="M1291.294,716.5a17.083,17.083,0,0,0-2.962-.321c-.665-.122-3.74-.924-2.935-2.078.276-.4-.353-.884-.671-.518-2.286,2.629,4.83,5.006,6.663,3.641A.4.4,0,0,0,1291.294,716.5Z"/></g></svg>