<svg xmlns="http://www.w3.org/2000/svg" width="285.711" height="130.964" viewBox="0 0 285.711 130.964"><defs><style>.a{fill:#002e4e;}</style></defs><g transform="translate(-773.931 -892.16)"><path class="a" d="M825.942,1003.106c-.647-4.484-1.179-16.131-6.65-17.818-12.753-3.934-4.732,26.953-3.6,30.95a2.814,2.814,0,0,0,1.326,1.743,8.9,8.9,0,0,0,5.089,5.01,3,3,0,0,0,2.943-.778,5.941,5.941,0,0,0,.883-1.12,2.6,2.6,0,0,0,1.012-2.24c0-.052-.011-.1-.015-.156C828.153,1013.919,826.508,1007.027,825.942,1003.106Z"/><path class="a" d="M797.095,974.717c-4.282.235-8.757,5.326-11.59,8.1a77.715,77.715,0,0,0-11.087,13.826,2.733,2.733,0,0,0,1.06,4c1.052,3.211,4.885,3.712,7.993,2.952,4.952-1.211,9.1-4.519,12.231-8.438,2.817-3.531,6.293-8.192,6.984-12.767C803.228,978.8,801.293,974.486,797.095,974.717Z"/><path class="a" d="M833.74,951.283c-7.415.478-21.251.565-25.505,7.988-1.719,3-.832,6.118,1.956,8.07,4.021,2.816,9.26,1.633,13.61.424A2.861,2.861,0,0,0,825.4,966.7a36.114,36.114,0,0,0,9.661-3.716c2.874-1.623,6.641-3.952,6.224-7.73C840.84,951.254,836.905,951.079,833.74,951.283Z"/><path class="a" d="M838.249,925.573c-2.38-6.467-7.689-11.8-13.188-15.706a2.584,2.584,0,0,0-3.976,1.083,6.019,6.019,0,0,0-6.153,1.907c-3.921,4.266-1.859,12.124.851,16.48,2.952,4.748,10.7,10.085,16.53,9.268C838.6,937.725,840.143,930.719,838.249,925.573Z"/><path class="a" d="M787.122,950.966a2.868,2.868,0,0,0-1.841.047c-2.6-.366-5.177,1.1-5.217,4.36-.046,3.733,2.747,7.643,5.416,10.028a19.412,19.412,0,0,0,11.183,4.835,3.044,3.044,0,0,0,3.025-3.024A17.333,17.333,0,0,0,787.122,950.966Z"/><path class="a" d="M871.5,944.813c-1.236-1.912-1.856-4.259-3.889-5.514-2.4-1.483-5.06-.909-7.245.71-4.421,3.275-6.914,9.644-7.651,14.905-.6,4.314-.8,11.489,4.579,12.8,3.931.958,6.4-1.914,8.076-5.184a20.914,20.914,0,0,0,3.262-5.733,27.854,27.854,0,0,0,1.9-8.043A2.7,2.7,0,0,0,871.5,944.813Z"/><path class="a" d="M980.139,930.448c-4.034-4.824-10.6,1-13.912,3.748a55.743,55.743,0,0,0-7.5,7.534c-1.476,1.8-4.209,4.314-3.881,6.849a4.947,4.947,0,0,0,.17.739,9.923,9.923,0,0,0-.344,1.807,3.051,3.051,0,0,0,3.025,3.024c6.174-.027,12.065-5.4,16.281-9.486C977.078,941.657,984.124,935.213,980.139,930.448Z"/><path class="a" d="M955.9,905.369c-3.924-3.2-9.541-5.908-14.737-5.141-6.066.894-7.672,5.958-5.323,11.146a19.3,19.3,0,0,0,1.711,2.956c.045.124.09.257.137.37a17.823,17.823,0,0,0,12.063,10.573c4.114,1.033,13.716,1.04,14.628-4.6C965.269,915.2,959.751,908.5,955.9,905.369Z"/><path class="a" d="M1010.968,898.479c-2.358-5.859-10.346-6.741-15.62-6.172-4.577.493-13.233,1.182-16.544,5.365-2.466,2.057-4.315,5.005-2.281,7.962,2.555,3.713,10.244,3.863,14.224,3.97a23.626,23.626,0,0,0,11.833-2.5C1006.946,906.093,1012.973,903.459,1010.968,898.479Z"/><path class="a" d="M1013.322,924.529c-4.2-4.677-12.383-5.483-15.408.935-1.8,3.817-.824,8.115,1.056,12.175,1.008,3.458,2.7,6.743,5.052,8.523.3.448.6.886.874,1.3a3.179,3.179,0,0,0,5.123.147c3.488-.353,7-2.357,8.412-5.317C1020.868,937.183,1016.764,928.362,1013.322,924.529Z"/><path class="a" d="M1055.475,910.061a2.369,2.369,0,0,0-2.161-2.829c-7.339-1.02-15.347-2.2-22.356.948-3.58,1.608-8.161,5.932-5.873,10.344,2.751,5.308,13.107,5.819,18.179,5.967,5.392.156,12.7-1.191,15.537-6.429C1060.829,914.32,1058.981,911.716,1055.475,910.061Z"/></g></svg>