<svg xmlns="http://www.w3.org/2000/svg" width="30.03" height="92.007" viewBox="0 0 30.03 92.007"><defs><style>.a{fill:#cbe0f4;}.b{fill:#8fa6d1;}</style></defs><g transform="translate(0 0)"><path class="a" d="M135.087,647.245a26.341,26.341,0,0,1,3.873,3.61q1.74,1.764,3.4,3.6,2.418,2.673,4.649,5.5-1.118-5.417-2.435-10.791c-1.639-6.7-3.417-13.419-5.56-19.976-.122-.374.445-.6.571-.226a285.748,285.748,0,0,1,8.753,31.634c.75-6.91,3.036-13.652,2.687-20.658-.019-.375.55-.45.585-.069.723,7.844-2.029,15.386-2.426,23.164a.427.427,0,0,1-.269.381c.02.1.04.195.059.292q2.03,10.33,3.278,20.789a190.426,190.426,0,0,0,6.829-25.663.17.17,0,0,1,.337.051,118.586,118.586,0,0,1-6.9,27.89q.732,6.6,1.149,13.227.169,2.711.308,5.436a95.966,95.966,0,0,0,9.313-22.167c.065-.223.419-.184.367.056a79.744,79.744,0,0,1-9.6,23.877c.189,4.362.268,8.736.1,13.081-.026.668-1.171.654-1.185-.02-.091-4.3-.114-8.6-.239-12.895-2.237-2.829-4.359-5.756-6.494-8.66q-1.66-2.26-3.293-4.54a34.492,34.492,0,0,1-2.927-4.309c-.24-.473.439-.73.742-.411a41.839,41.839,0,0,1,3.341,4.5q1.565,2.171,3.146,4.331c1.787,2.446,3.625,4.856,5.424,7.294-.04-1.082-.085-2.165-.144-3.247q-.425-7.787-1.281-15.541a113.6,113.6,0,0,0-15.074-15.529.521.521,0,0,1,.655-.81,93.621,93.621,0,0,1,14.2,14.4c-.016-.133-.03-.267-.046-.4q-1.306-11.165-3.5-22.194c-1.844-2.407-3.773-4.747-5.805-7q-1.812-2.007-3.721-3.923a41.6,41.6,0,0,1-3.492-3.495C134.137,647.429,134.695,646.984,135.087,647.245Z" transform="translate(-134.363 -628.773)"/><path class="b" d="M165.107,644.094a.666.666,0,0,1,.552.75l-.033.14a.646.646,0,0,1-1.278-.194c0-.048.007-.1.01-.143A.661.661,0,0,1,165.107,644.094Z" transform="translate(-150.975 -637.256)"/><path class="b" d="M164.193,655.787a.369.369,0,0,1-.111.729A.369.369,0,0,1,164.193,655.787Z" transform="translate(-150.662 -643.737)"/><path class="b" d="M153.845,638.669a.362.362,0,0,1-.109.715A.362.362,0,0,1,153.845,638.669Z" transform="translate(-144.933 -634.253)"/><path class="b" d="M177.245,674.493a.434.434,0,0,1-.131.858A.434.434,0,0,1,177.245,674.493Z" transform="translate(-157.852 -654.1)"/><path class="b" d="M181.059,685.118l.161-.205a.4.4,0,1,1,.456.62l-.244.092A.328.328,0,0,1,181.059,685.118Z" transform="translate(-160.196 -659.796)"/><path class="b" d="M176.43,700.054a1.258,1.258,0,0,1,.276.318.656.656,0,0,1,.111.451.608.608,0,0,1-1.09.268,1.255,1.255,0,0,1-.222-.358A.6.6,0,0,1,176.43,700.054Z" transform="translate(-157.132 -668.192)"/><path class="b" d="M171.346,701.657a.457.457,0,0,1,.342.626l-.062.173a.415.415,0,0,1-.786-.12l-.007-.184A.456.456,0,0,1,171.346,701.657Z" transform="translate(-154.569 -669.151)"/><path class="b" d="M176.831,717.015a.738.738,0,0,1-.222,1.458A.738.738,0,0,1,176.831,717.015Z" transform="translate(-157.435 -677.657)"/><path class="b" d="M191.3,738.017a.427.427,0,1,1,.843.128.512.512,0,0,1-.21.45.414.414,0,0,1-.566-.086A.512.512,0,0,1,191.3,738.017Z" transform="translate(-165.892 -689.096)"/><path class="b" d="M193.762,751.3a.658.658,0,0,1-.2,1.3A.658.658,0,0,1,193.762,751.3Z" transform="translate(-166.865 -696.655)"/><path class="b" d="M185.782,763.057a.448.448,0,0,1-.135.886A.448.448,0,0,1,185.782,763.057Z" transform="translate(-162.574 -703.168)"/><path class="b" d="M182.993,750.475a.7.7,0,0,1,.576.783c-.012.062-.024.124-.036.187a.68.68,0,0,1-1.344-.2l.021-.19A.693.693,0,0,1,182.993,750.475Z" transform="translate(-160.858 -696.194)"/><path class="b" d="M188.8,726.964a.362.362,0,0,1-.109.715A.362.362,0,0,1,188.8,726.964Z" transform="translate(-164.302 -683.172)"/><path class="b" d="M196.432,781.1a.448.448,0,0,1-.135.886A.448.448,0,0,1,196.432,781.1Z" transform="translate(-168.474 -713.164)"/><path class="b" d="M199.58,795.4a.659.659,0,0,1-.2,1.3A.659.659,0,0,1,199.58,795.4Z" transform="translate(-170.088 -721.088)"/><path class="b" d="M190.5,810.411a.883.883,0,0,1-.265,1.744A.883.883,0,0,1,190.5,810.411Z" transform="translate(-164.919 -729.401)"/><path class="b" d="M187.734,799.6a.913.913,0,0,1,.751,1.022l-.029.188a.9.9,0,0,1-1.773-.27l.029-.188A.908.908,0,0,1,187.734,799.6Z" transform="translate(-163.345 -723.408)"/><path class="a" d="M153.659,707.864a1.29,1.29,0,0,1,.159.254.118.118,0,0,1-.183.135,1.326,1.326,0,0,1-.2-.228A.136.136,0,0,1,153.659,707.864Z" transform="translate(-144.918 -672.563)"/><path class="a" d="M139.78,694.571c.062-.041.127-.08.191-.119a.211.211,0,0,1,.25.34c-.057.049-.112.1-.17.147C139.823,695.127,139.533,694.733,139.78,694.571Z" transform="translate(-137.312 -665.141)"/><path class="a" d="M137.458,704.643a.133.133,0,0,1,.264.04l-.025.189a.137.137,0,0,1-.27-.041C137.437,704.768,137.447,704.705,137.458,704.643Z" transform="translate(-136.059 -670.747)"/><path class="a" d="M155.4,722.8a.4.4,0,0,1,.546.083l.16.217a.391.391,0,1,1-.629.463l-.16-.217A.4.4,0,0,1,155.4,722.8Z" transform="translate(-145.931 -680.828)"/><path class="a" d="M134.969,715.018a.294.294,0,0,1-.088.582A.294.294,0,0,1,134.969,715.018Z" transform="translate(-134.517 -676.554)"/><path class="a" d="M146,703.621a.14.14,0,0,1-.042.276A.14.14,0,0,1,146,703.621Z" transform="translate(-140.721 -670.24)"/><path class="a" d="M148.062,671.648a.288.288,0,0,1-.087.57A.288.288,0,0,1,148.062,671.648Z" transform="translate(-141.774 -652.525)"/><path class="a" d="M139.336,647.641a.18.18,0,0,1-.054.355A.18.18,0,0,1,139.336,647.641Z" transform="translate(-137.007 -639.225)"/><path class="a" d="M157.273,755.825a1.261,1.261,0,0,1,.2-.125c.336-.176.711.333.443.6a1.221,1.221,0,0,1-.177.152A.39.39,0,0,1,157.273,755.825Z" transform="translate(-146.97 -699.075)"/><path class="a" d="M147.646,744.915l.135-.028a.391.391,0,1,1-.113.745l-.121-.066A.345.345,0,0,1,147.646,744.915Z" transform="translate(-141.56 -693.101)"/><path class="a" d="M142.117,753.283a.288.288,0,0,1-.087.57A.288.288,0,0,1,142.117,753.283Z" transform="translate(-138.481 -697.754)"/><path class="a" d="M152.628,759.274a.3.3,0,0,1,.42.064,1.107,1.107,0,0,1,.155.367.24.24,0,0,1-.334.246,1.116,1.116,0,0,1-.3-.256A.3.3,0,0,1,152.628,759.274Z" transform="translate(-144.414 -701.044)"/><path class="a" d="M160.825,806.222a.307.307,0,0,1-.092.607A.307.307,0,0,1,160.825,806.222Z" transform="translate(-148.834 -727.084)"/><path class="a" d="M152.141,796.31a.49.49,0,0,1-.148.968A.49.49,0,0,1,152.141,796.31Z" transform="translate(-143.909 -721.591)"/></g></svg>