<svg xmlns="http://www.w3.org/2000/svg" width="27.34" height="63.66" viewBox="0 0 27.34 63.66"><defs><style>.a{fill:#cbe0f4;}.b{fill:#8fa6d1;}</style></defs><g transform="translate(0 0)"><path class="a" d="M1287.745,709.1a18.885,18.885,0,0,0-3.134,2.14q-1.423,1.062-2.8,2.185-2,1.632-3.887,3.4,1.377-3.716,2.889-7.382c1.884-4.568,3.869-9.139,6.094-13.553.127-.252-.25-.474-.38-.222a204.838,204.838,0,0,0-9.614,21.469c.214-4.977-.678-10,.324-14.926.054-.264-.341-.378-.407-.112-1.359,5.48-.222,11.12-.78,16.674a.307.307,0,0,0,.15.3c-.024.067-.049.134-.073.2q-2.553,7.1-4.565,14.376a136.473,136.473,0,0,1-2.07-18.919.122.122,0,0,0-.244,0,85.012,85.012,0,0,0,1.883,20.5q-1.23,4.6-2.24,9.248-.412,1.9-.8,3.818a68.774,68.774,0,0,1-4.208-16.71c-.022-.164-.277-.175-.267,0a57.168,57.168,0,0,0,4.225,17.953c-.6,3.07-1.132,6.161-1.482,9.257-.053.476.76.589.842.114.529-3.038,1.008-6.079,1.561-9.11,1.89-1.763,3.709-3.607,5.535-5.435q1.42-1.422,2.822-2.861a24.7,24.7,0,0,0,2.538-2.738c.221-.309-.232-.564-.481-.372a29.957,29.957,0,0,0-2.853,2.83q-1.343,1.369-2.7,2.728c-1.531,1.541-3.092,3.05-4.629,4.583.145-.763.293-1.524.452-2.285q1.141-5.471,2.583-10.873A81.41,81.41,0,0,1,1284.385,726a.373.373,0,0,0-.377-.644,67.118,67.118,0,0,0-11.615,8.673c.026-.093.05-.186.076-.279q2.13-7.77,4.877-15.347c1.566-1.507,3.186-2.956,4.868-4.333q1.5-1.227,3.059-2.378a29.871,29.871,0,0,0,2.851-2.1C1288.4,709.33,1288.051,708.955,1287.745,709.1Z" transform="translate(-1260.883 -695.549)"/><path class="b" d="M1298.651,704.2a.477.477,0,0,0-.471.472l.008.1a.463.463,0,1,0,.926,0l.009-.1A.474.474,0,0,0,1298.651,704.2Z" transform="translate(-1280.035 -700.342)"/><path class="b" d="M1298.615,712.627a.264.264,0,0,0,0,.529A.264.264,0,0,0,1298.615,712.627Z" transform="translate(-1280.135 -705.011)"/><path class="b" d="M1307.806,701.616a.259.259,0,0,0,0,.518A.259.259,0,0,0,1307.806,701.616Z" transform="translate(-1285.23 -698.91)"/><path class="b" d="M1287.23,724.463a.311.311,0,0,0,0,.622A.311.311,0,0,0,1287.23,724.463Z" transform="translate(-1273.803 -711.568)"/><path class="b" d="M1283.3,731.564l-.091-.163a.285.285,0,1,0-.39.39l.163.092A.235.235,0,0,0,1283.3,731.564Z" transform="translate(-1271.449 -715.335)"/><path class="b" d="M1284.535,742.633a.9.9,0,0,0-.23.2.472.472,0,0,0-.127.308.435.435,0,0,0,.743.308.91.91,0,0,0,.2-.23A.428.428,0,0,0,1284.535,742.633Z" transform="translate(-1272.278 -721.602)"/><path class="b" d="M1288.435,744.342a.327.327,0,0,0-.31.407l.025.13a.3.3,0,0,0,.57,0l.025-.13A.327.327,0,0,0,1288.435,744.342Z" transform="translate(-1274.461 -722.582)"/><path class="b" d="M1282.376,754.593a.529.529,0,0,0,0,1.057A.529.529,0,0,0,1282.376,754.593Z" transform="translate(-1270.997 -728.262)"/><path class="b" d="M1270.377,767.951a.306.306,0,1,0-.612,0,.367.367,0,0,0,.1.342.3.3,0,0,0,.41,0A.367.367,0,0,0,1270.377,767.951Z" transform="translate(-1264.29 -735.493)"/><path class="b" d="M1266.829,777.072a.472.472,0,0,0,0,.943A.472.472,0,0,0,1266.829,777.072Z" transform="translate(-1262.414 -740.716)"/><path class="b" d="M1271.6,786.288a.321.321,0,0,0,0,.643A.321.321,0,0,0,1271.6,786.288Z" transform="translate(-1265.139 -745.822)"/><path class="b" d="M1274.438,777.638a.5.5,0,0,0-.492.492c0,.045,0,.091.005.137a.487.487,0,0,0,.974,0l.005-.137A.5.5,0,0,0,1274.438,777.638Z" transform="translate(-1266.609 -741.029)"/><path class="b" d="M1273.514,760.4a.259.259,0,0,0,0,.518A.259.259,0,0,0,1273.514,760.4Z" transform="translate(-1266.231 -731.48)"/><path class="b" d="M1262.11,797.923a.322.322,0,0,0,0,.643A.322.322,0,0,0,1262.11,797.923Z" transform="translate(-1259.88 -752.268)"/><path class="b" d="M1257.95,807.69a.472.472,0,0,0,0,.943A.472.472,0,0,0,1257.95,807.69Z" transform="translate(-1257.495 -757.679)"/><path class="b" d="M1262.35,819.271a.633.633,0,0,0,0,1.264A.633.633,0,0,0,1262.35,819.271Z" transform="translate(-1259.846 -764.096)"/><path class="b" d="M1265.373,811.9a.654.654,0,0,0-.642.643v.136a.643.643,0,1,0,1.285,0v-.136A.65.65,0,0,0,1265.373,811.9Z" transform="translate(-1261.503 -760.01)"/><path class="a" d="M1300.729,750.691a.932.932,0,0,0-.141.163c-.048.068.048.164.116.116a.94.94,0,0,0,.163-.14A.1.1,0,0,0,1300.729,750.691Z" transform="translate(-1281.363 -726.084)"/><path class="a" d="M1311.837,742.733c-.04-.036-.081-.07-.123-.1a.151.151,0,0,0-.214.213c.035.041.069.083.1.123C1311.747,743.123,1311.995,742.875,1311.837,742.733Z" transform="translate(-1287.393 -721.61)"/><path class="a" d="M1312.684,750.153a.1.1,0,0,0-.191,0c0,.045,0,.091,0,.136a.1.1,0,0,0,.2,0Z" transform="translate(-1287.965 -725.75)"/><path class="a" d="M1297.39,761.052a.284.284,0,0,0-.4,0l-.136.136a.28.28,0,0,0,.4.4l.136-.137A.285.285,0,0,0,1297.39,761.052Z" transform="translate(-1279.258 -731.796)"/><path class="a" d="M1313.069,757.755a.211.211,0,0,0,0,.422A.211.211,0,0,0,1313.069,757.755Z" transform="translate(-1288.172 -730.013)"/><path class="a" d="M1306.773,748.512a.1.1,0,0,0,0,.2A.1.1,0,0,0,1306.773,748.512Z" transform="translate(-1284.743 -724.893)"/><path class="a" d="M1308.482,725.616a.207.207,0,0,0,0,.413A.207.207,0,0,0,1308.482,725.616Z" transform="translate(-1285.633 -712.207)"/><path class="a" d="M1317.454,709.563a.129.129,0,0,0,0,.257A.129.129,0,0,0,1317.454,709.563Z" transform="translate(-1290.645 -703.313)"/><path class="a" d="M1292.57,784.232a.878.878,0,0,0-.127-.109c-.219-.161-.539.159-.379.379a.924.924,0,0,0,.109.126A.28.28,0,0,0,1292.57,784.232Z" transform="translate(-1276.624 -744.598)"/><path class="a" d="M1300.588,777.541l-.093-.034a.28.28,0,1,0,0,.54l.093-.034A.247.247,0,0,0,1300.588,777.541Z" transform="translate(-1281.122 -740.949)"/><path class="a" d="M1303.889,784.1a.207.207,0,0,0,0,.413A.207.207,0,0,0,1303.889,784.1Z" transform="translate(-1283.089 -744.607)"/><path class="a" d="M1295.638,787.2a.217.217,0,0,0-.305,0,.8.8,0,0,0-.149.243.172.172,0,0,0,.21.21.8.8,0,0,0,.244-.149A.218.218,0,0,0,1295.638,787.2Z" transform="translate(-1278.372 -746.293)"/><path class="a" d="M1284.89,819.583a.22.22,0,0,0,0,.44A.22.22,0,0,0,1284.89,819.583Z" transform="translate(-1272.555 -764.269)"/><path class="a" d="M1291.775,813.472a.351.351,0,0,0,0,.7A.351.351,0,0,0,1291.775,813.472Z" transform="translate(-1276.299 -760.883)"/></g></svg>