<svg xmlns="http://www.w3.org/2000/svg" width="227.665" height="62.104" viewBox="0 0 227.665 62.104"><defs><style>.a{fill:#12739e;}.b{fill:#fff;}.c{fill:#454c4c;}</style></defs><g transform="translate(-6.413 -8.5)"><path class="a" d="M69.038,9.488A3.343,3.343,0,0,0,66.656,8.5H27.743a3.346,3.346,0,0,0-2.382.988L7.4,27.44a3.375,3.375,0,0,0,0,4.764L44.812,69.619a3.372,3.372,0,0,0,4.764,0L86.99,32.2a3.367,3.367,0,0,0,0-4.764Z"/><path class="b" d="M175.622,59.825c0,3.682,0,7.37.015,11.043,0,.8-.295.79-1.365.79h-5.731c-1,0-1.324.062-1.321-.669.015-6.341,0-12.676.029-19.026a1.71,1.71,0,0,1,.424-1.044q1.209-1.344,2.532-2.579a1.492,1.492,0,0,1,.964-.413c1.217-.047,2.441,0,3.658-.029.616-.018.808.206.8.814C175.613,52.42,175.622,56.122,175.622,59.825Z" transform="translate(-113.403 -27.783)"/><path class="b" d="M113.653,53.611a.274.274,0,0,1,.457.189c0,.109,0,.2,0,.295,0,2.815.018,5.633-.018,8.449a1.9,1.9,0,0,1-.448,1.1c-1.33,1.394-2.721,2.73-4.065,4.109-.377.389-.625.416-1.023,0C103.8,62.982,99,58.2,94.238,53.4a1.8,1.8,0,0,1-.469-1.1c-.059-1.179,0-2.394-.029-3.591a.766.766,0,0,1,.787-.778q1.8.041,3.6,0a1.571,1.571,0,0,1,1.229.522q4.525,4.555,9.077,9.085c.849.849.59.56,2.149-.822a30.783,30.783,0,0,0,2.653-2.7A4.341,4.341,0,0,1,113.653,53.611Z" transform="translate(-61.584 -27.804)"/><path class="b" d="M93.749,73.91c.035-.215.295-.855.451-.71a2.092,2.092,0,0,1,.295.295c2.382,2.358,4.773,4.7,7.125,7.075a3.878,3.878,0,0,1,.489,1.692c.044,2.173,0,4.348.032,6.521,0,.59-.195.752-.766.746q-3.464-.044-6.922,0c-.59,0-.766-.215-.764-.778V74.243A1.975,1.975,0,0,1,93.749,73.91Z" transform="translate(-61.549 -45.612)"/><path class="c" d="M388.591,8.538h.884a.557.557,0,0,1,.59.59V37.2a.557.557,0,0,1-.59.59h-2.7a.557.557,0,0,1-.59-.59V17.278L375.278,33.07a.448.448,0,0,1-.814,0L363.557,17.278V37.2a.557.557,0,0,1-.59.59h-2.7a.557.557,0,0,1-.59-.59V9.127a.557.557,0,0,1,.59-.59h.884a.884.884,0,0,1,.713.4l13,18.15,13.009-18.15A.852.852,0,0,1,388.591,8.538Z" transform="translate(-249.124 -0.026)"/><path class="c" d="M511.742,37.773H508.5a.657.657,0,0,1-.672-.436l-3.137-7.252H491.166L487.8,37.337a.693.693,0,0,1-.672.436h-2.88c-.424,0-.672-.259-.472-.7l13.31-28.123a.687.687,0,0,1,.675-.436h.943a.7.7,0,0,1,.672.436l12.8,28.117C512.367,37.514,512.167,37.773,511.742,37.773Zm-8.41-10.8L498.155,15,492.61,26.969Z" transform="translate(-336.594 -0.012)"/><path class="c" d="M606.169,10.725v27.6a.59.59,0,0,1-.59.59h-2.7a.59.59,0,0,1-.59-.59v-27.6a.59.59,0,0,1,.59-.59h2.7A.59.59,0,0,1,606.169,10.725Zm18.59,28.188h-3.482a.884.884,0,0,1-.731-.318L607.561,24.288,620.44,10.453a.864.864,0,0,1,.731-.318h3.21c.5,0,.7.295.342.708L612.41,24.108l12.676,14.106C625.431,38.559,625.266,38.913,624.759,38.913Z" transform="translate(-420.217 -1.152)"/><path class="c" d="M725.813,36.2v2.123a.557.557,0,0,1-.59.59H704.5a.59.59,0,0,1-.59-.59v-27.6a.59.59,0,0,1,.59-.59h20.252a.557.557,0,0,1,.59.59V12.85a.557.557,0,0,1-.59.59H707.792v9.012h15.073a.554.554,0,0,1,.59.59v2.134a.557.557,0,0,1-.59.59H707.792v9.849h17.431a.557.557,0,0,1,.59.59Z" transform="translate(-491.881 -1.154)"/><path class="c" d="M373.55,169.09c0,3.638-3.349,5.241-7.093,5.241a11.859,11.859,0,0,1-6.518-1.94.351.351,0,0,1-.177-.507l.59-1.288a.336.336,0,0,1,.513-.156,10.177,10.177,0,0,0,5.713,1.8c2.624,0,4.4-.843,4.4-2.842,0-4.885-10.76-2.155-10.76-8.6,0-2.871,2.358-5.2,6.78-5.2a10.819,10.819,0,0,1,5.9,1.639.357.357,0,0,1,.171.507l-.634,1.365c-.106.218-.262.295-.566.091a8.965,8.965,0,0,0-4.894-1.574c-3.078,0-4.325,1.474-4.325,2.974C362.669,164.951,373.55,162.519,373.55,169.09Z" transform="translate(-249.15 -103.736)"/><path class="c" d="M440.057,169.588a7.92,7.92,0,0,1-7.62,4.743,9.366,9.366,0,0,1,0-18.731,7.92,7.92,0,0,1,7.62,4.743.348.348,0,0,1-.18.513l-1.312.634a.366.366,0,0,1-.522-.2,5.954,5.954,0,0,0-5.6-3.6c-3.894,0-6.7,2.969-6.7,7.278s2.809,7.278,6.7,7.278a5.943,5.943,0,0,0,5.6-3.6.366.366,0,0,1,.522-.2l1.312.634a.348.348,0,0,1,.18.513Z" transform="translate(-293.893 -103.736)"/><path class="c" d="M516.889,156.881v17.461a.377.377,0,0,1-.371.374h-1.71a.377.377,0,0,1-.371-.374v-7.959H503.126v7.959a.38.38,0,0,1-.374.374h-1.707a.38.38,0,0,1-.374-.374V156.881a.38.38,0,0,1,.374-.371h1.707a.38.38,0,0,1,.374.371V164.3h11.326v-7.414a.377.377,0,0,1,.371-.371h1.71A.377.377,0,0,1,516.889,156.881Z" transform="translate(-348.554 -104.378)"/><path class="c" d="M594.721,164.966a9.276,9.276,0,1,1-9.277-9.366A9.151,9.151,0,0,1,594.721,164.966Zm-2.574,0c0-4.31-2.809-7.278-6.7-7.278s-6.7,2.969-6.7,7.278,2.812,7.278,6.7,7.278S592.148,169.278,592.148,164.966Z" transform="translate(-401.797 -103.736)"/><path class="c" d="M674.161,164.966a9.276,9.276,0,1,1-9.274-9.366A9.149,9.149,0,0,1,674.161,164.966Zm-2.571,0c0-4.31-2.812-7.278-6.7-7.278s-6.7,2.969-6.7,7.278,2.809,7.278,6.7,7.278S671.591,169.278,671.591,164.966Z" transform="translate(-457.819 -103.736)"/><path class="c" d="M747.882,172.989v1.353a.351.351,0,0,1-.371.374H735.377a.377.377,0,0,1-.377-.374V156.881a.377.377,0,0,1,.371-.371h1.71a.377.377,0,0,1,.371.371v15.736h10.052a.351.351,0,0,1,.377.371Z" transform="translate(-513.805 -104.378)"/></g></svg>