<svg xmlns="http://www.w3.org/2000/svg" width="110.642" height="30.278" viewBox="0 0 110.642 30.278"><defs><style>.a{fill:#fff;stroke:#002e4e;stroke-miterlimit:10;}</style></defs><path class="a" d="M1384.349,808.248c-11.326,1.979-22.833,6.042-32.932,9.765a39.879,39.879,0,0,1-7.879,2.362,54.476,54.476,0,0,1-8.778.1c-7.8-.12-16.1,1.735-21.546,7.318-1.924,1.971-2.453,6.9.689,8.161,3.277,1.315,8.136-.969,11.731-.541a46.081,46.081,0,0,0,10.921.1q16.74-1.769,33.6-1.866c13.067-.074,26.223.6,39.131-1.432a18.533,18.533,0,0,0,7.027-2.2c5.3-3.308,6.705-11.527,2.5-16.047-4.689-5.043-13.57-6.773-20.1-6.926A73.823,73.823,0,0,0,1384.349,808.248Z" transform="translate(-1311.158 -806.525)"/></svg>