<svg xmlns="http://www.w3.org/2000/svg" width="24.129" height="26.592" viewBox="0 0 24.129 26.592"><defs><style>.a{fill:#627da4;}</style></defs><path class="a" d="M849.091,557.393c-2.082,1.32-3.954,3.073-5.895,4.595a25.923,25.923,0,0,1-2.792,1.994q-.53-11.979-.611-23.972a.468.468,0,0,0-.936,0q.018,12.248.575,24.482a7.829,7.829,0,0,1-1.2.442l-2.142-.092q-.946-12.5-2.111-24.978c-.03-.32-.527-.33-.508,0q.693,12.541,1.638,25.065a12.675,12.675,0,0,1-4.584-2.813,21.687,21.687,0,0,1-4.47-5.159.192.192,0,0,0-.332.194c2.22,3.717,5.838,8.671,10.6,8.986a6.6,6.6,0,0,0,2.073-.2l1.583.07a.5.5,0,0,0,.5-.5c-.006-.128-.011-.256-.017-.383a17.435,17.435,0,0,0,2.172-1.383,66.351,66.351,0,0,0,7.053-5.583A.488.488,0,0,0,849.091,557.393Z" transform="translate(-825.69 -539.557)"/></svg>