<svg xmlns="http://www.w3.org/2000/svg" width="19.262" height="37.87" viewBox="0 0 19.262 37.87"><defs><style>.a{fill:#8fa6d1;}</style></defs><path class="a" d="M215.9,534.081a2.826,2.826,0,0,0-.641-1.844,3.276,3.276,0,0,0-2.719-.494q-3.011.327-6.043.368a1.443,1.443,0,0,1-1.023-.253,1.459,1.459,0,0,1-.347-.84c-1.055-5.816-2.606-11.727-6.145-16.461-.559-.747-1.514-1.522-2.312-1.14l4.815,37.769a24.132,24.132,0,0,0,6.7-3.016C212.865,545.075,216.294,539.681,215.9,534.081Z" transform="translate(-196.666 -513.317)"/></svg>