<svg xmlns="http://www.w3.org/2000/svg" width="10.178" height="28.653" viewBox="0 0 10.178 28.653"><defs><style>.a{fill:#194c76;}</style></defs><path class="a" d="M1025.082,568.261a8.788,8.788,0,0,1-5.895-3.416,15.406,15.406,0,0,1-2.459-7.594c-.577-5.544-.769-11.154-1.146-16.716-.018-.272-.44-.277-.428,0,.146,3.328.284,6.656.44,9.982a71.493,71.493,0,0,0,.684,9.168,12.792,12.792,0,0,0,3.121,6.745c1.408,1.473,3.566,2.821,5.682,2.506C1025.426,568.885,1025.406,568.328,1025.082,568.261Z" transform="translate(-1015.154 -540.329)"/></svg>