<svg xmlns="http://www.w3.org/2000/svg" width="492.196" height="12.914" viewBox="0 0 492.196 12.914"><defs><style>.a{fill:#657fa4;}</style></defs><path class="a" d="M99.862,835.715c26.223,2.223,52.589-1.26,78.9-.794,23.717.421,47.527,4.044,71.057,1.045,34.582-4.408,69.319,2.16,104.168,1.2a890.916,890.916,0,0,1,91.62,2.617c16.464,1.225,32.115-1.38,48.619-.953,6.634.172,13.257.627,19.888.9a359.173,359.173,0,0,0,55.745-2.055c2.874-.33,6.635-1.812,6.122-4.659-49.182-10.378-100.308,2.412-150.415-1.561-21.63-1.716-43.564-6.537-64.773-1.954-17.537,3.789-32.97,3.7-50.858,2.32-5.109-.395-10.2-1.036-15.312-1.378-6.293-.422-12.608-.391-18.916-.36l-46.991.232c-7.692.038-14.942-1.307-22.633-1.174-5.886.1-11.782.2-17.653-.231-4.579-.339-9.129-1-13.707-1.37-30.819-2.46-59.832,9.574-89.158.993-.586.116-1.165.256-1.732.425C87.049,833.8,93.882,835.209,99.862,835.715Z" transform="translate(-83.835 -827.197)"/></svg>