<svg xmlns="http://www.w3.org/2000/svg" width="68.353" height="135.975" viewBox="0 0 68.353 135.975"><defs><style>.a{fill:#f9d0ce;}</style></defs><path class="a" d="M1196.869,668.585c-1.641-5.184,5.215-11.168,8.151-15.745a41.934,41.934,0,0,0,6.595-21.982c.091-7.3-1.657-15.041,1.5-21.624,2.247-4.687,6.638-7.952,9.657-12.185a24.253,24.253,0,0,0,4.468-14.352c-.084-5.256-1.838-10.795.323-15.587,2.876-6.378,11.413-8.5,14.662-14.7,1.462-2.79,1.66-6.087,2.973-8.951,2.462-5.372,8.265-8.237,13.642-10.688,2.265-1.033,6.563,3.052,6.1,5.5s-2.33,4.334-3.873,6.287c-2.81,3.557-4.8,7.933-4.735,12.465.038,2.883.889,5.688,1.259,8.546a25.984,25.984,0,0,1-3.354,16.389c-2.639,4.478-6.612,8.127-8.792,12.846-2.649,5.735-2.344,12.378-1.4,18.623.513,3.385,1.17,6.994-.24,10.114-1.056,2.333-3.116,4.023-4.793,5.958-9.156,10.564-6.325,27.415-14.021,39.085Z" transform="translate(-1196.619 -532.61)"/></svg>