<svg xmlns="http://www.w3.org/2000/svg" width="67.27" height="59.295" viewBox="0 0 67.27 59.295"><defs><style>.a{fill:#c490d1;stroke:#002e4e;stroke-miterlimit:10;}</style></defs><path class="a" d="M683.843,642.437a52.873,52.873,0,0,1,4.384-4.28c-2.536-1.73-4.91-4.671-3.985-7.6a6.681,6.681,0,0,1,2.91-3.367,14.656,14.656,0,0,1,11.539-1.875,22,22,0,0,1,9.176,5.565,3.414,3.414,0,0,0,1.323.9,3.288,3.288,0,0,0,1.2.033l12.5-1.2a45.552,45.552,0,0,1,9.789-.231c5.068.612,10.552,3.189,11.006,8.79.457,5.628-3.626,10.665-8.49,13.015-5.177,2.5-11.135,2.656-16.883,2.721s-11.692.128-16.939,2.478c-2.273,1.018-4.471,2.585-5.394,4.9-.55,1.379-.757,3.13-2.082,3.8-2.035,1.028-2.268,1.173-3.05,3.387-.911,2.583-1.942,5.127-3.05,7.631-1.162,2.626-4.44,7.931-7.817,5.205-2.529-2.042-2.255-10.653-2.41-13.687-.361-7.082-.144-16.585,3.721-22.816A24.52,24.52,0,0,1,683.843,642.437Z" transform="translate(-676.955 -624.305)"/></svg>