<svg xmlns="http://www.w3.org/2000/svg" width="5.944" height="4.172" viewBox="0 0 5.944 4.172"><defs><style>.a{fill:#58301a;}</style></defs><path class="a" d="M910.305,430.277a6.367,6.367,0,0,0-1.938-1.174,2.9,2.9,0,0,0-2.217.071,1.9,1.9,0,0,0-1.072,1.849.746.746,0,0,0,.175.426c.229.239.614.181.944.2a1.847,1.847,0,0,1,1.559,1.082,1.8,1.8,0,0,1,.654.046,3.12,3.12,0,0,0,1.266.3,1.208,1.208,0,0,0,.52-.25,2.2,2.2,0,0,0,.708-.942,1.266,1.266,0,0,0,.093-.671A1.7,1.7,0,0,0,910.305,430.277Z" transform="translate(-905.066 -428.918)"/></svg>