<svg xmlns="http://www.w3.org/2000/svg" width="69.856" height="120.569" viewBox="0 0 69.856 120.569"><defs><style>.a{fill:#fdc73d;}</style></defs><path class="a" d="M286.1,577.891l11.47,61.717s-3.757,5.123-3.854,18.061a152.32,152.32,0,0,0,1.418,22.52v9.751h25.686s-4.365-9.014-11.9-9.751h-4.91s11.427-36.441,10.251-43.733-2.446-40.3-2.446-40.3h6.975l10.821,37.762s-3.178,8.6-2.059,22.483,1.118,26.687,1.118,26.687v6.855h27.287S353,679.818,345.6,678.808h-4.943s7.587-39.574,5.8-49.936-10.5-59.5-10.5-59.5Z" transform="translate(-286.1 -569.371)"/></svg>