<svg xmlns="http://www.w3.org/2000/svg" width="107.016" height="86.459" viewBox="0 0 107.016 86.459"><defs><style>.a{fill:#7d8cc4;stroke:#002e4e;stroke-miterlimit:10;}</style></defs><path class="a" d="M1093.736,616.132a.419.419,0,0,1-.027.153,2.02,2.02,0,0,1-.243.6,2.125,2.125,0,0,1-.117.189l-.009.009a1.979,1.979,0,0,1-.252.306,3.082,3.082,0,0,1-.243.243,1.978,1.978,0,0,1-.207.18,5.07,5.07,0,0,1-.477.36c-.153.108-.315.207-.495.315-.216.126-.45.252-.693.369-.117.063-.234.117-.351.171s-.234.108-.36.162-.252.108-.387.162-.261.108-.4.162-.279.108-.423.162c-.279.1-.576.207-.882.306-.765.252-1.6.495-2.511.738-.342.09-.7.18-1.071.27-.387.09-.792.189-1.206.279-.279.054-.549.117-.837.18-1.431.3-2.979.585-4.635.846-.387.063-.792.126-1.2.189l-1.476.216c-.5.072-1.008.144-1.53.207-.765.1-1.557.2-2.358.3-1.071.126-2.16.243-3.276.36-.738.072-1.476.144-2.232.216-.675.063-1.359.126-2.061.18-.576.054-1.17.1-1.764.144-1.179.09-2.385.18-3.6.261-4.779.315-9.783.531-14.814.648-.747.018-1.485.036-2.232.045s-1.485.027-2.232.036c-1.485.018-2.97.027-4.446.027-24.84,0-47.888-2.484-46.925-7.8,3.06-16.929,9.171-48.51,18.386-61.443.333-.468.684-.927,1.053-1.368,5.4-6.5,14.409-10.485,21.987-12.906l.209-.066a39.07,39.07,0,0,1,25.43.662l.308.115c5.373,2.016,11.349,4.572,15.435,7.29,13.689,10.125,20.079,49.068,23.148,65.988A1.562,1.562,0,0,1,1093.736,616.132Z" transform="translate(-987.24 -539.164)"/></svg>