<svg xmlns="http://www.w3.org/2000/svg" width="14.595" height="8.209" viewBox="0 0 14.595 8.209"><defs><style>.a{fill:#fdc73d;}</style></defs><path class="a" d="M497.034,542.091a9.212,9.212,0,0,1,2.886.924,3.118,3.118,0,0,1,1.643,2.414,3.163,3.163,0,0,1-1.947,2.788,10,10,0,0,1-3.513.7,18.248,18.248,0,0,1-4.488.046,8.292,8.292,0,0,1-3.915-1.78,1.771,1.771,0,0,1-.719-1.028,1.977,1.977,0,0,1,.261-1.078c.72-1.573,1.136-4.149,3.078-4.2A27.8,27.8,0,0,1,497.034,542.091Z" transform="translate(-486.971 -540.883)"/></svg>