<svg xmlns="http://www.w3.org/2000/svg" width="15.908" height="12.289" viewBox="0 0 15.908 12.289"><defs><style>.a{fill:#420834;}</style></defs><path class="a" d="M619.817,359.667a5.8,5.8,0,0,0,10.18,1.42,4.973,4.973,0,0,1-4.135,4.533,5.455,5.455,0,0,0,4.423.1,12.7,12.7,0,0,1-8.473,3.2,7.5,7.5,0,0,1-2.106-.277,6.826,6.826,0,0,1-3.894-3.42,14.055,14.055,0,0,1-1.389-5.1,2.982,2.982,0,0,1,.107-1.516,2.377,2.377,0,0,1,.81-.928c.747-.55,2.641-1.4,3.584-.889C619.932,357.333,619.441,358.612,619.817,359.667Z" transform="translate(-614.376 -356.63)"/></svg>