<svg xmlns="http://www.w3.org/2000/svg" width="16.42" height="12.121" viewBox="0 0 16.42 12.121"><defs><style>.a{fill:#87532c;}</style></defs><path class="a" d="M1249.375,357.888a16.48,16.48,0,0,1,1.291-2.162,3.491,3.491,0,0,1,.814-.886,2.658,2.658,0,0,1,1.137-.414c2.016-.3,3.919.888,5.9,1.363a1.14,1.14,0,0,0,1.048-.291,2.12,2.12,0,0,0,.571-1.02,3.965,3.965,0,0,0,.143-1.245,3.655,3.655,0,0,1,.033-1.391,1.8,1.8,0,0,1,1.378-.824,9.265,9.265,0,0,1,.138,2.565,4.739,4.739,0,0,1-.229,1.465,2.371,2.371,0,0,1-.767,1.028.338.338,0,0,0,.479.1,2.672,2.672,0,0,0,.952-1.539c.16-.595.216-1.214.379-1.808.087-.314.258-.668.58-.717a.617.617,0,0,1,.57.285,1.528,1.528,0,0,1,.215.631,4.96,4.96,0,0,1-.224,2.628,3.421,3.421,0,0,1-1.775,1.9,1.726,1.726,0,0,0,1.665-.462,3.419,3.419,0,0,1,1.447-1.058.378.378,0,0,1,.226,0,.373.373,0,0,1,.189.269,2.08,2.08,0,0,1-.8,1.863,3.839,3.839,0,0,1-3.014,1.312c-.019,0-.146.025-.166.025a1.841,1.841,0,0,0,1.79.335,8.27,8.27,0,0,0,1.655-.834.2.2,0,0,1,.185-.033.192.192,0,0,1,.079.115,1.817,1.817,0,0,1-.276,1.7,2.448,2.448,0,0,1-.773.621,4.432,4.432,0,0,1-2.815.433,6.026,6.026,0,0,1-2.624-1.17c-.428-.323-.642.01-1.172.086-1.454.207-2.551,1.383-3.853,2.063a2.331,2.331,0,0,1-1.042.314,2.372,2.372,0,0,1-1.663-.906C1249.914,361,1248.629,359.388,1249.375,357.888Z" transform="translate(-1249.153 -351.019)"/></svg>