<svg xmlns="http://www.w3.org/2000/svg" width="360.508" height="265.764" viewBox="0 0 360.508 265.764"><defs><style>.a{fill:#fff;stroke:#002e4e;stroke-miterlimit:10;}</style></defs><path class="a" d="M1156.58,902.433a132.08,132.08,0,0,1-13.449-61.893c.305-10.406,1.844-20.854.536-31.182-2.771-21.88-18.613-40.854-38.426-50.544s-43.021-10.869-64.67-6.659c-35.1,6.825-63.251,28.764-66.562,65.823-1.9,21.249,2.184,42.693.322,63.945a85.088,85.088,0,0,1-2.813,15.43q-5.31.358-10.6.752l-80.441,5.875c-17.68,1.291-35.536,1.723-48.047,15.219a96.428,96.428,0,0,0-24.666,52.117c-1.978,14.636.229,31.223,11.321,40.974a31.306,31.306,0,0,0,2.847,2.21h269.209c18.545,0,36.761-6.081,50.95-18.022q1.289-1.085,2.538-2.225C1171.383,969.827,1171.548,932.852,1156.58,902.433Z" transform="translate(-806.6 -749.236)"/></svg>