<svg xmlns="http://www.w3.org/2000/svg" width="59.413" height="136.83" viewBox="0 0 59.413 136.83"><defs><style>.a{fill:#112e4f;}</style></defs><path class="a" d="M448.319,535.188s2.66,51.051.063,73.041-6.464,56.2-6.464,56.2,12.782,2.837,12.906,5.042h-24.2l3.254-7.653s-3.047-33.569-2.808-36.432,3.9-9.314,3.9-9.314l-7.08-63.011a2.066,2.066,0,0,0-1.386-1.725h0a2.066,2.066,0,0,0-2.722,1.747l-4.025,62.822-14.38,45.912s8.007,5.227,8.953,7.919h-18.92l3.311-8.33.362-39.725,2.216-4.078,1.915-83.7s36.936-2.831,42.71,1.049Z" transform="translate(-395.411 -532.909)"/></svg>