<svg xmlns="http://www.w3.org/2000/svg" width="36.597" height="114.721" viewBox="0 0 36.597 114.721"><defs><style>.a{fill:#3f5f83;}</style></defs><path class="a" d="M879.18,636.343a4.149,4.149,0,0,1-1.674-1.034,4.566,4.566,0,0,1-.81-1.932A252.532,252.532,0,0,0,860.651,587.9a24.923,24.923,0,0,0-5.267,4.037l.064,0,17.513,44.041a33.287,33.287,0,0,0-5.674,14.318c-1.472,9.027-10.463,48.317-10.463,48.317v4.012q8.1-27.989,18-55.414a30.755,30.755,0,0,1,3.121-6.358c3.1,1.164,6.33,2.346,9.633,2.078a9.283,9.283,0,0,0,4.4-1.544c-.136-.778-.358-1.959-.65-3.473A24.925,24.925,0,0,1,879.18,636.343Z" transform="translate(-855.384 -587.897)"/></svg>