<svg xmlns="http://www.w3.org/2000/svg" width="49.809" height="23.91" viewBox="0 0 49.809 23.91"><defs><style>.a{fill:#a0d2db;}</style></defs><path class="a" d="M1292.212,721.75a24.079,24.079,0,0,0,4.959-1.918,2.741,2.741,0,0,1,1.217-.417,2.565,2.565,0,0,1,1.078.325c2.5,1.187,5.038,2.5,7.8,2.682s5.845-1.112,6.779-3.716c.13-.363.289-.81.67-.868a.98.98,0,0,1,.728.328c3.132,2.671,6.335,7.246,11.1,5.118,2.533-1.13,3.843-4.059,3.973-6.83.289-6.137-4.239-11.759-9.828-14.31s-12.012-2.546-18.106-1.758a39.9,39.9,0,0,0-12.477,3.4c-4.219,2.079-5.764,5.349-8.076,9.308-1.086,1.859-1.788,4.179-.918,6.148,1.282,2.906,5.164,3.511,8.31,3.069A24.1,24.1,0,0,0,1292.212,721.75Z" transform="translate(-1280.719 -699.922)"/></svg>