<svg xmlns="http://www.w3.org/2000/svg" width="29.746" height="45.092" viewBox="0 0 29.746 45.092"><defs><style>.a{fill:#002e4e;fill-rule:evenodd;}</style></defs><path class="a" d="M1041.389,487.506c-4.467,2.019-5.748,4.893-6.932,9.218-.807,5.192,4.369,11.365,4.369,11.365a5.235,5.235,0,0,1,1.941,3.011,16.918,16.918,0,0,1,.412,4.744c-.2,2.619-5.507,6.823-3.029,12s5.978,2.5,6.174,1.482c0,0-3.3,2.41-5.156-1.718-1.949-4.341,3.022-8.485,3.523-11.49.339-2.032-.076-6.046-.38-8.434,2.016.005,5.123-.086,9.468-6.337,7.041-10.129,12.049-2.568,12.049-2.568C1066.355,490.279,1051.779,482.269,1041.389,487.506Z" transform="translate(-1034.372 -485.837)"/></svg>