<svg xmlns="http://www.w3.org/2000/svg" width="14.198" height="17.763" viewBox="0 0 14.198 17.763"><defs><style>.a{fill:#fdc73d;}</style></defs><path class="a" d="M970.189,524.053c.848-.711,1.752-1.354,2.657-2,.034.086.071.172.11.257-.272.263-.52.535-.735.764a12.278,12.278,0,0,0-1.951,2.977.571.571,0,0,0,1.01.53,10.937,10.937,0,0,1,2.137-2.416,4.269,4.269,0,0,1,.373-.285c.109.179.221.355.345.522-.217.35-.408.719-.6,1.055a26.38,26.38,0,0,0-1.493,3.054.6.6,0,0,0,1.065.559c.513-.9,1.068-1.768,1.651-2.622.2-.286.457-.588.711-.9a2.743,2.743,0,0,0,.344.136c-.2.55-.333,1.143-.472,1.647a10.983,10.983,0,0,0-.532,3.153.362.362,0,0,0,.677.155,20.978,20.978,0,0,0,1.418-2.911,9.2,9.2,0,0,0,.992-2.48,6.333,6.333,0,0,0,1.377-1.914c.381-.722.93-1.226,1.312-1.948a18.771,18.771,0,0,0,1.282,3.713c.172.368.438.784.845.782.592,0,.754-.815.7-1.4a23.042,23.042,0,0,0-1.639-6.766,15.561,15.561,0,0,0-2.951-4.128,1.914,1.914,0,0,0-.555-.433c-.874-.393-1.747.521-2.265,1.328q-1.24,1.927-2.416,3.893a8.468,8.468,0,0,0-.769,1.542c-1.192,1.011-2.3,2.149-3.424,3.19C968.875,523.579,969.644,524.511,970.189,524.053Z" transform="translate(-969.219 -513.058)"/></svg>