<svg xmlns="http://www.w3.org/2000/svg" width="23.539" height="23.114" viewBox="0 0 23.539 23.114"><defs><style>.a{fill:#0d1d2a;}</style></defs><path class="a" d="M305.565,377.236c.276,1.315.825,2.569,1,3.9a3.855,3.855,0,0,1-1.217,3.64,18.423,18.423,0,0,0,5.315,1.54,6.222,6.222,0,0,0,5.09-1.7,3.367,3.367,0,0,1-1.919,3.228,14.291,14.291,0,0,0,6.108-1.436c1.823-1.063,3.169-3.258,2.561-5.278a2.33,2.33,0,1,1,1.12-4.511,3.719,3.719,0,0,0,1.515.441,1.97,1.97,0,0,0,1.234-.969c1.756-2.5,2.259-2.265,2.5-5.312-.917.32-1.291-3.535-2.114-4.051C319.1,361.948,303.175,365.868,305.565,377.236Z" transform="translate(-305.323 -364.732)"/></svg>