<svg xmlns="http://www.w3.org/2000/svg" width="59.407" height="162.274" viewBox="0 0 59.407 162.274"><defs><style>.a{fill:#cae5f7;}</style></defs><path class="a" d="M204.444,531.367l3.965-50.189s-10.851-4.35-17.623-5.323l-18.854,5.8,6.485,50.875s-14.8,11.49-13.351,25.745S164,593.553,162.6,598.015s-7.279,14.372-6,33.309l-2.044,6.8h21.819s-.355-4.61-8.787-5.822c-1.717-.247-2.894-.393-3.68-.469,1.317-4.012,10.812-32.836,13.9-38.8,2.827-5.453,11.573-29.206,14.119-36.17a2.175,2.175,0,0,1,4.216.826c-.242,6.631-1.037,30.984.063,37.367,0,0-8.727,9.833-6.024,37.242l-1.131,5.083h21.057s-3.17-5.835-8.792-6.448h-4s14.776-41.243,15.906-51.464S215.748,544.073,204.444,531.367Z" transform="translate(-154.554 -475.855)"/></svg>