<svg xmlns="http://www.w3.org/2000/svg" width="36.36" height="92.231" viewBox="0 0 36.36 92.231"><defs><style>.a{fill:#12365b;}</style></defs><path class="a" d="M567.987,682.991l-1.966-1.925-17.7-36.186-6.993-6.834,20.979-39.312.629.225h0a3.588,3.588,0,0,0-.489-.371l-.028-.017a3.342,3.342,0,0,0-.3-.165l-.053-.026c-.049-.023-.1-.044-.148-.063-.034-.014-.068-.026-.1-.038q-.1-.034-.191-.062c-.051-.015-.1-.028-.154-.04l-.11-.022q-.093-.017-.186-.027l-.082-.008c-.077-.006-.153-.007-.23-.005l-.08,0a2.218,2.218,0,0,0-.24.025l-.019,0a2.262,2.262,0,0,0-.256.063l-.064.021a2.175,2.175,0,0,0-.254.1l-.024.013a2.481,2.481,0,0,0-.219.123,3.17,3.17,0,0,0-.275.193c-.107.085-.21.176-.309.271-.149.143-.292.294-.431.446a40.7,40.7,0,0,0-4.548,6.041,64.365,64.365,0,0,0-3.591,6.688c-.776,1.651-1.506,3.334-2.216,5.03q-.423,1.009-.839,2.023c-3.318,8.094-6.417,16.348-12.053,22.914a30.6,30.6,0,0,1,3.086,2.26q1.3,1.071,2.5,2.268l.035.034q.466.461.918.937.764.8,1.494,1.638a81.37,81.37,0,0,1,5.313,6.879q1.447,2.063,2.874,4.139,4.84,7.04,9.453,14.233,2.191,3.413,4.337,6.854,2.66,4.281,5.24,8.61c.084.141.18.281.28.419l.826-1.671Z" transform="translate(-535.44 -598.113)"/></svg>