<svg xmlns="http://www.w3.org/2000/svg" width="6.637" height="128.89" viewBox="0 0 6.637 128.89"><defs><style>.a{fill:#194c76;}</style></defs><path class="a" d="M412.983,532.183c-1.117,16.966-1.379,34.012-1.939,51q-.415,12.619-.831,25.239c-.135,4.079-.184,8.1-1.3,12.056a45.843,45.843,0,0,0-1.4,11.112c-.342,9.675-.739,19.352-.949,29.031-.01.461.689.456.713,0,.436-8.616.715-17.243,1.034-25.864.15-4.053-.033-8.295.959-12.251.421-1.678.966-3.314,1.24-5.027a47.441,47.441,0,0,0,.465-5.941q.834-25.218,1.567-50.439c.291-9.635.674-19.28.658-28.92A.108.108,0,0,0,412.983,532.183Z" transform="translate(-406.564 -532.078)"/></svg>