<svg xmlns="http://www.w3.org/2000/svg" width="4.124" height="5.673" viewBox="0 0 4.124 5.673"><defs><style>.a{fill:#cb872d;}</style></defs><path class="a" d="M1248.732,542.228a3.515,3.515,0,0,0,.133-1.382,2.428,2.428,0,0,0-.255-.877c-.366-.686-1.227-.962-1.012-1.931a.121.121,0,0,0-.233-.065,1.794,1.794,0,0,0,.259,1.746,2.312,2.312,0,0,1,.4,1.946,6.139,6.139,0,0,0-.319,1.426.257.257,0,0,0,.434.18,2.37,2.37,0,0,0,.495-.776,6.213,6.213,0,0,1,1.234.3c.443.171.69.551,1.095.742.164.078.422-.011.4-.23C1251.259,542.168,1249.641,542.155,1248.732,542.228Z" transform="translate(-1247.246 -537.888)"/></svg>