<svg xmlns="http://www.w3.org/2000/svg" width="13.814" height="16.228" viewBox="0 0 13.814 16.228"><defs><style>.a{fill:#d77168;}</style></defs><path class="a" d="M466.632,433.216c1.021.427,2.076.772,3.13,1.115.007-.092.017-.185.029-.278-.338-.17-.656-.356-.929-.511a12.281,12.281,0,0,1-2.748-2.263c-.517-.531.257-1.286.806-.806a10.931,10.931,0,0,0,2.759,1.671,4.154,4.154,0,0,0,.44.161c.05-.2.106-.4.174-.6-.311-.27-.6-.566-.891-.828a26.4,26.4,0,0,1-2.334-2.472.6.6,0,0,1,.85-.85c.757.705,1.546,1.37,2.356,2.013.272.215.611.425.947.649a2.725,2.725,0,0,1,.288-.231c-.356-.465-.658-.993-.941-1.432a11.017,11.017,0,0,1-1.446-2.852.363.363,0,0,1,.6-.35,20.955,20.955,0,0,1,2.22,2.358,9.219,9.219,0,0,1,1.684,2.072,6.344,6.344,0,0,1,1.884,1.418c.579.576,1.253.894,1.832,1.47a18.794,18.794,0,0,1,.12-3.926c.055-.4.185-.879.574-1,.566-.173.962.554,1.089,1.132a23.052,23.052,0,0,1,.447,6.947,15.566,15.566,0,0,1-1.59,4.819,1.92,1.92,0,0,1-.4.578c-.718.636-1.823.022-2.558-.594q-1.757-1.471-3.465-3a8.465,8.465,0,0,1-1.193-1.243c-1.439-.611-2.833-1.368-4.218-2.027C465.518,434.06,465.975,432.941,466.632,433.216Z" transform="translate(-465.848 -425.263)"/></svg>