<svg xmlns="http://www.w3.org/2000/svg" width="22.227" height="23.012" viewBox="0 0 22.227 23.012"><defs><style>.a{fill:#0e2234;}</style></defs><path class="a" d="M1158.939,414.956c.048-.012.046.084,0,.091s-.089-.038-.117-.078a5.288,5.288,0,0,1-.7-4.05,11.286,11.286,0,0,1,1.715-3.834,6.038,6.038,0,0,1,2.988-2.738,2.8,2.8,0,0,0,.556,1.769,5.57,5.57,0,0,1,4.826-2.213,13.136,13.136,0,0,0,.268,2.748,4.139,4.139,0,0,1,1.86-1.943c1.151,2.074,3.517,3.115,5.217,4.77a17.576,17.576,0,0,1,3.466,5.637,12.325,12.325,0,0,1,1.182,3.715,4.376,4.376,0,0,1-1.136,3.606c.549,1.184-.389,2.725-1.489,3.427-2.207,1.41-5.092,1.2-7.6.44a16.19,16.19,0,0,1-7.212-4.348C1160.831,419.872,1158.982,417.8,1158.939,414.956Z" transform="translate(-1157.994 -403.889)"/></svg>