<svg xmlns="http://www.w3.org/2000/svg" width="3.079" height="5.079" viewBox="0 0 3.079 5.079"><defs><style>.a{fill:#dd7e66;}</style></defs><path class="a" d="M756.7,265.672a5.471,5.471,0,0,0,.267-1.929,2.493,2.493,0,0,0-.811-1.725,1.633,1.633,0,0,0-1.824-.216.636.636,0,0,0-.276.283c-.11.262.065.546.166.812a1.587,1.587,0,0,1-.323,1.6,1.542,1.542,0,0,1,.187.531,2.679,2.679,0,0,0,.191,1.1,1.036,1.036,0,0,0,.374.325,1.886,1.886,0,0,0,.985.238,1.089,1.089,0,0,0,.561-.155A1.461,1.461,0,0,0,756.7,265.672Z" transform="translate(-753.898 -261.614)"/></svg>