<svg xmlns="http://www.w3.org/2000/svg" width="64.565" height="99.842" viewBox="0 0 64.565 99.842"><defs><style>.a{fill:#fff;stroke:#002e4e;stroke-miterlimit:10;}</style></defs><path class="a" d="M679.8,727.384a17.1,17.1,0,0,1-3.387-3.092c-1.889-2.441-2.227-5.789-1.7-8.831a47.7,47.7,0,0,1,2.91-8.772c6.193-16.226,5.006-34.028,11.058-50.373,1.071-2.892,2.25-6.611,4.225-9.023,1.794-2.191,4.717-4.008,7.042-5.585,9.4-6.373,22.7-10.855,32.1-2.008,5.071,4.772,6.138,12.4,5.974,19.364a78.984,78.984,0,0,1-5.938,28.2,16.081,16.081,0,0,1-9.484,8.975c-3.734,1.33-5.4.938-7.126,4.561-1.965,4.12-2.6,10.249-2.015,14.722.29,2.231.962,4.445.766,6.687-1.062,12.156-15.214,12.452-24.2,10.293A33.838,33.838,0,0,1,679.8,727.384Z" transform="translate(-673.969 -634.243)"/></svg>