<svg xmlns="http://www.w3.org/2000/svg" width="10.535" height="10.775" viewBox="0 0 10.535 10.775"><defs><style>.a{fill:#f8ad92;}</style></defs><path class="a" d="M228.787,536.51a8.1,8.1,0,0,0,2.426-1.547c.537-.5,1-1.065,1.54-1.563a4.122,4.122,0,0,1,1.875-1.09c1.46-.317,2.076-1.922,3.443-2.525a.555.555,0,0,1,.32-.063.49.49,0,0,1,.238.14,1.665,1.665,0,0,1,.118,2,4.865,4.865,0,0,1-1.594,1.442l-1.18.784a2.238,2.238,0,0,1,.478,1.463,1.427,1.427,0,0,1-.618,1.051,1.56,1.56,0,0,1-.017,1.77,2.359,2.359,0,0,1-1.484.741c-.559.088-1.129.069-1.691.133a5.685,5.685,0,0,0-2.542.949,1.286,1.286,0,0,1-.624.293c-.5.026-.788-.545-.891-1.031A6.374,6.374,0,0,1,228.787,536.51Z" transform="translate(-228.488 -529.715)"/></svg>