<svg xmlns="http://www.w3.org/2000/svg" width="96.618" height="121.441" viewBox="0 0 96.618 121.441"><defs><style>.a{fill:#96c7eb;}</style></defs><path class="a" d="M845.133,276.15l-3.464-1.449-10.3,14.533a21.291,21.291,0,0,0-3.846,14.1l-16.486,19.427a12.206,12.206,0,0,1-9.108,4.306l-20.683.334a12.205,12.205,0,0,1-10.234-5.259l-9.919-14.335a9.89,9.89,0,0,1-1.665-4.284l.441-1.745a12.1,12.1,0,0,0-.2-6.642l-5.546-17.4c-3.509-1.344-4.989-1.1-4.989-1.1l-.612,32.8a9.885,9.885,0,0,0,.838,4.172l10.391,23.58L766.731,391c10.832,6.474,34.323,5.346,44.8,4.453a5.86,5.86,0,0,0,5.36-5.7c.267-11.26.849-37.013.593-37.307-.328-.376,19.619-40.4,20.6-41.3S845.133,276.15,845.133,276.15Z" transform="translate(-748.515 -274.701)"/></svg>