<svg xmlns="http://www.w3.org/2000/svg" width="4.997" height="4.121" viewBox="0 0 4.997 4.121"><defs><style>.a{fill:#391f13;}</style></defs><path class="a" d="M450.423,342.884a5.542,5.542,0,0,0-1.9-.762,7.885,7.885,0,0,1-2.515-1.33.137.137,0,0,0-.226.066.1.1,0,0,0-.04.036c-.673,1.22.094,2.859,1.145,3.6,1.133.8,3.134.317,3.3-1.229.047,0,.094,0,.141-.009A.225.225,0,0,0,450.423,342.884Zm-1.8,1.085a1.486,1.486,0,0,1-1.74-.571,4.109,4.109,0,0,1-.876-2.219,6.412,6.412,0,0,0,2.012,1.432,9.981,9.981,0,0,0,1.406.568C449.177,343.464,449.007,343.794,448.624,343.969Z" transform="translate(-445.489 -340.755)"/></svg>