<svg xmlns="http://www.w3.org/2000/svg" width="71.891" height="30.671" viewBox="0 0 71.891 30.671"><defs><style>.a{fill:#002e4e;}</style></defs><path class="a" d="M770.711,1004.99a4.588,4.588,0,0,0-3.505-.636,8.773,8.773,0,0,0-3.064,1.589,91.384,91.384,0,0,1-28.845,13.216c-5.116,1.332-10.753,2.453-14.174,6.484-2.669,3.145-.175,6.069,2.926,7.491,4.513,2.07,10.454,2.077,15.28,1.324,12.315-1.919,24.651,1.371,36.981.009,9.272-1.024,11.87-7.9,14.381-15.981.383-1.232.848-2.458,1.192-3.676-2.972-1.174-6.869-.7-10.108-1.884a20.165,20.165,0,0,1-7.458-4.548A22.362,22.362,0,0,0,770.711,1004.99Z" transform="translate(-719.992 -1004.245)"/></svg>