<svg xmlns="http://www.w3.org/2000/svg" width="10.76" height="9.074" viewBox="0 0 10.76 9.074"><defs><style>.a{fill:#96342f;}</style></defs><path class="a" d="M650.99,391.441c.292-.449.6-.974,1.119-1.093-.031.81.064,1.824.821,2.115a1.513,1.513,0,0,0,1.628-.656c.383-.5.6-1.107.98-1.606.158-.206.4-.409.65-.33a.963.963,0,0,1,.358.3,1.843,1.843,0,0,0,2.155.2,4.065,4.065,0,0,0,1.522-1.714c.095-.174.183-.351.268-.53-.418-2.529-2.028-4.429-6.6-4.668l-4.158,8.8C650.249,392.345,650.7,391.886,650.99,391.441Z" transform="translate(-649.73 -383.456)"/></svg>