<svg xmlns="http://www.w3.org/2000/svg" width="12.886" height="27.251" viewBox="0 0 12.886 27.251"><defs><style>.a{fill:#0d161f;}</style></defs><path class="a" d="M711.173,570.282a8.349,8.349,0,0,0,5.763-3.25,10.879,10.879,0,0,0,1.473-4.161,43.966,43.966,0,0,0,.762-8.362,15.717,15.717,0,0,1,.349-4.595c.246-.823.648-1.591.91-2.408a7.436,7.436,0,0,0,.311-3.066,1.56,1.56,0,0,0-.3-.876,1.759,1.759,0,0,0-1.4-.385l-4.1.09c-2.926,7.575-5.272,17.694-7.036,27.125A16.226,16.226,0,0,0,711.173,570.282Z" transform="translate(-707.898 -543.176)"/></svg>