<svg xmlns="http://www.w3.org/2000/svg" width="63.468" height="70.04" viewBox="0 0 63.468 70.04"><defs><style>.a{fill:#002e4e;}</style></defs><path class="a" d="M998.172,711.845a14.968,14.968,0,0,1,8.942.233,17.121,17.121,0,0,1,8.115,6.226c2.453,3.482,2.729,6.436,3.107,10.618l2.586,28.589a10.7,10.7,0,0,0,1.08,4.494,8.553,8.553,0,0,0,4.97,3.439c3.48,1.121,7.474,1.235,10.624-.62s5-5.442,5.629-9.057.194-7.321-.238-10.965c-1.363-11.506-2.041-22.064-6.784-32.822-3.815-8.649-13.295-13.559-22.621-15.1a49.84,49.84,0,0,0-24.735,2.211,15.692,15.692,0,0,0-6.929,4.2c-2.826,3.338-2.522,7.2,1.689,8.394,2.9.821,5.9,1.649,8.889,1.284C994.566,712.714,996.393,712.23,998.172,711.845Z" transform="translate(-980.07 -696.218)"/></svg>