<svg xmlns="http://www.w3.org/2000/svg" width="22.003" height="16.285" viewBox="0 0 22.003 16.285"><defs><style>.a{fill:#0d1d2a;}</style></defs><path class="a" d="M427.826,310.477c.012.072.037.16.108.175a.189.189,0,0,0,.115-.026,3.5,3.5,0,0,1,1.535-.313,11.288,11.288,0,0,1-.421-3.113c4.828-.264,9.586-1.346,14.4-1.811-.509-3.858-.945-6.884-1.559-10.727a1.38,1.38,0,0,0-1.065.091.559.559,0,0,0-.176.636,1.108,1.108,0,0,0-.931-1,.86.86,0,0,0-1,.855,3.681,3.681,0,0,0-1.347-.761c-.4-.08-.9.227-.834.631a1.451,1.451,0,0,0-2.127-.362.187.187,0,0,0-.082.144c.005.058.1.094.121.043a3.343,3.343,0,0,0-1.531-.572.991.991,0,0,0-.918.822,1.949,1.949,0,0,0-1.291-.447c-.462.063-.865.6-.62,1a1.644,1.644,0,0,0-1.376-.169,1,1,0,0,0-.565.9,1.049,1.049,0,0,0-1.9.7,1.576,1.576,0,0,0-1.439-.278.815.815,0,0,0-.464,1.063.9.9,0,0,0-1.468.945,1.077,1.077,0,0,0-.931,1.929,1.14,1.14,0,0,0-.024,1.529c-.291,0-.482.346-.429.633a1.5,1.5,0,0,0,.468.723l.751.776a32.727,32.727,0,0,1,2.675,3.29C426.016,307.532,427.6,309.119,427.826,310.477Z" transform="translate(-421.558 -294.368)"/></svg>