<svg xmlns="http://www.w3.org/2000/svg" width="5.01" height="5.296" viewBox="0 0 5.01 5.296"><defs><style>.a{fill:#a84743;}</style></defs><path class="a" d="M850.475,447.416a6.367,6.367,0,0,0-.969-2.048,2.9,2.9,0,0,0-1.889-1.163,1.9,1.9,0,0,0-1.914.95.74.74,0,0,0-.089.452c.06.326.412.49.679.685a1.847,1.847,0,0,1,.7,1.762,1.8,1.8,0,0,1,.52.4c.293.327.487.776.889.952a1.212,1.212,0,0,0,.571.078,2.2,2.2,0,0,0,1.11-.4,1.262,1.262,0,0,0,.447-.509A1.7,1.7,0,0,0,850.475,447.416Z" transform="translate(-845.607 -444.191)"/></svg>