<svg xmlns="http://www.w3.org/2000/svg" width="29.032" height="81.532" viewBox="0 0 29.032 81.532"><defs><style>.a{fill:#5b8baa;}</style></defs><path class="a" d="M929.1,277.208l-1.429-.6q-2.877,11.026-5.755,22.053a6.07,6.07,0,0,1-.94,2.274,5.9,5.9,0,0,1-2.6,1.619c-2.192.865-4.757,1.6-6.939,1.072.013.255.026.51.048.765l-1.173,1.382a6.37,6.37,0,0,0,1.875,1.822,15.523,15.523,0,0,0,5.556,1.789c-4.279,9.552-8.575,19.137-14.078,28.04a25.775,25.775,0,0,0-2.961,5.7,22.273,22.273,0,0,0-.487,8.23,21.57,21.57,0,0,0,1.287,6.788c.026-2.787.016-4.566-.051-4.642-.328-.376,19.619-40.4,20.6-41.3S929.1,277.208,929.1,277.208Z" transform="translate(-900.067 -276.61)"/></svg>