<svg xmlns="http://www.w3.org/2000/svg" width="3.079" height="5.079" viewBox="0 0 3.079 5.079"><defs><style>.a{fill:#dd7e66;}</style></defs><path class="a" d="M957.71,261.105a5.474,5.474,0,0,1-.267-1.929,2.494,2.494,0,0,1,.811-1.725,1.633,1.633,0,0,1,1.823-.216.635.635,0,0,1,.276.283c.11.262-.066.545-.166.812a1.586,1.586,0,0,0,.323,1.6,1.537,1.537,0,0,0-.187.531,2.682,2.682,0,0,1-.192,1.1,1.034,1.034,0,0,1-.374.325,1.884,1.884,0,0,1-.985.238,1.089,1.089,0,0,1-.561-.155A1.461,1.461,0,0,1,957.71,261.105Z" transform="translate(-957.433 -257.047)"/></svg>