<svg xmlns="http://www.w3.org/2000/svg" width="29.489" height="95.195" viewBox="0 0 29.489 95.195"><defs><style>.a{fill:#fff;stroke:#002e4e;stroke-miterlimit:10;}</style></defs><path class="a" d="M1289.416,783.574c1.343-5.235,2.544-10.954,1.378-15.7-1.241-5.053-5.381-9.452-7.522-14.183-1.937-4.278-2.954-9.278-1.259-13.658a2.571,2.571,0,0,1,.428-.787c.773-.883,2.325-.47,3.048.455a9.128,9.128,0,0,1,1.217,3.277c.9,3.193,3.086,5.844,5.213,8.393,4.873,5.841,11.085,9.686,12.3,17.717.786,5.186.3,10.571.813,15.806.6,6.118,1.589,12.192,2.157,18.314.593,6.392,2.455,25.706-5.035,28.841-4.717,1.973-16.278.39-19.929-3.393a11.977,11.977,0,0,1-2.93-8.733,33.569,33.569,0,0,1,2.032-9.208c2.315-7.1,4.842-14.142,6.6-21.406C1288.363,787.523,1288.9,785.584,1289.416,783.574Z" transform="translate(-1278.788 -738.25)"/></svg>