<svg xmlns="http://www.w3.org/2000/svg" width="100.615" height="139.617" viewBox="0 0 100.615 139.617"><defs><style>.a{fill:#fff;stroke:#002e4e;stroke-miterlimit:10;}</style></defs><path class="a" d="M871.938,935.18c.838,2.2,1.263,4.541,1.973,6.789a55.767,55.767,0,0,0,5.494,11.211q7.765,13.239,15.532,26.476l7.765,13.238c.338.576.92,1.81,1.624,3.265q21.072-12.318,41.165-26.24c-3.028-4.936-6.459-9.7-7.159-15.376-.356-2.88.04-5.812-.313-8.692-.853-6.956-5.833-12.559-9.984-18.206-7.432-10.11-12.72-21.592-19.021-32.449q-1.122-1.934-2.293-3.838a82.543,82.543,0,0,0-15.885-19.422,64.863,64.863,0,0,0-10.244-6.907c-3.025-1.751-5.266-4.274-8.551-5.625-14.293-5.879-25.546,5.66-25.98,20.117-.308,10.269,4.287,20.015,9.367,28.945q5.234,9.2,11.3,17.9A41.909,41.909,0,0,1,871.938,935.18Z" transform="translate(-845.548 -857.247)"/></svg>