<svg xmlns="http://www.w3.org/2000/svg" width="42.09" height="95.848" viewBox="0 0 42.09 95.848"><defs><style>.a{fill:#112e4f;}</style></defs><path class="a" d="M1127.221,652.125a9.085,9.085,0,0,0-5.446,1.84,123.531,123.531,0,0,0-24.3-39.176,14.4,14.4,0,0,0-4.8-3.839,5.314,5.314,0,0,0-5.772.8c-1.356,1.4-1.487,3.586-1.163,5.508a15.28,15.28,0,0,0,1.277,4.031c-.149-1.2-.285-2.264-.4-3.164a2.361,2.361,0,0,1,4.336-1.564l26.353,41.572L1103.851,706.1l3.342.207c4.931-16.38,10.185-33.616,15.06-49.85a14.562,14.562,0,0,0,3.72,2.641.45.45,0,0,0,.454-.776c-1.308-1-2.738-1.8-4.057-2.786q-.122-.328-.245-.656a10.451,10.451,0,0,1,1.415-.791,19.981,19.981,0,0,1,3.807-1.037A.477.477,0,0,0,1127.221,652.125Z" transform="translate(-1085.596 -610.463)"/></svg>