<svg xmlns="http://www.w3.org/2000/svg" width="72.468" height="142.111" viewBox="0 0 72.468 142.111"><defs><style>.a{fill:#8fa6d1;}</style></defs><path class="a" d="M782.888,528.326s-4.165,31.157,7.7,70.2c0,0-7.166,8.33-8.41,15.147s-2.516,44.809-2.516,44.809l-4.374,11.951h27.45s-.949-4.973-6.94-5.828a86.133,86.133,0,0,0-10.143-.9s24.785-56.084,24.12-61.852-3.128-42.623-3.128-42.623l4.424-.309,17.513,44.041a33.288,33.288,0,0,0-5.674,14.318c-1.472,9.027-10.463,48.317-10.463,48.317v4.836H844.93s-2.867-5.657-8.126-6.727a123.738,123.738,0,0,0-14.65-1.466s26.028-49.189,25.6-52.945-16.023-79.031-16.023-79.031Z" transform="translate(-775.29 -528.326)"/></svg>