<svg xmlns="http://www.w3.org/2000/svg" width="73.464" height="132.291" viewBox="0 0 73.464 132.291"><defs><style>.a{fill:#a0d2db;stroke:#002e4e;stroke-miterlimit:10;}</style></defs><path class="a" d="M975.471,804.7c2.916-7.878,8.112-15.527,11.828-22.712q3.225-6.238,6.452-12.477c1.433-2.77,3.135-8.711,6.353-9.915,2.591-.969,5.676,1.27,8.047,2.122,3.478,1.25,7.063,2.2,10.546,3.443,6.935,2.476,13.814,5.673,18.889,11.17,5.239,5.673,8.836,13.251,8.224,21.243-.346,4.525-2.309,8.751-3.359,13.167-1.224,5.152-1.193,10.512-1.063,15.807a464.033,464.033,0,0,0,3.77,48.784c.37,2.833.747,5.823-.357,8.458-2.78,6.632-20.336,4.929-26.577,5.485-9.986.888-21.483,3.283-30.9-1.259a248.53,248.53,0,0,1-1.79-31.068c.045-8.655,2.446-17.4-3.033-24.826-4.774-6.475-10.339-12.25-8.842-20.9A37.143,37.143,0,0,1,975.471,804.7Z" transform="translate(-972.922 -758.907)"/></svg>