<svg xmlns="http://www.w3.org/2000/svg" width="12.616" height="131.122" viewBox="0 0 12.616 131.122"><defs><style>.a{fill:#194c76;}</style></defs><path class="a" d="M475.031,615.378q-.312-3.13-.624-6.26-.624-6.259-1.237-12.52-1.206-12.26-2.44-24.519-.37-3.652-.743-7.3a29.635,29.635,0,0,0-.92-5.7,8.475,8.475,0,0,0-4.684-5.683c1.194-1.253,1.528-3.287,1.611-4.955.175-3.55.282-7.142.26-10.7a.329.329,0,0,0-.657,0c-.161,2.9-.167,5.821-.232,8.728-.055,2.459-.05,4.849-1.544,6.737-.146-.041-.293-.079-.445-.109.2-4.933.227-9.862.29-14.8a.127.127,0,0,0-.254,0c-.063,4.915-.672,15.311-.683,15.486s1.054.136,1.333-.095c3.022,1.292,4.312,4.725,4.788,7.865.606,3.995.831,8.07,1.232,12.091q1.171,11.738,2.348,23.475.606,6,1.208,12,.286,2.87.572,5.739a27.592,27.592,0,0,1,.327,5.267c-.176,1.861-1.062,3.557-1.6,5.325a29.546,29.546,0,0,0-1.052,5.223,72.781,72.781,0,0,0-.169,11.025c.314,8.842.554,17.7,1.009,26.533a.326.326,0,0,0,.651,0c-.167-8.323-.537-16.652-.835-24.972a91.864,91.864,0,0,1,.015-11.637,30.2,30.2,0,0,1,.987-5.511,44.856,44.856,0,0,0,1.7-5.433A21.447,21.447,0,0,0,475.031,615.378Z" transform="translate(-462.729 -537.422)"/></svg>