<svg xmlns="http://www.w3.org/2000/svg" width="53.368" height="80.66" viewBox="0 0 53.368 80.66"><defs><style>.a{fill:#fff;stroke:#002e4e;stroke-miterlimit:10;}</style></defs><path class="a" d="M934.549,966.954c-2.714-7.675-4.405-15.847-6.783-23.664a35.5,35.5,0,0,0-4.469-10.156,14.637,14.637,0,0,0-8.884-6.262c-6.241-1.2-12.477,3.269-15.343,8.942-7.453,14.75-1.093,31.1,8.565,42.934,3.283,4.024,6.847,7.8,10.226,11.746,3.4,3.965,5.85,9.187,9.324,12.916,5.35,5.742,14.662,1.99,19.049-3.189,5.255-6.2-1.509-14.609-5.1-19.832A57.055,57.055,0,0,1,934.549,966.954Z" transform="translate(-895.291 -926.164)"/></svg>