<svg xmlns="http://www.w3.org/2000/svg" width="8.516" height="17.944" viewBox="0 0 8.516 17.944"><defs><style>.a{fill:#f9d0ce;}</style></defs><path class="a" d="M736.8,453.369c.616-2.156.17-6.639.786-8.8a2.457,2.457,0,0,1,.245-.631,2.547,2.547,0,0,1,.6-.6,39.314,39.314,0,0,0,4.679-4.431,3.344,3.344,0,0,1,.023,2.615c-.4.764-1.123,1.318-1.56,2.064a4.9,4.9,0,0,0-.714,1.96c.318-.016.853-.123,1.171-.14a1.73,1.73,0,0,1,1.16.215,1.625,1.625,0,0,1,.436.636,14.5,14.5,0,0,1,.787,2.149,20,20,0,0,0,.617,1.918,2.241,2.241,0,0,1,.142,1.8,2.572,2.572,0,0,0-.388.758c-.056.433-.56.514-1,.531s-.866-.105-1.3-.117a.886.886,0,0,0-.511.108.835.835,0,0,0-.3.758c.015.284.1.563.088.847a1.774,1.774,0,0,1-1.054,1.433,5.226,5.226,0,0,1-1.813.4C737.38,455.087,738.2,455.234,736.8,453.369Z" transform="translate(-736.8 -438.907)"/></svg>