<svg xmlns="http://www.w3.org/2000/svg" width="10.695" height="7.215" viewBox="0 0 10.695 7.215"><defs><style>.a{fill:#112e4f;}</style></defs><path class="a" d="M1065.749,711.624a16.64,16.64,0,0,0-5.295.986,18.424,18.424,0,0,0-4.83,2.136l-.048-.007c-.15-.016-.22.207-.11.293a.191.191,0,0,0,.245.14l.037-.011c1.459.633,2.991,1.087,4.473,1.662a46.52,46.52,0,0,0,5.093,2,.3.3,0,0,0,.227-.538,18.117,18.117,0,0,0-4.855-2.212,28.67,28.67,0,0,0-4.046-1.173c1.366-.421,2.707-.927,4.085-1.31,1.692-.47,3.453-.706,5.122-1.243A.37.37,0,0,0,1065.749,711.624Z" transform="translate(-1055.413 -711.621)"/></svg>