<svg xmlns="http://www.w3.org/2000/svg" width="4.124" height="5.673" viewBox="0 0 4.124 5.673"><defs><style>.a{fill:#96342f;}</style></defs><path class="a" d="M485.247,444.952a3.513,3.513,0,0,1-.133-1.382,2.418,2.418,0,0,1,.255-.877c.365-.686,1.226-.962,1.012-1.931a.121.121,0,0,1,.233-.064,1.793,1.793,0,0,1-.259,1.746,2.313,2.313,0,0,0-.4,1.946,6.115,6.115,0,0,1,.319,1.426.257.257,0,0,1-.433.18,2.378,2.378,0,0,1-.5-.776,6.219,6.219,0,0,0-1.234.3c-.443.171-.69.551-1.094.742-.164.077-.422-.01-.4-.23C482.72,444.892,484.338,444.879,485.247,444.952Z" transform="translate(-482.609 -440.613)"/></svg>