<svg xmlns="http://www.w3.org/2000/svg" width="6.501" height="15.317" viewBox="0 0 6.501 15.317"><defs><style>.a{fill:#fff;stroke:#000;}</style></defs><path class="a" d="M358.324,352.315a.166.166,0,1,0-.232-.238l-2.265,2.188v-2l2.5-2.408a.167.167,0,0,0-.232-.242l-2.265,2.188v-3.39a.167.167,0,1,0-.333,0v3.39l-2.263-2.188a.168.168,0,0,0-.233.242l2.5,2.408v2l-2.263-2.188a.166.166,0,1,0-.233.238l2.5,2.412v2l-2.263-2.186a.172.172,0,0,0-.237,0,.169.169,0,0,0,0,.237l2.5,2.409V362.4a.167.167,0,1,0,.333,0v-5.211l2.5-2.409a.168.168,0,0,0,0-.237.17.17,0,0,0-.235,0l-2.265,2.186v-2Z" transform="translate(-352.411 -347.746)"/></svg>