<svg xmlns="http://www.w3.org/2000/svg" width="39.081" height="103.158" viewBox="0 0 39.081 103.158"><defs><style>.a{fill:#c69292;}</style></defs><path class="a" d="M1220.091,697.861a31.691,31.691,0,0,0,5.609-12.234c.918-3.618,1.5-7.348,2.953-10.787,1.123-2.663,2.747-5.1,3.753-7.811a37.2,37.2,0,0,0,1.74-9.995c.469-5.793.94-11.586,1.288-17.388a68.742,68.742,0,0,0-.233-14.463c-1.013-6.661-3.792-12.89-6.694-18.989a11.186,11.186,0,0,0-.946,1.684c-2.161,4.792-.407,10.331-.323,15.587a24.253,24.253,0,0,1-4.468,14.352c-3.019,4.233-7.409,7.5-9.657,12.185-3.156,6.584-1.408,14.324-1.5,21.624a41.934,41.934,0,0,1-6.595,21.982c-2.937,4.577-9.792,10.561-8.151,15.745h14.942a20.253,20.253,0,0,1,3.189-5.842C1216.568,701.519,1218.5,699.836,1220.091,697.861Z" transform="translate(-1196.619 -606.196)"/></svg>