<svg xmlns="http://www.w3.org/2000/svg" width="4.368" height="5.337" viewBox="0 0 4.368 5.337"><defs><style>.a{fill:#96342f;}</style></defs><path class="a" d="M850.552,372.612c-1.467.2-2.261-.6-3.149-1.586.087-.06.171-.123.258-.19a.166.166,0,0,0-.128-.3,1.15,1.15,0,0,0-.568.295,2.748,2.748,0,0,0-.4.5c-.076.119.089.229.186.144.031-.027.064-.05.1-.075.005.012.01.024.015.037-.465,1.436-.435,3.336.975,4.23,1.365.865,2.3-1.279,2.336-2.437a3.957,3.957,0,0,0,.531-.06C851.076,373.1,850.91,372.562,850.552,372.612Zm-1.345,1.541c-.18.453-.268.831-.795.814-.425-.014-.535-.163-.765-.535a4.156,4.156,0,0,1-.472-2.428,3.306,3.306,0,0,0,2.36,1.208C849.416,373.522,849.332,373.84,849.207,374.153Z" transform="translate(-846.547 -370.529)"/></svg>