<svg xmlns="http://www.w3.org/2000/svg" width="30.638" height="83.362" viewBox="0 0 30.638 83.362"><defs><style>.a{fill:#2c6099;}</style></defs><path class="a" d="M564.733,681.428c-5.293-8.518-10.9-17-16.655-25.215-3.242-4.624-7.682-10.388-13.276-13.944l-.258-.164.2-.231c5.15-6,8.227-13.557,11.2-20.866,3.135-7.7,6.376-15.661,12.051-21.837a4.619,4.619,0,0,1,1.337-1.105l.23.476a4.125,4.125,0,0,0-1.177.987c-5.611,6.106-8.834,14.022-11.951,21.679-2.953,7.255-6.006,14.753-11.095,20.78,5.552,3.617,9.949,9.329,13.17,13.922,5.765,8.221,11.374,16.713,16.671,25.24Z" transform="translate(-534.544 -598.066)"/></svg>