<svg xmlns="http://www.w3.org/2000/svg" width="68.926" height="78.646" viewBox="0 0 68.926 78.646"><defs><style>.a{fill:#fff;stroke:#002e4e;stroke-miterlimit:10;}</style></defs><path class="a" d="M802.79,1001.9l11.434-11.773c4.127-4.25,8.278-8.529,11.567-13.456a48.875,48.875,0,0,0,6.336-13.7c1.23-4.313,1.8-9.176-.372-13.1-2.435-4.4-7.916-6.5-12.919-6s-9.547,3.191-13.386,6.439c-8.5,7.193-13.788,16.34-18.79,26.053q-8.539,16.584-17.729,32.823c-1.187,2.1-3.96,5.953-3.626,8.5.372,2.839,4.132,3.362,6.764,3.607,6.311.586,12.364-.5,16.877-5.143Z" transform="translate(-764.784 -943.293)"/></svg>