<svg xmlns="http://www.w3.org/2000/svg" width="80.875" height="68.333" viewBox="0 0 80.875 68.333"><defs><style>.a{fill:#a0d2db;stroke:#002e4e;stroke-miterlimit:10;}</style></defs><path class="a" d="M1267.621,732.33a17.674,17.674,0,0,1,4.373-14.753c1.264-1.369,2.722-2.231,3.509-3.987a11.4,11.4,0,0,0,.63-2.567c1.036-5.461,4.509-9.6,9.1-12.5,5.014-3.17,10.016-3.235,15.754-4.2,1.684-.282,3.318-.816,5-1.089a18.053,18.053,0,0,1,4.837-.106,24.748,24.748,0,0,1,12.717,5.764,24.324,24.324,0,0,1,5.681,7.277c1.257,2.156,1.845,4.63,3.078,6.8,1.411,2.478,3.1,2.4,5.476,3.551a15.232,15.232,0,0,1,8.351,10.948c1.915,11.609-9.983,19.96-20.559,17.6-7.987-1.778-19.943-1.726-26.129,4.5-2.547,2.562-4.693,5.575-7.666,7.629q-.453.314-.928.592a19.051,19.051,0,0,1-18.159.488c-7.477-4.131-6.891-12.775-4.494-19.89a5.826,5.826,0,0,0,.449-2.037,6.224,6.224,0,0,0-.44-1.74A15.438,15.438,0,0,1,1267.621,732.33Z" transform="translate(-1265.986 -692.515)"/></svg>