<svg xmlns="http://www.w3.org/2000/svg" width="281.571" height="150.207" viewBox="0 0 281.571 150.207"><defs><style>.a{fill:#fff;stroke:#002e4e;stroke-miterlimit:10;}</style></defs><path class="a" d="M1047.008,886.075c-1.16-4.836-2.9-9.811-6.5-12.947s-9.538-3.6-12.531.21c-1.013,1.29-1.6,2.92-2.627,4.2-3.09,3.85-10.844,1.262-14.844,1.157-6.25-.164-12.5.205-18.735.623-15.207,1.018-30.394,2.347-45.581,3.675l-42.523,3.72c-7.211.631-14.465,1.561-21.687,1.96-6.267.345-11.4-1.094-17.549,1.786-5.161,2.418-9.525,6.218-13.852,9.927-6.475,5.547-13.036,11-19.447,16.619-3.664,3.213-7.279,6.479-10.8,9.85-9.858,9.437-18.937,19.649-28,29.847l-22.912,25.773c14.536,11.243,27.738,24.111,40.7,37.169,2.3-2.1,4.543-4.59,6.127-6.007q5.061-4.527,9.83-9.367c1.606-1.63,3.239-3.374,3.887-5.568.515-1.743.359-3.617.747-5.393,1.262-5.776,7.5-8.687,11.993-12.525,6.468-5.52,7.454-13.263,11.6-20.168,3.7-6.172,11.219-8.856,16.281-13.973,4.728-4.779,7.059-11.4,11.085-16.788,3.29-4.4,11.379-10.506,16.925-6.442,4.406,3.229,3.768,10.623,9.091,13.272,3.642,1.813,8.023,1.711,11.948,2.409,13.4,2.38,26.941,3.708,40.466,5.033l23.085,2.263c12.827,1.257,25.984,2.485,38.4-1.206,9.847-2.926,19.407-9.584,24.363-19.457a32.9,32.9,0,0,0,2.633-7.512C1050.921,907.878,1049.323,895.72,1047.008,886.075Z" transform="translate(-768.688 -870.127)"/></svg>