<svg xmlns="http://www.w3.org/2000/svg" width="6.484" height="5.489" viewBox="0 0 6.484 5.489"><defs><style>.a{fill:#96342f;}</style></defs><path class="a" d="M615.424,486.553c-1.877-.463-4.33-.739-6.156.032a.175.175,0,0,0,.041.317c.037.006.074.008.11.013.685.741,1.5,1.35,2.169,2.112s1.155,1.693,1.826,2.466a.328.328,0,0,0,.544-.317,7.793,7.793,0,0,0-1.759-2.553,10.42,10.42,0,0,0-1.826-1.647c.581,0,1.165-.035,1.745-.016,1.074.034,2.145.162,3.213.274C615.723,487.277,615.8,486.646,615.424,486.553Z" transform="translate(-609.184 -486.102)"/></svg>