<svg xmlns="http://www.w3.org/2000/svg" width="57.418" height="130.286" viewBox="0 0 57.418 130.286"><defs><style>.a{fill:#1a4072;}</style></defs><path class="a" d="M558.081,559.811c-7.494-.414-15.432-1.248-21.786-4.969-4.954,22.084-15.975,61.519-14.995,64.95,1.1,3.853,33.579,44.864,33.579,44.864s-.224,6.388-.879,6.888-6.338,7.769-6.338,7.769-8.96,4.2-6.119,4.148c1.254-.023,3.954-.026,6.58-.022l2.468-2.288c1.357-1.436,4.072-2.636,6.977-3.583l6.363-12.869-3.813-5.682-1.966-1.925-17.7-36.186-6.993-6.834,20.979-39.312,2.418.866,4.787,51.317,6.653,48.092a79.473,79.473,0,0,0-10.727,2.534l-4.311,1.729a53.651,53.651,0,0,0-5.135,4.141l-1.822,1.688h31.124l-.687-13.851,1.918-32.481-4.062-5.018,2.7-75.768C571.29,560.3,564.55,560.169,558.081,559.811Z" transform="translate(-521.24 -554.842)"/></svg>