<svg xmlns="http://www.w3.org/2000/svg" width="566.809" height="16.404" viewBox="0 0 566.809 16.404"><defs><style>.a{fill:#8fa6d1;}</style></defs><path class="a" d="M640.748,829.665a2.951,2.951,0,0,0-1.164-1.137c-2.547-1.594-5.645-1.979-8.633-2.279-3.744-.376-7.486-.617-11.229-.814v-1.253H601.736a17.018,17.018,0,0,0-4.354,0H117.652a17.023,17.023,0,0,0-4.355,0H92.834v1.389c-2.917.173-5.833.385-8.751.677-2.989.3-6.087.685-8.634,2.279a2.95,2.95,0,0,0-1.164,1.137c-.821,1.711,1.439,3.3,3.319,3.558s4.227.376,4.99,2.114c.5,1.149.1,2.723,1.065,3.528a2.916,2.916,0,0,0,1.42.513,77.261,77.261,0,0,0,19.6.77c.317-.028.658-.055,1.018-.083H609.335c.36.028.7.055,1.019.083a77.262,77.262,0,0,0,19.6-.77,2.915,2.915,0,0,0,1.42-.513c.962-.8.561-2.379,1.065-3.528.763-1.738,3.11-1.855,4.99-2.114S641.569,831.376,640.748,829.665Z" transform="translate(-74.112 -824.041)"/></svg>