<svg xmlns="http://www.w3.org/2000/svg" width="43.101" height="44.297" viewBox="0 0 43.101 44.297"><defs><style>.a{fill:#0d1d2a;}</style></defs><path class="a" d="M590.651,477.966a16.157,16.157,0,0,0,4.573-5.411q2.333-3.851,4.394-7.859l1.817-25.069a2.32,2.32,0,0,0-1.27.2,4.505,4.505,0,0,0-1.533,1.452l-18.365,23.959A13.782,13.782,0,0,1,577,468.616a14.251,14.251,0,0,1-4.468,1.6q-6.332,1.525-12.557,3.452c-.534,3.793-1.073,7.228-1.6,10.063-.011.058-.022.117-.033.175l25.287-3.816C586.062,479.723,588.589,479.323,590.651,477.966Z" transform="translate(-558.334 -439.611)"/></svg>