<svg xmlns="http://www.w3.org/2000/svg" width="58.075" height="86.052" viewBox="0 0 58.075 86.052"><defs><style>.a{fill:#d77168;}</style></defs><path class="a" d="M186.818,417.7a10.7,10.7,0,0,0-4.779-6.97,14.559,14.559,0,0,0-20.434,4.2c-4.255,6.644-2.568,15.584-5.818,22.774-4.846,10.72-18.959,14.44-24.667,24.727a17.791,17.791,0,0,0-2.251,9.885,21.146,21.146,0,0,0,2.414,7.975c3.43,6.7,9.7,12.1,17.072,13.6s15.688-1.355,19.892-7.6c4.118-6.115,3.877-14.051,3.756-21.423q-.149-9.178.267-18.354c.2-4.38.51-8.833,2.065-12.932,1.235-3.256,3.726-7.3,7.151-8.626,1.488-.575,2.525-.252,3.758-1.465A7.141,7.141,0,0,0,186.818,417.7Z" transform="translate(-128.825 -408.231)"/></svg>