<svg xmlns="http://www.w3.org/2000/svg" width="163.754" height="203.162" viewBox="0 0 163.754 203.162"><defs><style>.a{fill:#002e4e;}</style></defs><path class="a" d="M1006.747,880.189c-6.619-6.356-13.716-12.275-19.947-19.018-7.864-8.511-12.324-18.665-17.093-29.106-5.1-11.176-9.183-23.153-8.855-35.593.412-15.6,7.941-30.626,19.271-41.365,6.55-6.208,16.56-11.492,18-20.863,1.389-9.061-.781-19.323,4.653-27.378,7.705-11.419,29.11-.789,35.714,6.9,8.654,10.07,7.71,26.861,19.6,34.454,4.489,2.867,10,3.517,14.981,5.412a31.819,31.819,0,0,1,19.2,21.591c2.287,9.08,2.2,18.8,9.189,25.857,7.35,7.426,14.221,13.788,18.047,23.908,2.934,7.764,4.2,16.059,4.933,24.327,1.764,19.869-12.561,37.222-29.447,46.628a74.262,74.262,0,0,1-42.557,8.773c-12.25-1.1-28.183-4.51-36.08-14.254A112.624,112.624,0,0,0,1006.747,880.189Z" transform="translate(-960.833 -701.857)"/></svg>