<svg xmlns="http://www.w3.org/2000/svg" width="59.407" height="103.469" viewBox="0 0 59.407 103.469"><defs><style>.a{fill:#1a4072;}</style></defs><path class="a" d="M206.929,607.716a47.4,47.4,0,0,1-15.639,4.8,30.732,30.732,0,0,1-17.182-2.872c-4.244,4.571-9.969,12.56-9.044,21.683,1.448,14.256-1.065,35.282-2.466,39.744s-7.279,14.372-6,33.309l-2.044,6.8h21.819s-.355-4.61-8.787-5.822c-1.717-.247-2.894-.393-3.68-.469,1.317-4.012,10.812-32.836,13.9-38.8,2.827-5.453,11.573-29.206,14.119-36.17a2.175,2.175,0,0,1,4.216.826c-.242,6.631-1.037,30.984.063,37.367,0,0-8.727,9.833-6.024,37.241l-1.131,5.083h21.057s-3.17-5.835-8.792-6.448h-4s14.776-41.243,15.906-51.464C214.258,643.135,215.523,621.082,206.929,607.716Z" transform="translate(-154.554 -607.716)"/></svg>