<svg xmlns="http://www.w3.org/2000/svg" width="6.194" height="20.96" viewBox="0 0 6.194 20.96"><defs><style>.a{fill:#5b8baa;}</style></defs><path class="a" d="M896.71,425.193q-.281-.523-.546-1.05c-.527-2.8-1.13-5.583-1.552-8.4-.269-1.8-.473-3.6-.64-5.409a31.255,31.255,0,0,0-.486-4.9c-.084-.327-.639-.363-.7,0a19.891,19.891,0,0,0,.189,5.154c.166,1.641.391,3.277.653,4.9.289,1.793.618,3.587,1.04,5.357a85.088,85.088,0,0,1-3.872-12.909.112.112,0,0,0-.219.029c.179,6.17,2.426,12.3,5.3,17.711a.415.415,0,0,0,.335.235c.017.045.032.09.049.134a.121.121,0,0,0,.233-.065c-.007-.04-.015-.079-.021-.12A.477.477,0,0,0,896.71,425.193Z" transform="translate(-890.578 -405.172)"/></svg>