<svg xmlns="http://www.w3.org/2000/svg" width="63.483" height="146.203" viewBox="0 0 63.483 146.203"><defs><style>.a{fill:#0e2234;}</style></defs><path class="a" d="M1003.307,514.327s-2.842,54.548-.067,78.044,6.907,60.052,6.907,60.052-13.657,3.031-13.79,5.387h25.853l-3.477-8.178s3.256-35.869,3-38.928-4.162-9.951-4.162-9.951l7.565-67.328a2.207,2.207,0,0,1,1.481-1.842h0a2.206,2.206,0,0,1,2.908,1.867l4.3,67.125,15.365,49.058s-8.555,5.585-9.566,8.461h20.216l-3.538-8.9-.386-42.445-2.368-4.358-2.047-89.433s-39.466-3.025-45.635,1.12Z" transform="translate(-996.357 -511.892)"/></svg>