<svg xmlns="http://www.w3.org/2000/svg" width="51.081" height="78.746" viewBox="0 0 51.081 78.746"><defs><style>.a{fill:#fff;stroke:#002e4e;stroke-miterlimit:10;}</style></defs><path class="a" d="M1303.739,777.559c2.971,5.835,9.3,8.739,16.341,7.788l.159-.022a13.319,13.319,0,0,0,10.959-15.808q-1.179-6.062-2.36-12.121a11.123,11.123,0,0,1-.218-4.845,18.025,18.025,0,0,1,2.012-3.977c5.278-9.679-.723-20.668-5.66-29.055a23.524,23.524,0,0,0-19.184-11.707c-17.256-.712-25.751,14.955-22.4,30.289,1.909,8.724,7.161,14.977,13.844,20.534S1304.283,769.244,1303.739,777.559Z" transform="translate(-1282.095 -707.286)"/></svg>