<svg xmlns="http://www.w3.org/2000/svg" width="6.501" height="15.317" viewBox="0 0 6.501 15.317"><defs><style>.a{fill:#fff;stroke:#000;}</style></defs><path class="a" d="M499.3,352.315a.166.166,0,1,0-.23-.238l-2.267,2.188v-2l2.5-2.408a.168.168,0,0,0,0-.237.165.165,0,0,0-.234-.005L496.8,351.8v-3.39a.166.166,0,1,0-.332,0v3.39l-2.264-2.188a.167.167,0,0,0-.232.242l2.5,2.408v2l-2.264-2.188a.166.166,0,1,0-.232.238l2.5,2.412v2l-2.264-2.186a.17.17,0,0,0-.235,0,.168.168,0,0,0,0,.237l2.5,2.409V362.4a.166.166,0,1,0,.332,0v-5.211l2.5-2.409a.167.167,0,0,0-.23-.241l-2.267,2.186v-2Z" transform="translate(-493.387 -347.746)"/></svg>