<svg xmlns="http://www.w3.org/2000/svg" width="33.624" height="33.708" viewBox="0 0 33.624 33.708"><defs><style>.a{fill:#1e4e78;}</style></defs><path class="a" d="M321.622,496.461c-.949.37-1.987.732-3,1.146a69.412,69.412,0,0,0-.346-7.305c-.2-2.581-.5-5.153-.879-7.714-.6-4.028-1.3-8.365-3.81-11.7-2.4-3.19-6.154-4.509-10-4.919a41.6,41.6,0,0,0-14.933,1.415.14.14,0,0,0,.074.269,49.673,49.673,0,0,1,14.021-.946c4.267.341,8.418,1.768,10.758,5.582,2.166,3.531,2.675,7.911,3.164,11.939q.429,3.535.66,7.091c.147,2.245.11,4.5.26,6.745a12.439,12.439,0,0,0-1.591.878.3.3,0,0,0,.229.544,13.008,13.008,0,0,0,2.028-.6l.046-.017c1.253-.474,2.494-1.086,3.656-1.594C322.418,497.072,322.09,496.279,321.622,496.461Z" transform="translate(-288.557 -465.782)"/></svg>