<svg xmlns="http://www.w3.org/2000/svg" width="44.019" height="126.641" viewBox="0 0 44.019 126.641"><defs><style>.a{fill:#fcdfdf;}</style></defs><path class="a" d="M68.129,549.7a95.745,95.745,0,0,0-9.969-11.707.186.186,0,0,1,.263-.263c6.2,6.159,12.5,12.54,15.208,21.078,1.472,4.633,2,9.594,4.186,13.986.133.268.272.533.413.8a4.771,4.771,0,0,1,.7,1.1.42.42,0,0,1,.036.218c1.845,3.176,3.954,6.144,4.579,9.9.767,4.6-.1,9.269.265,13.895.373,4.754,3.213,8.711,3.807,13.382.628,4.93-.967,9.915.437,14.777,1.2,4.146,3.835,7.68,5.492,11.633a21.405,21.405,0,0,1,1.537,6.62c.234,2.8.393,5.489,1.829,7.975,1.955,3.383,5.5,6.464,5.2,10.7a.555.555,0,0,1-1.11,0c-.052-3.953-3.153-6.734-5.034-9.93a11.108,11.108,0,0,1-.891-1.919.542.542,0,0,1-.268-.143c-1.866-1.76-4.488-2.049-6.544-3.509a9.861,9.861,0,0,1-3.656-5.157c-.123-.376.45-.522.586-.161a9.608,9.608,0,0,0,5.045,5.327,26.3,26.3,0,0,1,4.346,1.9c-.631-2.911-.489-5.961-1.3-8.926-.089-.327-.19-.649-.3-.969a.521.521,0,0,1-.079-.07c-2.061-2.2-5.022-2.772-7.336-4.63a11.166,11.166,0,0,1-4.275-6.963.278.278,0,0,1,.514-.139c1.327,2.86,2.767,5.389,5.578,7.044,1.41.831,3.2,1.36,4.625,2.294-1.237-2.73-2.847-5.306-4.017-8.064a19.052,19.052,0,0,1-1.5-5.53c-.054-.542-.08-1.085-.089-1.627-4.57-3.818-12.127-7.134-10.817-14.326.05-.275.449-.153.413.113-.442,3.213,1.712,6.259,4.014,8.26,2,1.74,4.306,3.083,6.4,4.709.041-1.48.18-2.959.27-4.435a20.315,20.315,0,0,0-.652-7.424c-.679-2.166-1.712-4.2-2.384-6.37-1.038-3.354-.935-6.832-.815-10.3-2.678-2.893-6.87-2.313-10.1-4.226-2.905-1.718-4.769-4.547-6.542-7.325-.117-.183.169-.413.306-.237,2.215,2.84,4.653,6,8.133,7.309,2.7,1.017,6.066.983,8.254,2.981.015-.52.027-1.04.032-1.558a22.39,22.39,0,0,0-.879-7.193,29.929,29.929,0,0,0-3.245-6.216c-.343-.559-.66-1.122-.96-1.687a11.181,11.181,0,0,0-4.459-2.778,23.2,23.2,0,0,1-5.163-2.292,14.186,14.186,0,0,1-5.661-7.448c-.053-.168.213-.287.289-.122a15.315,15.315,0,0,0,7.187,7.6c1.917.927,4.652,1.432,6.675,2.671a50.629,50.629,0,0,1-2.654-8.507A40.586,40.586,0,0,0,68.129,549.7Z" transform="translate(-58.106 -537.673)"/></svg>