<svg xmlns="http://www.w3.org/2000/svg" width="15.462" height="12.203" viewBox="0 0 15.462 12.203"><defs><style>.a{fill:#cb872d;}</style></defs><path class="a" d="M323.012,405.257a8.668,8.668,0,0,1-1.722-1.958,2.64,2.64,0,0,0-1.787-.972,5.567,5.567,0,0,0-1.948.154,23.572,23.572,0,0,0-4.355,1.386l-.1.045c.2.84.357,1.358.357,1.358s-.113,4.507,0,4.93c2.234,8.36,14.272,1.94,14.272,1.94l-.494-4.727s.54.131,1.327.257c-.2-.038-.4-.078-.595-.122A11.611,11.611,0,0,1,323.012,405.257Z" transform="translate(-313.098 -402.292)"/></svg>