<svg xmlns="http://www.w3.org/2000/svg" width="54.184" height="143.519" viewBox="0 0 54.184 143.519"><defs><style>.a{fill:#112e4f;}</style></defs><path class="a" d="M936.972,526.139s-8.7,43.483,4.4,117.295V658.42s-7.914.912-9.921,6.387h20.394l.376-22s2.021-19.027-1.347-24.414l.505-22.057,3.431-39.586h3.469s9.223,55.094,12.554,65.148l5.14,37.2s-4.852,2.614-5.14,6.635c0,0,17.263.392,13.643-1.418,0,0,1.752-45.834.948-48.046A38.537,38.537,0,0,0,982,610.231l-4.223-87.987s-31.068,1.036-39.06,3.895" transform="translate(-931.447 -522.244)"/></svg>