<svg xmlns="http://www.w3.org/2000/svg" width="26.212" height="16.709" viewBox="0 0 26.212 16.709"><defs><style>.a{fill:#420834;}</style></defs><path class="a" d="M574.151,335.747a8.987,8.987,0,0,0,3.7.924,46.154,46.154,0,0,0,8.3-.013,13.882,13.882,0,0,0,5.649-1.471,2.156,2.156,0,0,1-1.169,2.2c-.084.056-.177.122-.195.221a.375.375,0,0,0,.045.207l2.444,5.715a26.494,26.494,0,0,1,1.418-4.809c.2-.512.54-1.1,1.09-1.094a1.408,1.408,0,0,1,.825.423l1.584,1.332a13.734,13.734,0,0,0-.525-6.3,4.871,4.871,0,0,0-1.762-2.751,2.965,2.965,0,0,0-2.49-.339,8.04,8.04,0,0,0-6.514-3.159c-2.514.132-4.752,1.543-7.112,2.42s-5.362,1.084-7.071-.765a3.778,3.778,0,0,0,3.547,3.643,3.465,3.465,0,0,1-4.123-.372C572.39,333.38,572.642,334.888,574.151,335.747Z" transform="translate(-571.788 -326.819)"/></svg>