<svg xmlns="http://www.w3.org/2000/svg" width="163.288" height="89.507" viewBox="0 0 163.288 89.507"><defs><style>.a{fill:#c490d1;stroke:#002e4e;stroke-miterlimit:10;}</style></defs><path class="a" d="M1286.905,839.265c-9.7-1.142-19.567-2.613-29.175-.849.76-15.2,2.88-30.536,8.821-44.543s16.038-26.67,29.682-33.4c17.075-8.429,37.8-8.435,55.794-3.1,17.655,5.235,34.193,18.743,46.764,31.862a131.869,131.869,0,0,1,17.485,22.738,27.088,27.088,0,0,1,3.044,6.295,15.262,15.262,0,0,1-1.726,12.311c-7.562,11.932-25.437,8.2-37.024,9.389q-15.559,1.6-31.211,2.049A428.115,428.115,0,0,1,1286.905,839.265Z" transform="translate(-1257.199 -753.187)"/></svg>