<svg xmlns="http://www.w3.org/2000/svg" width="12.04" height="54.835" viewBox="0 0 12.04 54.835"><defs><style>.a{fill:#5b8baa;}</style></defs><path class="a" d="M407.445,641.649c-2.12-8.958-4.237-17.911-6.138-26.919-1.417-6.716-2.72-13.451-4.031-20.187q.2.577.388,1.156a.031.031,0,0,0,.06-.016c-.171-.578-.361-1.149-.56-1.717q-.612-3.147-1.231-6.294c-.066-.339-.553-.187-.508.14q.2,1.429.413,2.858a.014.014,0,0,0-.009.018l.018.046a483.243,483.243,0,0,0,10.565,51.2A.536.536,0,0,0,407.445,641.649Z" transform="translate(-395.422 -587.481)"/></svg>