<svg xmlns="http://www.w3.org/2000/svg" width="12.699" height="13.22" viewBox="0 0 12.699 13.22"><defs><style>.a{fill:#f8ad92;}</style></defs><path class="a" d="M955.579,260.828a14.144,14.144,0,0,1-.089-2.162,3,3,0,0,1,.168-1.02,2.284,2.284,0,0,1,.623-.833c1.31-1.163,3.236-1.2,4.885-1.8a.98.98,0,0,0,.617-.7,1.819,1.819,0,0,0-.069-1,3.388,3.388,0,0,0-.483-.962,3.145,3.145,0,0,1-.63-1.015,1.548,1.548,0,0,1,.6-1.241,7.958,7.958,0,0,1,1.306,1.78,4.077,4.077,0,0,1,.525,1.161,2.04,2.04,0,0,1-.069,1.1.29.29,0,0,0,.392-.153,2.293,2.293,0,0,0-.04-1.555c-.165-.5-.416-.975-.578-1.479a.752.752,0,0,1,.08-.788.53.53,0,0,1,.544-.063,1.316,1.316,0,0,1,.452.352,4.266,4.266,0,0,1,1.075,2,2.942,2.942,0,0,1-.382,2.2,1.483,1.483,0,0,0,.98-1.115,2.941,2.941,0,0,1,.542-1.442.329.329,0,0,1,.163-.106.321.321,0,0,1,.262.1,1.786,1.786,0,0,1,.3,1.716,3.3,3.3,0,0,1-1.55,2.361c-.015.007-.094.087-.107.1a1.582,1.582,0,0,0,1.445-.6,7.118,7.118,0,0,0,.8-1.378c.026-.049.062-.105.118-.111a.164.164,0,0,1,.111.045,1.562,1.562,0,0,1,.6,1.353,2.113,2.113,0,0,1-.264.81,3.812,3.812,0,0,1-1.821,1.636,5.172,5.172,0,0,1-2.437.393c-.46-.031-.457.31-.8.614-.948.833-1.184,2.2-1.8,3.3a2.007,2.007,0,0,1-.6.716,2.038,2.038,0,0,1-1.622.13C957.431,262.812,955.749,262.258,955.579,260.828Z" transform="translate(-955.482 -250.052)"/></svg>