<svg xmlns="http://www.w3.org/2000/svg" width="6.52" height="4.279" viewBox="0 0 6.52 4.279"><defs><style>.a{fill:#8fa6d1;}</style></defs><path class="a" d="M177.635,554.716c-1.928-.7-3.894-1.3-5.845-1.928-.3-.1-.415.358-.128.466,1.605.608,3.206,1.237,4.825,1.812a16.068,16.068,0,0,0-2.323.582,9.251,9.251,0,0,0-2.694.981.229.229,0,0,0,.231.4,11.844,11.844,0,0,1,3.029-.808,7.1,7.1,0,0,0,2.543-.682.251.251,0,0,0,.112-.154l.06.021C177.884,555.552,178.062,554.871,177.635,554.716Z" transform="translate(-171.359 -552.775)"/></svg>