<svg xmlns="http://www.w3.org/2000/svg" width="17.212" height="16.132" viewBox="0 0 17.212 16.132"><defs><style>.a{fill:#f9d0ce;}</style></defs><path class="a" d="M741.815,364.835c-.209-.239-.418-.458-.628-.661-2.393,4.526-6.487,8.206-11.477,9.253.029.062-.066.122-.128.091a.253.253,0,0,1-.105-.17,21.221,21.221,0,0,1-.805-5.735,19.59,19.59,0,0,0-1.114,1.651c-2.067.652-2.583,2.137-1.757,4.334s3.823,1.287,3.823,1.287c.93,4.518,4.959,6.33,10.021,4.987S741.815,364.835,741.815,364.835Z" transform="translate(-725.426 -364.174)"/></svg>