<svg xmlns="http://www.w3.org/2000/svg" width="6.876" height="80.279" viewBox="0 0 6.876 80.279"><defs><style>.a{fill:#2c6099;}</style></defs><path class="a" d="M248.778,666.719c-.014-2.923.079-5.892-.178-8.806a9.592,9.592,0,0,0-2.3-6.067c-.112-.116-.331.042-.229.177a10.992,10.992,0,0,1,1.876,6.718c.042,2.57-.034,5.144-.032,7.715q.009,8.317.029,16.634a32.219,32.219,0,0,1-.753,8.219c-.635,2.457-1.527,4.84-2.169,7.3a88.269,88.269,0,0,0-2.431,15.069c-.492,5.963-.669,11.992-.616,17.975a.45.45,0,0,0,.9,0c.322-10.939.209-21.877,2.956-32.564.673-2.618,1.633-5.153,2.288-7.774a30.615,30.615,0,0,0,.724-7.477C248.844,678.129,248.8,672.424,248.778,666.719Z" transform="translate(-241.968 -651.805)"/></svg>