<svg xmlns="http://www.w3.org/2000/svg" width="14.548" height="24.114" viewBox="0 0 14.548 24.114"><defs><style>.a{fill:#a0d2db;}</style></defs><path class="a" d="M1287.564,722.968a11.233,11.233,0,0,0-.166,4.039c.205,3.22.008,6.6-1.556,9.417a15.435,15.435,0,0,1-2.975,3.654,9.547,9.547,0,0,1-3.358,2.246,4.166,4.166,0,0,1-3.876-.473,4.524,4.524,0,0,1-1.443-3.842,20.978,20.978,0,0,1,.94-4.155c.673-2.518.939-5.133,1.645-7.643a11.608,11.608,0,0,1,4.061-6.5,6.426,6.426,0,0,1,5.511-.973c.668.219,2.079.826,2.319,1.57C1289,721.341,1287.889,721.913,1287.564,722.968Z" transform="translate(-1274.18 -718.475)"/></svg>