<svg xmlns="http://www.w3.org/2000/svg" width="33.503" height="28.218" viewBox="0 0 33.503 28.218"><defs><style>.a{fill:#fff;stroke:#000;stroke-miterlimit:10;stroke-width:0.75px;}</style></defs><path class="a" d="M487.29,287.342a2.429,2.429,0,0,0-2.628,1.4,6.111,6.111,0,0,0-.4,1.019c-.29,1.232-.921,2-2.311,1.861a1.482,1.482,0,0,0-.431.085,1.342,1.342,0,0,0-1.24,1.466,4.024,4.024,0,0,0,.365,1.6,2.509,2.509,0,0,1,.335,2.147,1.9,1.9,0,0,0,.644,2.454c.015.01-.015.081-.033.143h-2.21q-.136-3.923-.263-7.732c-.407-.122-.84-.13-1.061-.351a1.7,1.7,0,0,1-.44-1.045,11.241,11.241,0,0,1,.158-1.764c.177-1.62.047-1.794-1.549-2.016-.064-.859-.094-1.736-.206-2.6a2.189,2.189,0,0,0-.412-1.126,1.686,1.686,0,0,0-1.084-.551c-.5,0-.555.485-.592.932-.014.167-.311.309-.481.463-.118-.232-.323-.461-.328-.694,0-.211.216-.425.332-.639.367-.678.2-1-.571-1.052-.473-.032-.953-.006-1.446-.006-.088-.915-.241-1.657.937-2.158,1.39-.592,1.306-2.351,0-3.192-.2-.13-.412-.253-.728-.449,1.53-.289,2.137-1.484,3-2.367a1.015,1.015,0,0,0,.2-.611c.025-.383-.185-.574-.548-.391-.946.477-1.872.986-2.643,1.4-.145-.182-.326-.65-.592-.706-.694-.149-.613.459-.611.715-.818-.439-1.671-.911-2.544-1.345a1.907,1.907,0,0,0-.664-.06,4.686,4.686,0,0,0-.018.694.68.68,0,0,0,.2.383c.858.78,1.395,1.951,2.688,2.205.038.006.059.113.109.211-.93.417-1.689,1-1.584,2.12s.948,1.568,1.92,1.859c0,.7.025,1.383-.009,2.062-.022.438-.237.6-.738.493-.863-.188-1.407.22-1.392,1.1.015,1.134.155,2.267.253,3.4.056.654.159,1.3.186,1.961a.839.839,0,0,1-.267.606c-.423.349-.9.631-1.525,1.054.132-.611.239-1.049.317-1.49a1.186,1.186,0,1,0-2.3-.426c-.041.239.009.491-.033.732-.2,1.15-.094,2.358-.981,3.355a2.414,2.414,0,0,0-.322,1.575,12.328,12.328,0,0,0,.424,1.618c.243,1.259.443,2.525.668,3.836h-3.26c.238-.257.458-.407.546-.612.18-.421.5-.935.386-1.3a3.434,3.434,0,0,1,.419-3.184,1.219,1.219,0,0,0,.137-.339c.364-1.218-.126-2.331-1.3-2.356-1.769-.039-2.465-1.01-2.838-2.5a3.72,3.72,0,0,0-.314-.738,2.044,2.044,0,0,0-2.162-1.168c-.216.02-.43.084-.644.083-.484-.009-.541.186-.463.639a9.685,9.685,0,0,1,.164,2.165c-.059,1.082.2,1.409,1.378,1.344a2.578,2.578,0,0,0-.355,2.647c.074.219-.2.565-.331.845-.117.249-.373.49-.368.729a14.287,14.287,0,0,0,.224,2.538c.046.239.548.384.842.574a4.8,4.8,0,0,0,.3-.935c.023-.157-.181-.332-.257-.512-.241-.564-.426-1.256.155-1.591a5.041,5.041,0,0,1,1.864-.339c.065,0,.214.29.237.457.1.719.177,1.443.246,2.167.093.963-.341,1.437-1.3,1.437h27.146c-1.082,0-1.476-.447-1.35-1.513.071-.627.113-1.257.2-1.881.031-.219.186-.606.262-.6a4.323,4.323,0,0,1,1.859.312c.58.355.411,1.073.129,1.658-.043.087-.134.165-.137.254a3.386,3.386,0,0,0,0,.956c.023.1.462.238.538.168a1.659,1.659,0,0,0,.536-.775,16.437,16.437,0,0,0,.246-1.807,1.245,1.245,0,0,0-.489-1.353.8.8,0,0,1-.242-.723,2.565,2.565,0,0,0-.321-2.642c1.26-.028,1.41-.233,1.341-1.46a5.285,5.285,0,0,1,.09-1.867C488.186,287.538,488.161,287.381,487.29,287.342Zm-20.905,12.174v-2.468c.066,0,.131-.011.2-.014.027.458.031.918.085,1.373.061.517.123,1.073.9.882.434-.778-.365-1.721.207-2.478.08.005.16.006.242.009.041.881.08,1.76.125,2.7Zm7.995,0h-5.2c.047-.834.092-1.619.136-2.427h4.362c.1.318.12.736.272.793C474.921,298.252,474.431,298.916,474.379,299.515Zm1.48.005-.3-.018c.046-.644.092-1.285.139-1.929.052.005.107.008.16.01Z" transform="translate(-454.933 -271.713)"/></svg>