<svg xmlns="http://www.w3.org/2000/svg" width="3.88" height="4.741" viewBox="0 0 3.88 4.741"><defs><style>.a{fill:#96342f;}</style></defs><path class="a" d="M750.273,386.254c-1.3.18-2.009-.531-2.8-1.409.077-.053.152-.109.229-.168a.148.148,0,0,0-.113-.268,1.02,1.02,0,0,0-.505.262,2.432,2.432,0,0,0-.354.444c-.067.106.079.2.165.128.027-.024.057-.044.085-.067,0,.011.009.021.013.033-.413,1.275-.387,2.963.867,3.758,1.212.768,2.044-1.136,2.075-2.165a3.628,3.628,0,0,0,.472-.054C750.739,386.688,750.592,386.21,750.273,386.254Zm-1.194,1.369c-.16.4-.239.738-.706.723-.378-.012-.476-.145-.68-.475a3.694,3.694,0,0,1-.42-2.158,2.939,2.939,0,0,0,2.1,1.073C749.264,387.062,749.19,387.345,749.079,387.624Z" transform="translate(-746.715 -384.403)"/></svg>