<svg xmlns="http://www.w3.org/2000/svg" width="39.081" height="103.158" viewBox="0 0 39.081 103.158"><defs><style>.a{fill:#c69292;}</style></defs><path class="a" d="M123.6,691.931a31.686,31.686,0,0,1-5.609-12.234c-.918-3.618-1.5-7.348-2.953-10.787-1.123-2.663-2.748-5.1-3.754-7.811a37.173,37.173,0,0,1-1.74-9.995c-.47-5.793-.94-11.586-1.288-17.388a68.737,68.737,0,0,1,.233-14.463c1.013-6.661,3.792-12.89,6.693-18.989a11.171,11.171,0,0,1,.946,1.684c2.161,4.792.407,10.332.323,15.587a24.252,24.252,0,0,0,4.468,14.352c3.019,4.233,7.41,7.5,9.657,12.185,3.156,6.584,1.408,14.324,1.5,21.624a41.933,41.933,0,0,0,6.6,21.982c2.936,4.577,9.792,10.56,8.151,15.744H131.884a20.257,20.257,0,0,0-3.189-5.842C127.127,695.589,125.2,693.906,123.6,691.931Z" transform="translate(-107.995 -600.266)"/></svg>