<svg xmlns="http://www.w3.org/2000/svg" width="42.77" height="64.211" viewBox="0 0 42.77 64.211"><defs><style>.a{fill:#002e4e;}</style></defs><path class="a" d="M944.45,988.863c-.3.193-.628.425-.991.694-5.1,3.789-10.762,6.434-16.3,9.5a9.448,9.448,0,0,0-3.466,2.76c-1.454,2.181.124,3.742.413,5.9a46.045,46.045,0,0,1-1.7,19.782c-1.949,6.124-9.528,14.545-7.637,21.306,1.247,4.456,7.5,3.776,10.991,2.809,5.117-1.418,9.3-5.288,12.006-9.75s4.651-9.351,7.038-14a81.239,81.239,0,0,1,7.717-12.213,28.506,28.506,0,0,0,3.786-5.7,12.667,12.667,0,0,0-2.327-13.133c-1.655-1.911-2.856-4.17-4.457-6.123C947.365,988.072,946.66,987.438,944.45,988.863Z" transform="translate(-914.47 -988.121)"/></svg>