<svg xmlns="http://www.w3.org/2000/svg" width="62.153" height="91.107" viewBox="0 0 62.153 91.107"><defs><style>.a{fill:#fff;stroke:#002e4e;stroke-miterlimit:10;}</style></defs><path class="a" d="M770.724,684.11a14.962,14.962,0,0,1,3.48-4.9,48.872,48.872,0,0,1,9.911-6.538,1.565,1.565,0,0,1,1.225-.277,1.06,1.06,0,0,1,.554,1.235,3.1,3.1,0,0,1-.751,1.257l-2.431,2.891c-2.891,3.441,3.838,1.293,4.911.906a25.856,25.856,0,0,0,8.26-4.858,21.679,21.679,0,0,1,2.58-2.134,6.05,6.05,0,0,1,4.135-.97,4.815,4.815,0,0,1,3.66,4.44c.233,4.588-3.811,9.66-7.1,11.956A34.9,34.9,0,0,1,787,692.493a2.163,2.163,0,0,0-1.623,1.523l-11.632,42.111a124.909,124.909,0,0,1-4.315,13.079c-1.9,4.769-4.592,9.484-9.827,11.03a11.306,11.306,0,0,1-10.689-2.483c-9.141-8.253.623-24.971,4.055-33.7q4.821-12.261,10.329-24.236,2.753-5.985,5.673-11.891C769.649,686.552,770.16,685.3,770.724,684.11Z" transform="translate(-744.615 -670.15)"/></svg>