<svg xmlns="http://www.w3.org/2000/svg" width="37.586" height="59.58" viewBox="0 0 37.586 59.58"><defs><style>.a{fill:#96342f;}</style></defs><path class="a" d="M179.309,453.874c-4.267,1.808-5.19,5.923-6.8,10.271a45.017,45.017,0,0,1-9.549,14.7c-2.957,3.193-6.218,6.149-8.641,9.763s-3.96,8.1-2.955,12.337a14.219,14.219,0,0,0,7.726,9.042,27.22,27.22,0,0,0,11.938,2.406,36.758,36.758,0,0,0,9.327-1.1c.069-.1.14-.193.206-.293,4.118-6.115,3.877-14.051,3.756-21.423q-.149-9.178.267-18.354c.2-4.38.51-8.833,2.065-12.932a21.228,21.228,0,0,1,1.988-3.943c-.3-.218-.612-.427-.933-.622C185.283,452.238,181.925,452.766,179.309,453.874Z" transform="translate(-151.054 -452.809)"/></svg>