<svg xmlns="http://www.w3.org/2000/svg" width="37.363" height="69.262" viewBox="0 0 37.363 69.262"><defs><style>.a{fill:#fff;stroke:#002e4e;stroke-miterlimit:10;fill-rule:evenodd;}</style></defs><path class="a" d="M1063.918,499.652c-1.728-6.048-13.441-9.382-23.34-6.368,0,0-2.843,2.705-1.752,14.8a3.7,3.7,0,0,0-4.7-.633c-2.179,1.188-2.408,4-1.669,6.651.888,3.178,4.2,5.917,6.853,4.088h0a57.644,57.644,0,0,1-2.827,13.458c-2.233,5.9-4.625,7.71-7.443,10.215s9.634,14.643,22.156,18.433c0,0,9.823-9.492,5.658-15.658-3.92-5.8-6.3-5.539-5.321-12.354a16.94,16.94,0,0,0,4.253.193c7.255-.546,9.95-14.491,8.133-19.178A24.737,24.737,0,0,0,1063.918,499.652Z" transform="translate(-1028.124 -491.603)"/></svg>