<svg xmlns="http://www.w3.org/2000/svg" width="13.814" height="16.228" viewBox="0 0 13.814 16.228"><defs><style>.a{fill:#fdc73d;}</style></defs><path class="a" d="M1255.308,530.492c-1.021.427-2.076.772-3.13,1.115-.007-.092-.017-.185-.028-.278.338-.17.656-.356.929-.511a12.289,12.289,0,0,0,2.748-2.263c.517-.531-.258-1.286-.807-.806a10.945,10.945,0,0,1-2.759,1.672,4.189,4.189,0,0,1-.44.161c-.05-.2-.105-.4-.174-.6.311-.27.6-.565.891-.828a26.33,26.33,0,0,0,2.334-2.472.6.6,0,0,0-.85-.85c-.757.705-1.546,1.37-2.357,2.013-.272.215-.611.426-.947.65a2.748,2.748,0,0,0-.288-.232c.356-.465.658-.993.941-1.432a11.02,11.02,0,0,0,1.446-2.853.363.363,0,0,0-.6-.35,21.021,21.021,0,0,0-2.22,2.358,9.219,9.219,0,0,0-1.684,2.072,6.348,6.348,0,0,0-1.884,1.418c-.579.576-1.253.894-1.832,1.47a18.8,18.8,0,0,0-.12-3.926c-.055-.4-.185-.879-.574-1-.566-.173-.962.554-1.089,1.132a23.056,23.056,0,0,0-.447,6.947,15.572,15.572,0,0,0,1.59,4.819,1.919,1.919,0,0,0,.4.578c.718.635,1.823.021,2.559-.594q1.756-1.471,3.464-3a8.5,8.5,0,0,0,1.193-1.243c1.438-.611,2.833-1.369,4.218-2.027C1256.422,531.335,1255.965,530.217,1255.308,530.492Z" transform="translate(-1242.277 -522.539)"/></svg>