<svg xmlns="http://www.w3.org/2000/svg" width="50.453" height="196.279" viewBox="0 0 50.453 196.279"><defs><style>.a{fill:#1a4072;}</style></defs><path class="a" d="M735.153,594.858l1.548-38.4s10.409-67.66,3.885-94.91c0,0-.863-32.109-3.936-48.352a6.637,6.637,0,0,0-6.669-5.395c-6.415.144-17.327,1-25.723,4.828a8.281,8.281,0,0,0-4.691,5.864h0a8.245,8.245,0,0,0,.839,5.616c3.87,7.083,14.131,26.438,14.125,32.512-.008,7.485-2.127,10.893-2.127,10.893s-14.726,48.184-9.431,89.936c0,0-4.325,4.692-4.02,9.46s3.264,28.14,3.264,28.864v7.885h1.85l.282-5.814,7.327,6.234H722.6l-15.819-10.4,7.274-34.514,12.728-71.732,2.273.682s-6.811,38.792-3.409,66.716c0,0-3.409,5.108-2.272,10.336s7.752,29.843,7.752,29.843v8.647h1.857v-5.814l5.57,5.814h10.832Z" transform="translate(-698.935 -407.804)"/></svg>