<svg xmlns="http://www.w3.org/2000/svg" width="6.045" height="5.233" viewBox="0 0 6.045 5.233"><defs><style>.a{fill:#cb872d;}</style></defs><path class="a" d="M1169.786,443.2a8.043,8.043,0,0,1-2.573,1.159,10.844,10.844,0,0,1-2.815.05.172.172,0,0,0-.086.317,4.183,4.183,0,0,0,1.447.41,4.4,4.4,0,0,0,.191,2.571,1.646,1.646,0,0,0,1.777.629c1.762-.4,2.537-2.995,2.4-4.587.017-.015.035-.029.051-.044A.324.324,0,0,0,1169.786,443.2Zm-1.745,4.278c-.941.648-1.754.028-1.819-1.012a4.505,4.505,0,0,0-.156-1.308,6.06,6.06,0,0,0,3.492-.974C1169.327,445.381,1169.041,446.794,1168.041,447.482Z" transform="translate(-1164.229 -443.157)"/></svg>