<svg xmlns="http://www.w3.org/2000/svg" width="27.057" height="32.955" viewBox="0 0 27.057 32.955"><defs><style>.a{fill:#96342f;}</style></defs><path class="a" d="M690.841,374.961a37.8,37.8,0,0,0-1.514,8.639,23.048,23.048,0,0,1-2.147,8.469,11.216,11.216,0,0,1-9.059,6.016,9.261,9.261,0,0,1-6.812-2.657,10.212,10.212,0,0,0,5.431,4.875c3.888,1.455,8.356.621,11.989-1.387a12.756,12.756,0,0,0,3.626-2.84c2.238-2.648,2.819-6.322,2.787-9.789s-.583-6.939-.234-10.388a12.361,12.361,0,0,1,3.459-7.816,6.534,6.534,0,0,0-1.938.435A10.5,10.5,0,0,0,690.841,374.961Z" transform="translate(-671.309 -368.082)"/></svg>