<svg xmlns="http://www.w3.org/2000/svg" width="16.42" height="12.121" viewBox="0 0 16.42 12.121"><defs><style>.a{fill:#d77168;}</style></defs><path class="a" d="M843.832,449.247a16.437,16.437,0,0,0-1.291-2.162,3.477,3.477,0,0,0-.814-.886,2.661,2.661,0,0,0-1.137-.415c-2.016-.3-3.919.888-5.9,1.364a1.141,1.141,0,0,1-1.048-.291,2.117,2.117,0,0,1-.572-1.02,3.947,3.947,0,0,1-.142-1.244,3.673,3.673,0,0,0-.033-1.391,1.8,1.8,0,0,0-1.377-.824,9.25,9.25,0,0,0-.138,2.565,4.719,4.719,0,0,0,.229,1.465,2.372,2.372,0,0,0,.767,1.028.338.338,0,0,1-.479.1,2.669,2.669,0,0,1-.952-1.54c-.16-.595-.216-1.214-.38-1.808-.086-.315-.258-.668-.58-.717a.616.616,0,0,0-.57.285,1.526,1.526,0,0,0-.216.63,4.961,4.961,0,0,0,.224,2.628,3.426,3.426,0,0,0,1.775,1.9,1.727,1.727,0,0,1-1.665-.462,3.417,3.417,0,0,0-1.447-1.059.381.381,0,0,0-.225,0,.372.372,0,0,0-.189.269,2.078,2.078,0,0,0,.8,1.864,3.838,3.838,0,0,0,3.013,1.312c.019,0,.147.025.166.025a1.842,1.842,0,0,1-1.79.336,8.279,8.279,0,0,1-1.655-.834.2.2,0,0,0-.185-.033.194.194,0,0,0-.079.115,1.818,1.818,0,0,0,.276,1.7,2.458,2.458,0,0,0,.773.621,4.436,4.436,0,0,0,2.815.433,6.026,6.026,0,0,0,2.624-1.169c.428-.323.642.01,1.173.086,1.453.207,2.55,1.383,3.852,2.063a2.321,2.321,0,0,0,1.042.314,2.372,2.372,0,0,0,1.663-.906C843.292,452.359,844.578,450.747,843.832,449.247Z" transform="translate(-827.634 -442.378)"/></svg>