<svg xmlns="http://www.w3.org/2000/svg" width="29.41" height="68.774" viewBox="0 0 29.41 68.774"><defs><style>.a{fill:#96342f;}</style></defs><path class="a" d="M258.459,456.358c-2.678,5.979-4.531,12.317-7.468,18.173-1.138,2.269-2.454,4.513-2.883,7.015-.766,4.472,1.407,8.866,3.515,12.883a74.375,74.375,0,0,0,5.8,9.8,18.013,18.013,0,0,0,7.448,6.342c3.068,1.226,6.886.981,9.305-1.269a9.769,9.769,0,0,0,2.6-4.7c2.6-9.75-4.292-19.359-5.579-29.368-.733-5.693.378-11.437.886-17.154.254-2.862,1.162-15.852-3.508-15.546C264.484,442.807,259.846,453.261,258.459,456.358Z" transform="translate(-247.952 -442.533)"/></svg>