<svg xmlns="http://www.w3.org/2000/svg" width="13.139" height="77.102" viewBox="0 0 13.139 77.102"><defs><style>.a{fill:#3f5f83;}</style></defs><path class="a" d="M453.392,363.735a56.843,56.843,0,0,1,2.049,7.072c.642,2.492,1.284,4.983,1.909,7.479q1.833,7.323,3.447,14.7a244.553,244.553,0,0,1,4.864,30.435q.374,4.2.542,8.413a61.606,61.606,0,0,1,.024,8.574.456.456,0,0,1-.9-.029c-.178-2.55-.044-5.135-.131-7.692q-.126-3.717-.422-7.427c-.4-5.031-1.007-10.045-1.774-15.033-1.542-10.018-3.7-19.935-6.025-29.793q-1-4.243-2-8.486a65.619,65.619,0,0,1-1.734-8.175A.081.081,0,0,1,453.392,363.735Z" transform="translate(-453.236 -363.684)"/></svg>