<svg xmlns="http://www.w3.org/2000/svg" width="48.948" height="75.69" viewBox="0 0 48.948 75.69"><defs><style>.a{fill:#112e4f;}</style></defs><path class="a" d="M331.27,490.775a.574.574,0,0,0-1.122-.152c-1.062,3.76-2.112,7.33-4.234,10.663a25.774,25.774,0,0,1-3.575,4.423,23.437,23.437,0,0,1-2.128,1.885c-.322.25-.65.474-.968.706a174.9,174.9,0,0,0-1.08-20.691c-1.1-9.911-.166-23.229-14.653-25.27-10.526-1.483-16.75,1.708-19.367,3.564a5.365,5.365,0,0,0-1.756,2.111c4.821-1.242,9.819-2.065,14.717-1.279,5.368.861,10.634,3.971,12.829,8.944a23.783,23.783,0,0,1,1.533,6.258,173.707,173.707,0,0,1,1.3,37.5,19.334,19.334,0,0,0,5.3-3.734c.081,2.608.174,5.216.3,7.825.117,2.357.267,4.711.432,7.065.086,1.22.164,2.442.268,3.661a6.3,6.3,0,0,0,.644,3.012c.289.439,1.11.583,1.362,0a6,6,0,0,0,.2-3.012c-.1-1.221-.215-2.44-.316-3.661-.2-2.355-.382-4.71-.574-7.065-.337-4.141-.672-8.287-.937-12.434,1.8-.454,3.624-2.405,4.877-3.672a25.591,25.591,0,0,0,3.752-4.864C330.139,499.122,331.669,494.822,331.27,490.775Z" transform="translate(-282.386 -461.959)"/></svg>