<svg xmlns="http://www.w3.org/2000/svg" width="5.097" height="5.267" viewBox="0 0 5.097 5.267"><defs><style>.a{fill:#420834;}</style></defs><path class="a" d="M1043.133,552.237a.824.824,0,0,1,.581-.2.607.607,0,0,1,.453.538,1.623,1.623,0,0,1-.127.736,9.34,9.34,0,0,1-.7,1.559,2.534,2.534,0,0,1-.326.468,2.827,2.827,0,0,1-1.469.705q-.539.128-1.085.222a.937.937,0,0,1-.813-.121,3.684,3.684,0,0,1-.552-2.237,5.329,5.329,0,0,1,1.294-2.274c.453-.494.992-.8,1.631-.443,1,.568-.645,2.174-.883,2.939A16.525,16.525,0,0,1,1043.133,552.237Z" transform="translate(-1039.077 -551.033)"/></svg>