<svg xmlns="http://www.w3.org/2000/svg" width="54.674" height="79.264" viewBox="0 0 54.674 79.264"><defs><style>.a{fill:#5b8baa;}</style></defs><path class="a" d="M809.959,443.234c-2.659-.328-5.522.094-8.205.1q-4.1.011-8.207-.191c-3.621-.174-7.223-.523-10.824-.9.008-.526.013-1.052.028-1.577.051-1.9.186-3.94,1.359-5.438.863-1.1,2.185-1.765,3.1-2.824,2.27-2.621,1.353-6.79-.659-9.614s-4.91-4.929-6.88-7.782c-3.388-4.906-3.186-11.264-3.1-17.572,2.034-1.875,3.4-4.947,4.322-7.434.172-.463-.559-.653-.735-.2a23.885,23.885,0,0,1-2.09,4.149,22.7,22.7,0,0,1-1.481,1.967q0-.551,0-1.1a17.409,17.409,0,0,0,1.9-6.116c.037-.358-.549-.433-.627-.085a33.006,33.006,0,0,1-1.3,4.471c-.118-4.417-.728-8.633-3.168-12.106l-10-14.23a.428.428,0,0,0-.717-.1,30.332,30.332,0,0,1-7.036,3.13l8.051,18.269,6.985,53.812a35.522,35.522,0,0,0,12.023,3.91q-.01-1.32,0-2.641c3.594.52,7.225.816,10.84,1.015q4.1.226,8.207.21c2.68-.008,5.683.223,8.3-.406C810.49,443.848,810.339,443.28,809.959,443.234Z" transform="translate(-755.646 -366.51)"/></svg>