<svg xmlns="http://www.w3.org/2000/svg" width="16.239" height="12.521" viewBox="0 0 16.239 12.521"><defs><style>.a{fill:#87532c;}</style></defs><path class="a" d="M907.817,431.453a16.456,16.456,0,0,0-2.269-1.092,3.475,3.475,0,0,0-1.168-.29,2.659,2.659,0,0,0-1.177.281c-1.846.863-2.779,2.9-4.17,4.391a1.141,1.141,0,0,1-1.035.336,2.12,2.12,0,0,1-1.039-.536,3.962,3.962,0,0,1-.805-.96,3.664,3.664,0,0,0-.794-1.142,1.8,1.8,0,0,0-1.6.072,9.245,9.245,0,0,0,1.3,2.216,4.733,4.733,0,0,0,1,1.1,2.372,2.372,0,0,0,1.207.434.338.338,0,0,1-.345.348,2.668,2.668,0,0,1-1.643-.76c-.462-.408-.85-.893-1.314-1.3-.246-.214-.583-.415-.879-.278a.617.617,0,0,0-.319.552,1.535,1.535,0,0,0,.168.645,4.964,4.964,0,0,0,1.637,2.069,3.426,3.426,0,0,0,2.53.609,1.727,1.727,0,0,1-1.643.533,3.421,3.421,0,0,0-1.79-.085.377.377,0,0,0-.188.125.372.372,0,0,0-.01.329,2.079,2.079,0,0,0,1.694,1.114,3.838,3.838,0,0,0,3.237-.568c.015-.012.136-.06.152-.07a1.842,1.842,0,0,1-1.307,1.267,8.29,8.29,0,0,1-1.84.217.206.206,0,0,0-.173.074.2.2,0,0,0,0,.14,1.819,1.819,0,0,0,1.169,1.266,2.45,2.45,0,0,0,.987.091,4.43,4.43,0,0,0,2.587-1.191,6.02,6.02,0,0,0,1.544-2.422c.179-.506.541-.345,1.026-.575,1.327-.629,2.891-.253,4.352-.4a2.334,2.334,0,0,0,1.043-.313,2.372,2.372,0,0,0,.887-1.673C909.083,434.347,909.266,432.294,907.817,431.453Z" transform="translate(-892.761 -430.071)"/></svg>