<svg xmlns="http://www.w3.org/2000/svg" width="7.412" height="41.71" viewBox="0 0 7.412 41.71"><defs><style>.a{fill:#5b8baa;}</style></defs><path class="a" d="M331.789,651.307q-.874-5.213-1.761-10.425c-.577-3.387-1.148-6.774-1.737-10.159-.609-3.5-.942-7.239-1.987-10.635a.146.146,0,0,0-.286.039,81.616,81.616,0,0,0,1.465,10c.557,3.482,1.131,6.962,1.7,10.442q.833,5.089,1.68,10.175c.589,3.54.978,7.194,1.816,10.682.1.409.79.333.749-.1C333.106,657.978,332.345,654.625,331.789,651.307Z" transform="translate(-326.018 -619.986)"/></svg>