<svg xmlns="http://www.w3.org/2000/svg" width="11.288" height="19.094" viewBox="0 0 11.288 19.094"><defs><style>.a{fill:#420834;}</style></defs><path class="a" d="M722.776,345.429a9.956,9.956,0,0,0-3.755-1,13.417,13.417,0,0,0-3.47,4.084,11.461,11.461,0,0,0-1.254,3.451,12.779,12.779,0,0,0,1.852,8.669,10.516,10.516,0,0,0,2.425,2.891c.016-.243.035-.487.06-.73.349-3.449,1.8-7.033,4.776-8.814a4.487,4.487,0,0,0,1.4-1.025C726.295,350.958,724.879,346.593,722.776,345.429Z" transform="translate(-714.135 -344.43)"/></svg>