<svg xmlns="http://www.w3.org/2000/svg" width="27.964" height="33.348" viewBox="0 0 27.964 33.348"><defs><style>.a{fill:#fdc73d;}</style></defs><path class="a" d="M826.455,351.9c-1.43-3.421-3.669-6.449-5.2-9.825s-2.3-7.408-.676-10.74c3.264-6.684,9.847-10.445,16.909-12.783a10.842,10.842,0,0,1-2.936,3.575,25.538,25.538,0,0,1,10.5-.338c.145.021.319.068.355.21s-.113.282-.246.366a26.89,26.89,0,0,1-4.115,2.105,22.2,22.2,0,0,1,5.233,2.886,2.972,2.972,0,0,1,1.361,2.009.46.46,0,0,1-.078.318.535.535,0,0,1-.322.143,41,41,0,0,1-4.267.591,10.3,10.3,0,0,1,1.525,1.741c.178.234.345.572.157.8a.677.677,0,0,1-.3.175l-8.857,3.272a9.43,9.43,0,0,0-2.59,1.272,7.374,7.374,0,0,0-1.779,2.209,16.881,16.881,0,0,0-2.2,7.367c-.08,1.359-.021,2.819-.765,3.958C827.676,351.95,827.2,351.416,826.455,351.9Z" transform="translate(-819.671 -318.55)"/></svg>