<svg xmlns="http://www.w3.org/2000/svg" width="61.537" height="70.073" viewBox="0 0 61.537 70.073"><defs><style>.a{fill:#a0d2db;stroke:#002e4e;stroke-miterlimit:10;}</style></defs><path class="a" d="M1044.261,825.551c1.225-.457,2.449-.92,3.678-1.367a.831.831,0,0,1,.547-.57c9.257-3.427,18.308-7.375,27.515-10.929-2.091-6.642-5.6-12.539-8.746-18.7a48.659,48.659,0,0,0-10.406-14.22,80.081,80.081,0,0,0-17.124-12.307c-1.575-.8-19.432-8.225-19.538-7.9a82.807,82.807,0,0,0-2.952,14.4c-.395,3.248-.157,6.1-.915,9.444-1.163,5.132-1.113,10.553,1.5,15.252,3.624,6.52,7.119,13.213,11.075,19.5l6.495,10.326a50,50,0,0,1,7.513-2.6C1043.353,825.775,1043.808,825.666,1044.261,825.551Z" transform="translate(-1015.082 -759.06)"/></svg>