<svg xmlns="http://www.w3.org/2000/svg" width="44.019" height="126.641" viewBox="0 0 44.019 126.641"><defs><style>.a{fill:#fcdfdf;}</style></defs><path class="a" d="M1269.432,555.627a95.766,95.766,0,0,1,9.97-11.706.186.186,0,0,0-.263-.263c-6.2,6.159-12.5,12.54-15.208,21.078-1.472,4.633-2,9.594-4.186,13.986-.133.268-.272.533-.412.8a4.766,4.766,0,0,0-.7,1.1.422.422,0,0,0-.036.218c-1.845,3.176-3.954,6.144-4.579,9.9-.768,4.6.1,9.269-.265,13.895-.373,4.753-3.213,8.711-3.807,13.382-.627,4.93.968,9.915-.437,14.777-1.2,4.146-3.835,7.68-5.492,11.633a21.41,21.41,0,0,0-1.537,6.62c-.233,2.8-.393,5.489-1.829,7.975-1.955,3.383-5.5,6.464-5.2,10.7a.555.555,0,0,0,1.11,0c.052-3.953,3.153-6.733,5.034-9.93a11.108,11.108,0,0,0,.891-1.919.543.543,0,0,0,.268-.143c1.866-1.76,4.488-2.049,6.544-3.509a9.859,9.859,0,0,0,3.656-5.157c.123-.376-.45-.522-.585-.161a9.608,9.608,0,0,1-5.045,5.327,26.307,26.307,0,0,0-4.346,1.9c.631-2.911.489-5.961,1.3-8.925.089-.327.19-.649.3-.97a.565.565,0,0,0,.079-.07c2.061-2.2,5.021-2.772,7.336-4.631a11.165,11.165,0,0,0,4.276-6.963.278.278,0,0,0-.514-.139c-1.327,2.859-2.767,5.389-5.578,7.044-1.41.831-3.2,1.36-4.625,2.295,1.237-2.731,2.847-5.306,4.017-8.064a19.051,19.051,0,0,0,1.5-5.53c.055-.542.08-1.085.089-1.627,4.57-3.818,12.127-7.134,10.817-14.327-.05-.275-.449-.152-.412.114.442,3.213-1.713,6.259-4.014,8.26-2,1.74-4.306,3.083-6.4,4.709-.042-1.48-.18-2.959-.27-4.435a20.315,20.315,0,0,1,.653-7.424c.679-2.166,1.713-4.2,2.384-6.37,1.038-3.354.934-6.832.814-10.3,2.677-2.893,6.869-2.313,10.1-4.225,2.905-1.718,4.769-4.547,6.542-7.325.117-.183-.169-.413-.307-.237-2.215,2.84-4.653,6-8.133,7.309-2.7,1.016-6.066.983-8.254,2.981-.015-.52-.027-1.039-.032-1.558a22.388,22.388,0,0,1,.879-7.192,29.919,29.919,0,0,1,3.245-6.216c.343-.559.661-1.122.96-1.687a11.178,11.178,0,0,1,4.458-2.778,23.2,23.2,0,0,0,5.163-2.292,14.186,14.186,0,0,0,5.661-7.448c.053-.167-.213-.286-.289-.122a15.313,15.313,0,0,1-7.187,7.6c-1.917.927-4.652,1.432-6.675,2.671a50.671,50.671,0,0,0,2.654-8.507A40.587,40.587,0,0,1,1269.432,555.627Z" transform="translate(-1235.435 -543.603)"/></svg>