<svg xmlns="http://www.w3.org/2000/svg" width="10.882" height="10.929" viewBox="0 0 10.882 10.929"><defs><style>.a{fill:#d77168;}</style></defs><path class="a" d="M1033.628,541.018l-3.767,2.505a3.689,3.689,0,0,0-1,.858,3.049,3.049,0,0,0-.45,1.775,8.508,8.508,0,0,0,.205,1.914,5.467,5.467,0,0,0,1.741,3.089,3.218,3.218,0,0,0,3.38.509c1.044-.526,2.346-.395,3.471-.716a3.177,3.177,0,0,0,.986-.42,3.561,3.561,0,0,0,1.1-2.521,1.422,1.422,0,0,0-1.577.422,3.91,3.91,0,0,0-.809,1.481,5.518,5.518,0,0,0-2.073.056c.246-.837-.33-1.674-.469-2.535-.136-.837.146-1.694.052-2.537a10.177,10.177,0,0,0-.652-2.059C1033.531,542.154,1033.252,541.635,1033.628,541.018Z" transform="translate(-1028.406 -541.018)"/></svg>