<svg xmlns="http://www.w3.org/2000/svg" width="61.46" height="206.717" viewBox="0 0 61.46 206.717"><defs><style>.a{fill:#112e4f;}</style></defs><path class="a" d="M582.7,383.456l-37.35,3.776s-3.956,46.291-7.534,65.388S520.2,520.984,521.3,524.838,554.88,569.7,554.88,569.7s-.224,6.388-.88,6.888-6.337,7.769-6.337,7.769-8.96,4.2-6.119,4.148,13.112,0,13.112,0l9.276-18.762-3.812-5.682-6.338-6.2-13.331-31.906-6.993-6.834,20.979-39.312,2.418.866,4.787,51.317,6.653,48.092s-13.977,2.174-17.7,6.116l-4.291,3.976h31.124l-.687-13.851,1.918-32.481-4.062-5.018,3.048-85.616Z" transform="translate(-521.239 -383.456)"/></svg>