<svg xmlns="http://www.w3.org/2000/svg" width="35.212" height="73.496" viewBox="0 0 35.212 73.496"><defs><style>.a{fill:#fff;stroke:#002e4e;stroke-miterlimit:10;}</style></defs><path class="a" d="M997.3,756.306a48.888,48.888,0,0,0,.057-8.1c-.255-2.2-1.835-3.1-3.5-4.472-7.069-5.8-8.487-14.966-6.243-23.433a13.444,13.444,0,0,0,.554-2.762,18.954,18.954,0,0,0-.187-2.624,13.844,13.844,0,0,1,2.446-9.411c4.3-5.835,14.626-6.185,20.385-2.45,7.819,5.07,8.892,15.884,9.167,25.2q.323,10.871.643,21.742c.231,7.789.858,17.6-7.278,21.7a13.023,13.023,0,0,1-9.181.922,9.813,9.813,0,0,1-4.769-2.8C996.268,766.324,997.077,760.606,997.3,756.306Z" transform="translate(-985.991 -700.1)"/></svg>