<svg xmlns="http://www.w3.org/2000/svg" width="44.223" height="23.108" viewBox="0 0 44.223 23.108"><defs><style>.a{fill:none;stroke:#002e4e;stroke-miterlimit:10;}</style></defs><path class="a" d="M1282.867,740.078a15.435,15.435,0,0,0,2.975-3.654c1.564-2.821,1.761-6.2,1.556-9.417a11.257,11.257,0,0,1,.166-4.039,2.469,2.469,0,0,1,.246-.53,13.459,13.459,0,0,0,1.61-.124,24.092,24.092,0,0,0,7.751-2.482,2.741,2.741,0,0,1,1.217-.417,2.565,2.565,0,0,1,1.078.325c2.5,1.187,5.038,2.5,7.8,2.682s5.845-1.112,6.779-3.716c.13-.363.289-.81.67-.868a.98.98,0,0,1,.728.328c3.132,2.671,6.335,7.246,11.1,5.118" transform="translate(-1282.524 -717.333)"/></svg>