<svg xmlns="http://www.w3.org/2000/svg" width="16.951" height="76.04" viewBox="0 0 16.951 76.04"><defs><style>.a{fill:#aecae9;}</style></defs><path class="a" d="M418.77,388.044q3.378,15.321,6.375,30.725.842,4.327,1.652,8.66a77.355,77.355,0,0,0,1.743,8.9c.168.536,1.048.468,1.016-.138a58.792,58.792,0,0,0-1.267-7.563q-.709-3.824-1.454-7.642-1.506-7.763-3.119-15.506Q420.491,390,416.738,374.63c-1.138-4.679-2.316-9.343-3.6-13.981l-.53.139C414.6,369.885,416.764,378.947,418.77,388.044Z" transform="translate(-412.605 -360.649)"/></svg>