<svg xmlns="http://www.w3.org/2000/svg" width="34.5" height="142.111" viewBox="0 0 34.5 142.111"><defs><style>.a{fill:#3f5f83;}</style></defs><path class="a" d="M797.538,601.185c-.8-.221-6.972-48.964-7.59-72.272l-7.23-.588s-4.165,31.157,7.7,70.2c0,0-7.166,8.33-8.41,15.147s-2.516,44.809-2.516,44.809l-4.374,11.951h5.024a204.447,204.447,0,0,1,2.175-26.544c1.957-12.195,6.035-25.418,12.839-35.725a23.01,23.01,0,0,0,13.416-1.374,16.61,16.61,0,0,0,1.032-4.937v-.012A28.615,28.615,0,0,1,797.538,601.185Z" transform="translate(-775.119 -528.326)"/></svg>