<svg xmlns="http://www.w3.org/2000/svg" width="10.034" height="11.968" viewBox="0 0 10.034 11.968"><defs><style>.a{fill:#d77168;}</style></defs><path class="a" d="M615.436,733.461l.855-1.611a29.432,29.432,0,0,0,2.458,3.061l.965-2.668a11.521,11.521,0,0,0,1.334,1.663l1.787-4.357-1.383-.026a38.2,38.2,0,0,0,1.634-4.06l-2.453,1.207q-.166-1.786-.331-3.572a10.694,10.694,0,0,0-2.277,2.1l-1.6-2.257-1.421,2.089a7.832,7.832,0,0,1-1.954-1.04l.714,5.166Q614.687,731.275,615.436,733.461Z" transform="translate(-613.052 -722.943)"/></svg>