<svg xmlns="http://www.w3.org/2000/svg" width="21.145" height="17.428" viewBox="0 0 21.145 17.428"><defs><style>.a{fill:#f8ad92;}</style></defs><path class="a" d="M228.267,432.19a3.045,3.045,0,0,0,.193-1.773l-5.959,2.205c-.5.767-.932,1.585-1.421,2.356a11.424,11.424,0,0,1-4.215,4.105,7,7,0,0,1-5.751.454,8.275,8.275,0,0,0,.992-1.011l-1.818-.719c-2.034-.8-2.569,3.372-2.034,4.763s3.318,1.912,3.318,1.912c1.177,2.876,6.207,4.295,13.271,2.69S228.267,432.19,228.267,432.19Z" transform="translate(-208.06 -430.417)"/></svg>