<svg xmlns="http://www.w3.org/2000/svg" width="4.429" height="3.539" viewBox="0 0 4.429 3.539"><defs><style>.a{fill:#420834;}</style></defs><path class="a" d="M1047.379,309.523a1.34,1.34,0,0,0-.9.484c-.111.11.058.277.171.171a.453.453,0,0,1,.41-.128,4.914,4.914,0,0,1-1.317,1.56,8.5,8.5,0,0,1-1.887,1.082.134.134,0,0,0,0,.23c.8.454,1.814-.309,2.446-.764a2.553,2.553,0,0,0,1.323-1.868.792.792,0,0,0,.339.093.26.26,0,0,0,.254-.254C1048.255,309.689,1047.742,309.514,1047.379,309.523Z" transform="translate(-1043.791 -309.523)"/></svg>