<svg xmlns="http://www.w3.org/2000/svg" width="12.699" height="13.22" viewBox="0 0 12.699 13.22"><defs><style>.a{fill:#f8ad92;}</style></defs><path class="a" d="M746.878,265.4a14.106,14.106,0,0,0,.089-2.162,2.984,2.984,0,0,0-.169-1.02,2.276,2.276,0,0,0-.623-.833c-1.309-1.163-3.236-1.205-4.885-1.8a.98.98,0,0,1-.617-.7,1.826,1.826,0,0,1,.069-1,3.392,3.392,0,0,1,.483-.962,3.145,3.145,0,0,0,.63-1.015,1.549,1.549,0,0,0-.6-1.241,7.963,7.963,0,0,0-1.306,1.78,4.071,4.071,0,0,0-.524,1.161,2.042,2.042,0,0,0,.068,1.1.29.29,0,0,1-.392-.153,2.293,2.293,0,0,1,.04-1.555c.165-.5.416-.975.577-1.479a.752.752,0,0,0-.08-.788.529.529,0,0,0-.544-.063,1.311,1.311,0,0,0-.451.352,4.263,4.263,0,0,0-1.075,2,2.945,2.945,0,0,0,.381,2.2,1.484,1.484,0,0,1-.98-1.115,2.941,2.941,0,0,0-.543-1.442.26.26,0,0,0-.425,0,1.787,1.787,0,0,0-.3,1.716,3.3,3.3,0,0,0,1.55,2.361c.015.007.094.087.108.1a1.582,1.582,0,0,1-1.445-.6,7.128,7.128,0,0,1-.8-1.379c-.026-.049-.062-.105-.118-.111a.166.166,0,0,0-.111.046,1.563,1.563,0,0,0-.6,1.353,2.109,2.109,0,0,0,.264.81,3.813,3.813,0,0,0,1.821,1.636,5.171,5.171,0,0,0,2.437.393c.46-.031.457.31.8.614.948.833,1.184,2.2,1.8,3.3a2.005,2.005,0,0,0,.6.716,2.037,2.037,0,0,0,1.622.13C745.026,267.379,746.71,266.825,746.878,265.4Z" transform="translate(-734.277 -254.619)"/></svg>