<svg xmlns="http://www.w3.org/2000/svg" width="39.736" height="42.018" viewBox="0 0 39.736 42.018"><defs><style>.a{fill:#a34848;}</style></defs><path class="a" d="M1065.951,534.442a4.569,4.569,0,0,0,1.624-2.029c.325-1.108-.224-2.276-.228-3.432-.008-1.908,1.429-3.475,2.773-4.83l8.789-8.855a6.194,6.194,0,0,0,1.791-2.559c.451-1.65-.523-3.349-1.657-4.63-3.087-3.488-7.5-5.5-11.9-7.022a80.794,80.794,0,0,0-16.363-3.81,218.772,218.772,0,0,0-9.7,37.422,93.925,93.925,0,0,0,12.63,3.473,3.98,3.98,0,0,1,1.179.19c.095.031.189.066.283.1,1.565.3,3.22.584,4.948.83a9.217,9.217,0,0,0,1.035-.79Z" transform="translate(-1041.077 -497.276)"/></svg>