<svg xmlns="http://www.w3.org/2000/svg" width="134.663" height="97.525" viewBox="0 0 134.663 97.525"><defs><style>.a{fill:#fff;stroke:#002e4e;stroke-miterlimit:10;}</style></defs><path class="a" d="M1059,795.045c15.061,8.4,17.416,26.883,17.9,43.3.246,8.44-.235,17.09-3.408,24.916-8.506,20.975-34.262,26.243-54.387,25.544A228.581,228.581,0,0,1,943.3,873.1a45.152,45.152,0,0,1,1.475-13.089,188.759,188.759,0,0,0,47.047,6.262c11.5.073,23.177-.939,33.9-4.711,6.928-2.438,13.734-6.377,16.752-12.531,5.425-11.031-3.63-22.872-4.9-33.85-.447-3.855-.875-7.883.493-11.515a22.984,22.984,0,0,1,2.424-4.414c1.366-2.086,2.842-4.208,4.978-5.493,3.13-1.881,7.188-1.6,10.548-.175A30.986,30.986,0,0,1,1059,795.045Z" transform="translate(-942.774 -791.849)"/></svg>