<svg xmlns="http://www.w3.org/2000/svg" width="36.341" height="26.155" viewBox="0 0 36.341 26.155"><defs><style>.a{fill:#326aa6;}</style></defs><path class="a" d="M991.878,364.365a12.478,12.478,0,0,1,6.382-3.348,46.928,46.928,0,0,1,19.335-.445c2.433.4,5,1.026,6.7,2.816a10.321,10.321,0,0,1,2.322,6.115c.441,4.1-.129,8.536-2.732,11.735a13.271,13.271,0,0,1-8.11,4.455,22.838,22.838,0,0,1-9.368-.614,23.1,23.1,0,0,1-9.641-4.718c-2.783-2.437-3.449-5.279-5.039-8.4C990.372,369.31,989.546,366.986,991.878,364.365Z" transform="translate(-990.408 -359.785)"/></svg>