<svg xmlns="http://www.w3.org/2000/svg" width="57.418" height="130.286" viewBox="0 0 57.418 130.286"><defs><style>.a{fill:#1a4072;}</style></defs><path class="a" d="M578.658,638.8l-4.062-5.018,2.7-75.768c-6,2.291-12.742,2.159-19.212,1.8-7.494-.414-15.432-1.248-21.786-4.969-4.954,22.084-15.975,61.519-14.995,64.95,1.1,3.853,33.579,44.864,33.579,44.864s-.224,6.388-.879,6.888-6.338,7.769-6.338,7.769-8.96,4.2-6.119,4.148c1.254-.023,3.954-.026,6.58-.022l2.468-2.288a9.909,9.909,0,0,1,2.656-1.846l.01-.007.017-.007a30.222,30.222,0,0,1,4.293-1.723l6.363-12.869-3.813-5.682-1.966-1.925-17.7-36.186-6.993-6.834,20.979-39.312.629.225a2.74,2.74,0,0,0-2.989-.63,4.355,4.355,0,0,0-1.258,1.046c-11.022,12-12.637,30.336-23.248,42.7,5.386,3.424,9.687,8.79,13.351,14.016q11.574,16.5,21.9,33.837-10.319-17.317-21.9-33.837c-3.664-5.226-7.964-10.592-13.351-14.016,10.611-12.36,12.226-30.7,23.248-42.7a4.355,4.355,0,0,1,1.258-1.046,2.74,2.74,0,0,1,2.989.63l1.789.64,4.787,51.317,6.653,48.092a79.473,79.473,0,0,0-10.727,2.534l-4.293,1.723-.028.014a53.828,53.828,0,0,0-5.125,4.134l-1.822,1.688h31.124l-.687-13.851Z" transform="translate(-521.24 -554.842)"/></svg>