<svg xmlns="http://www.w3.org/2000/svg" width="31.309" height="43.586" viewBox="0 0 31.309 43.586"><defs><style>.a{fill:#d77168;}</style></defs><path class="a" d="M688.753,344.6A10.251,10.251,0,0,0,682,349.378c-2.284,4.071-1.01,9.1-.542,13.74a37.135,37.135,0,0,1-.157,8.763,14.831,14.831,0,0,1-2.029,6.227,6.822,6.822,0,0,1-5.44,3.255,4.493,4.493,0,0,1-4.514-3.925c-.6,4.107,2.387,8.2,6.275,9.657s8.356.621,11.989-1.387a12.752,12.752,0,0,0,3.626-2.84c2.238-2.648,2.818-6.322,2.787-9.789s-.583-6.939-.235-10.388,1.8-7.033,4.776-8.814a4.486,4.486,0,0,0,1.4-1.025c1.485-2,.07-6.362-2.033-7.526C695.54,344.016,691.232,344.053,688.753,344.6Z" transform="translate(-669.243 -344.242)"/></svg>