<svg xmlns="http://www.w3.org/2000/svg" width="3.947" height="6.926" viewBox="0 0 3.947 6.926"><defs><style>.a{fill:#0f2b47;}</style></defs><path class="a" d="M1198.31,431.061a15.833,15.833,0,0,1-.2-2.822.337.337,0,0,0-.34-.319c-1.1-.157-1.462,1.054-1.8,1.911-.549,1.378-1.38,3.3-1.058,4.8a.288.288,0,0,0,.521.068,12.62,12.62,0,0,0,.748-2.923c.191-.734.524-2.717,1.257-3.375-.193,1.615-.19,3.715.694,5.1.174.271.683.191.653-.177C1198.722,432.548,1198.442,431.82,1198.31,431.061Z" transform="translate(-1194.84 -427.906)"/></svg>